<mxfile host="app.diagrams.net" modified="2023-07-19T01:41:29.129Z" agent="Mozilla/5.0 (Windows NT 10.0; Win64; x64) AppleWebKit/537.36 (KHTML, like Gecko) Chrome/114.0.0.0 Safari/537.36" etag="2lTwipUIsNRwC6WPzEMc" version="21.6.1" type="github" pages="3">
  <diagram name="Non_S3_Serverless_Patter" id="oG8yw8CLSSuVJ3yPRhyg">
    <mxGraphModel dx="1050" dy="491" grid="1" gridSize="10" guides="1" tooltips="1" connect="1" arrows="1" fold="1" page="1" pageScale="1" pageWidth="850" pageHeight="1100" math="0" shadow="0">
      <root>
        <mxCell id="pJUA1Hdm37nD7-ItDboX-0" />
        <mxCell id="pJUA1Hdm37nD7-ItDboX-1" parent="pJUA1Hdm37nD7-ItDboX-0" />
        <mxCell id="pJUA1Hdm37nD7-ItDboX-2" style="edgeStyle=orthogonalEdgeStyle;rounded=0;orthogonalLoop=1;jettySize=auto;html=1;startArrow=open;startFill=0;endArrow=open;endFill=0;strokeWidth=2;strokeColor=#808080;" parent="pJUA1Hdm37nD7-ItDboX-1" edge="1">
          <mxGeometry relative="1" as="geometry">
            <Array as="points">
              <mxPoint x="790" y="579.23" />
              <mxPoint x="790" y="579.23" />
            </Array>
            <mxPoint x="840" y="579" as="targetPoint" />
            <mxPoint x="700" y="579" as="sourcePoint" />
          </mxGeometry>
        </mxCell>
        <mxCell id="pJUA1Hdm37nD7-ItDboX-4" style="edgeStyle=orthogonalEdgeStyle;rounded=0;orthogonalLoop=1;jettySize=auto;html=1;" parent="pJUA1Hdm37nD7-ItDboX-1" source="pJUA1Hdm37nD7-ItDboX-5" target="pJUA1Hdm37nD7-ItDboX-16" edge="1">
          <mxGeometry relative="1" as="geometry">
            <Array as="points">
              <mxPoint x="364" y="495.73" />
            </Array>
          </mxGeometry>
        </mxCell>
        <mxCell id="pJUA1Hdm37nD7-ItDboX-5" value="Amazon &lt;br&gt;Cognito" style="outlineConnect=0;fontColor=#232F3E;gradientColor=#F54749;gradientDirection=north;fillColor=#C7131F;strokeColor=#ffffff;dashed=0;verticalLabelPosition=bottom;verticalAlign=top;align=center;html=1;fontSize=12;fontStyle=0;aspect=fixed;shape=mxgraph.aws4.resourceIcon;resIcon=mxgraph.aws4.cognito;labelBackgroundColor=#ffffff;" parent="pJUA1Hdm37nD7-ItDboX-1" vertex="1">
          <mxGeometry x="349" y="395.73" width="50" height="50" as="geometry" />
        </mxCell>
        <mxCell id="pJUA1Hdm37nD7-ItDboX-9" style="edgeStyle=orthogonalEdgeStyle;rounded=0;orthogonalLoop=1;jettySize=auto;html=1;" parent="pJUA1Hdm37nD7-ItDboX-1" source="pJUA1Hdm37nD7-ItDboX-10" target="pJUA1Hdm37nD7-ItDboX-43" edge="1">
          <mxGeometry relative="1" as="geometry" />
        </mxCell>
        <mxCell id="pJUA1Hdm37nD7-ItDboX-10" value="All Logs stored &lt;br&gt;in Cloudwatch&amp;nbsp;" style="outlineConnect=0;fontColor=#232F3E;gradientColor=#F34482;gradientDirection=north;fillColor=#BC1356;strokeColor=#ffffff;dashed=0;verticalLabelPosition=bottom;verticalAlign=top;align=center;html=1;fontSize=12;fontStyle=0;aspect=fixed;shape=mxgraph.aws4.resourceIcon;resIcon=mxgraph.aws4.cloudwatch;labelBackgroundColor=#ffffff;direction=west;" parent="pJUA1Hdm37nD7-ItDboX-1" vertex="1">
          <mxGeometry x="422.62" y="649.25" width="45" height="45" as="geometry" />
        </mxCell>
        <mxCell id="pJUA1Hdm37nD7-ItDboX-11" value="1. user enters&amp;nbsp;&lt;br&gt;username/pwd" style="text;html=1;strokeColor=none;fillColor=none;align=center;verticalAlign=middle;whiteSpace=wrap;rounded=0;" parent="pJUA1Hdm37nD7-ItDboX-1" vertex="1">
          <mxGeometry x="214" y="395.73" width="120" height="20" as="geometry" />
        </mxCell>
        <mxCell id="pJUA1Hdm37nD7-ItDboX-12" value="2. Return access_token" style="text;html=1;strokeColor=none;fillColor=none;align=center;verticalAlign=middle;whiteSpace=wrap;rounded=0;" parent="pJUA1Hdm37nD7-ItDboX-1" vertex="1">
          <mxGeometry x="204" y="469.35" width="130" height="20" as="geometry" />
        </mxCell>
        <mxCell id="pJUA1Hdm37nD7-ItDboX-13" style="edgeStyle=orthogonalEdgeStyle;rounded=0;orthogonalLoop=1;jettySize=auto;html=1;" parent="pJUA1Hdm37nD7-ItDboX-1" source="pJUA1Hdm37nD7-ItDboX-16" target="pJUA1Hdm37nD7-ItDboX-5" edge="1">
          <mxGeometry relative="1" as="geometry" />
        </mxCell>
        <mxCell id="pJUA1Hdm37nD7-ItDboX-14" style="edgeStyle=orthogonalEdgeStyle;rounded=0;orthogonalLoop=1;jettySize=auto;html=1;" parent="pJUA1Hdm37nD7-ItDboX-1" source="pJUA1Hdm37nD7-ItDboX-16" target="DxohR8C178BpTvjmq5BH-0" edge="1">
          <mxGeometry relative="1" as="geometry">
            <Array as="points">
              <mxPoint x="140" y="569" />
            </Array>
            <mxPoint x="190" y="569" as="targetPoint" />
          </mxGeometry>
        </mxCell>
        <mxCell id="esZr6l33X5W8kdQcvTVW-1" style="edgeStyle=orthogonalEdgeStyle;rounded=0;orthogonalLoop=1;jettySize=auto;html=1;entryX=0.5;entryY=1;entryDx=0;entryDy=0;entryPerimeter=0;" parent="pJUA1Hdm37nD7-ItDboX-1" source="pJUA1Hdm37nD7-ItDboX-16" target="pJUA1Hdm37nD7-ItDboX-47" edge="1">
          <mxGeometry relative="1" as="geometry" />
        </mxCell>
        <mxCell id="pJUA1Hdm37nD7-ItDboX-16" value="" style="outlineConnect=0;fontColor=#232F3E;gradientColor=none;fillColor=#232F3E;strokeColor=none;dashed=0;verticalLabelPosition=bottom;verticalAlign=top;align=center;html=1;fontSize=12;fontStyle=0;aspect=fixed;pointerEvents=1;shape=mxgraph.aws4.client;" parent="pJUA1Hdm37nD7-ItDboX-1" vertex="1">
          <mxGeometry x="106.33" y="429.23" width="71.84" height="70" as="geometry" />
        </mxCell>
        <mxCell id="pJUA1Hdm37nD7-ItDboX-33" value="App specific Assets stored in &lt;br&gt;S3 Bucket&amp;nbsp;separated by client" style="outlineConnect=0;fontColor=#232F3E;gradientColor=#60A337;gradientDirection=north;fillColor=#277116;strokeColor=#ffffff;dashed=0;verticalLabelPosition=bottom;verticalAlign=top;align=center;html=1;fontSize=12;fontStyle=0;aspect=fixed;shape=mxgraph.aws4.resourceIcon;resIcon=mxgraph.aws4.s3;labelBackgroundColor=#ffffff;direction=south;" parent="pJUA1Hdm37nD7-ItDboX-1" vertex="1">
          <mxGeometry x="620" y="330" width="58" height="58" as="geometry" />
        </mxCell>
        <mxCell id="pJUA1Hdm37nD7-ItDboX-34" style="edgeStyle=orthogonalEdgeStyle;rounded=0;orthogonalLoop=1;jettySize=auto;html=1;" parent="pJUA1Hdm37nD7-ItDboX-1" source="pJUA1Hdm37nD7-ItDboX-36" target="pJUA1Hdm37nD7-ItDboX-10" edge="1">
          <mxGeometry relative="1" as="geometry">
            <Array as="points">
              <mxPoint x="668" y="710" />
            </Array>
          </mxGeometry>
        </mxCell>
        <mxCell id="pJUA1Hdm37nD7-ItDboX-35" style="edgeStyle=orthogonalEdgeStyle;rounded=0;orthogonalLoop=1;jettySize=auto;html=1;entryX=0;entryY=0.5;entryDx=0;entryDy=0;entryPerimeter=0;" parent="pJUA1Hdm37nD7-ItDboX-1" source="pJUA1Hdm37nD7-ItDboX-36" target="pJUA1Hdm37nD7-ItDboX-48" edge="1">
          <mxGeometry relative="1" as="geometry" />
        </mxCell>
        <mxCell id="pJUA1Hdm37nD7-ItDboX-36" value="" style="points=[[0,0,0],[0.25,0,0],[0.5,0,0],[0.75,0,0],[1,0,0],[0,1,0],[0.25,1,0],[0.5,1,0],[0.75,1,0],[1,1,0],[0,0.25,0],[0,0.5,0],[0,0.75,0],[1,0.25,0],[1,0.5,0],[1,0.75,0]];outlineConnect=0;fontColor=#232F3E;gradientColor=#F78E04;gradientDirection=north;fillColor=#D05C17;strokeColor=#ffffff;dashed=0;verticalLabelPosition=bottom;verticalAlign=top;align=center;html=1;fontSize=12;fontStyle=0;aspect=fixed;shape=mxgraph.aws4.resourceIcon;resIcon=mxgraph.aws4.fargate;" parent="pJUA1Hdm37nD7-ItDboX-1" vertex="1">
          <mxGeometry x="640" y="602.23" width="55" height="55" as="geometry" />
        </mxCell>
        <mxCell id="pJUA1Hdm37nD7-ItDboX-37" value="" style="points=[[0,0,0],[0.25,0,0],[0.5,0,0],[0.75,0,0],[1,0,0],[0,1,0],[0.25,1,0],[0.5,1,0],[0.75,1,0],[1,1,0],[0,0.25,0],[0,0.5,0],[0,0.75,0],[1,0.25,0],[1,0.5,0],[1,0.75,0]];outlineConnect=0;fontColor=#232F3E;gradientColor=#F78E04;gradientDirection=north;fillColor=#D05C17;strokeColor=#ffffff;dashed=0;verticalLabelPosition=bottom;verticalAlign=top;align=center;html=1;fontSize=12;fontStyle=0;aspect=fixed;shape=mxgraph.aws4.resourceIcon;resIcon=mxgraph.aws4.fargate;" parent="pJUA1Hdm37nD7-ItDboX-1" vertex="1">
          <mxGeometry x="640" y="542.5" width="55" height="55" as="geometry" />
        </mxCell>
        <mxCell id="pJUA1Hdm37nD7-ItDboX-38" style="edgeStyle=orthogonalEdgeStyle;rounded=0;orthogonalLoop=1;jettySize=auto;html=1;" parent="pJUA1Hdm37nD7-ItDboX-1" source="pJUA1Hdm37nD7-ItDboX-40" target="pJUA1Hdm37nD7-ItDboX-33" edge="1">
          <mxGeometry relative="1" as="geometry" />
        </mxCell>
        <mxCell id="pJUA1Hdm37nD7-ItDboX-39" style="edgeStyle=orthogonalEdgeStyle;rounded=0;orthogonalLoop=1;jettySize=auto;html=1;entryX=0;entryY=0.5;entryDx=0;entryDy=0;entryPerimeter=0;" parent="pJUA1Hdm37nD7-ItDboX-1" source="pJUA1Hdm37nD7-ItDboX-40" target="pJUA1Hdm37nD7-ItDboX-52" edge="1">
          <mxGeometry relative="1" as="geometry" />
        </mxCell>
        <mxCell id="pJUA1Hdm37nD7-ItDboX-40" value="" style="points=[[0,0,0],[0.25,0,0],[0.5,0,0],[0.75,0,0],[1,0,0],[0,1,0],[0.25,1,0],[0.5,1,0],[0.75,1,0],[1,1,0],[0,0.25,0],[0,0.5,0],[0,0.75,0],[1,0.25,0],[1,0.5,0],[1,0.75,0]];outlineConnect=0;fontColor=#232F3E;gradientColor=#F78E04;gradientDirection=north;fillColor=#D05C17;strokeColor=#ffffff;dashed=0;verticalLabelPosition=bottom;verticalAlign=top;align=center;html=1;fontSize=12;fontStyle=0;aspect=fixed;shape=mxgraph.aws4.resourceIcon;resIcon=mxgraph.aws4.fargate;" parent="pJUA1Hdm37nD7-ItDboX-1" vertex="1">
          <mxGeometry x="640" y="480.73" width="55" height="55" as="geometry" />
        </mxCell>
        <mxCell id="pJUA1Hdm37nD7-ItDboX-42" value="ECS &amp;amp; application &lt;br&gt;logs sent to cloudwatch" style="text;html=1;strokeColor=none;fillColor=none;align=center;verticalAlign=middle;whiteSpace=wrap;rounded=0;" parent="pJUA1Hdm37nD7-ItDboX-1" vertex="1">
          <mxGeometry x="490" y="674.25" width="130" height="20" as="geometry" />
        </mxCell>
        <mxCell id="pJUA1Hdm37nD7-ItDboX-43" value="" style="aspect=fixed;html=1;points=[];align=center;image;fontSize=12;image=img/lib/azure2/management_governance/Metrics.svg;fillColor=#99FFFF;" parent="pJUA1Hdm37nD7-ItDboX-1" vertex="1">
          <mxGeometry x="431.28000000000003" y="746.75" width="27.69" height="30" as="geometry" />
        </mxCell>
        <mxCell id="pJUA1Hdm37nD7-ItDboX-44" value="Cloudwatch metrics/insights" style="text;html=1;strokeColor=none;fillColor=none;align=center;verticalAlign=middle;whiteSpace=wrap;rounded=0;" parent="pJUA1Hdm37nD7-ItDboX-1" vertex="1">
          <mxGeometry x="257.03" y="756.75" width="174.25" height="20" as="geometry" />
        </mxCell>
        <mxCell id="pJUA1Hdm37nD7-ItDboX-45" value="ECS Fargate Tasks" style="text;html=1;strokeColor=none;fillColor=none;align=center;verticalAlign=middle;whiteSpace=wrap;rounded=0;fontStyle=1" parent="pJUA1Hdm37nD7-ItDboX-1" vertex="1">
          <mxGeometry x="602.75" y="460" width="143" height="18.87" as="geometry" />
        </mxCell>
        <mxCell id="pJUA1Hdm37nD7-ItDboX-47" value="" style="points=[[0,0,0],[0.25,0,0],[0.5,0,0],[0.75,0,0],[1,0,0],[0,1,0],[0.25,1,0],[0.5,1,0],[0.75,1,0],[1,1,0],[0,0.25,0],[0,0.5,0],[0,0.75,0],[1,0.25,0],[1,0.5,0],[1,0.75,0]];outlineConnect=0;fontColor=#232F3E;gradientColor=#945DF2;gradientDirection=north;fillColor=#5A30B5;strokeColor=#ffffff;dashed=0;verticalLabelPosition=bottom;verticalAlign=top;align=center;html=1;fontSize=12;fontStyle=0;aspect=fixed;shape=mxgraph.aws4.resourceIcon;resIcon=mxgraph.aws4.route_53;" parent="pJUA1Hdm37nD7-ItDboX-1" vertex="1">
          <mxGeometry x="117.25" y="328.62" width="50" height="50" as="geometry" />
        </mxCell>
        <mxCell id="pJUA1Hdm37nD7-ItDboX-48" value="platform api&lt;br&gt;docker image&amp;nbsp;&lt;br&gt;in ECR" style="points=[[0,0,0],[0.25,0,0],[0.5,0,0],[0.75,0,0],[1,0,0],[0,1,0],[0.25,1,0],[0.5,1,0],[0.75,1,0],[1,1,0],[0,0.25,0],[0,0.5,0],[0,0.75,0],[1,0.25,0],[1,0.5,0],[1,0.75,0]];outlineConnect=0;fontColor=#232F3E;gradientColor=#F78E04;gradientDirection=north;fillColor=#D05C17;strokeColor=#ffffff;dashed=0;verticalLabelPosition=bottom;verticalAlign=top;align=center;html=1;fontSize=12;fontStyle=0;aspect=fixed;shape=mxgraph.aws4.resourceIcon;resIcon=mxgraph.aws4.ecr;" parent="pJUA1Hdm37nD7-ItDboX-1" vertex="1">
          <mxGeometry x="744.25" y="609.25" width="40" height="40" as="geometry" />
        </mxCell>
        <mxCell id="pJUA1Hdm37nD7-ItDboX-49" value="3. Invoke api with &lt;br&gt;access_token" style="text;html=1;strokeColor=none;fillColor=none;align=center;verticalAlign=middle;whiteSpace=wrap;rounded=0;" parent="pJUA1Hdm37nD7-ItDboX-1" vertex="1">
          <mxGeometry x="90" y="525.73" width="110" height="10" as="geometry" />
        </mxCell>
        <mxCell id="pJUA1Hdm37nD7-ItDboX-50" value="" style="aspect=fixed;perimeter=ellipsePerimeter;html=1;align=center;shadow=0;dashed=0;fontColor=#4277BB;labelBackgroundColor=#ffffff;fontSize=12;spacingTop=3;image;image=img/lib/ibm/applications/microservice.svg;fillColor=#FFFFFF;" parent="pJUA1Hdm37nD7-ItDboX-1" vertex="1">
          <mxGeometry x="704.65" y="480.73" width="41.1" height="30" as="geometry" />
        </mxCell>
        <mxCell id="pJUA1Hdm37nD7-ItDboX-51" value="" style="aspect=fixed;perimeter=ellipsePerimeter;html=1;align=center;shadow=0;dashed=0;fontColor=#4277BB;labelBackgroundColor=#ffffff;fontSize=12;spacingTop=3;image;image=img/lib/ibm/applications/microservice.svg;fillColor=#FFFFFF;" parent="pJUA1Hdm37nD7-ItDboX-1" vertex="1">
          <mxGeometry x="704.65" y="535.73" width="41.1" height="30" as="geometry" />
        </mxCell>
        <mxCell id="pJUA1Hdm37nD7-ItDboX-52" value="" style="points=[[0,0,0],[0.25,0,0],[0.5,0,0],[0.75,0,0],[1,0,0],[0,1,0],[0.25,1,0],[0.5,1,0],[0.75,1,0],[1,1,0],[0,0.25,0],[0,0.5,0],[0,0.75,0],[1,0.25,0],[1,0.5,0],[1,0.75,0]];outlineConnect=0;fontColor=#232F3E;gradientColor=#F54749;gradientDirection=north;fillColor=#C7131F;strokeColor=#ffffff;dashed=0;verticalLabelPosition=bottom;verticalAlign=top;align=center;html=1;fontSize=12;fontStyle=0;aspect=fixed;shape=mxgraph.aws4.resourceIcon;resIcon=mxgraph.aws4.secrets_manager;" parent="pJUA1Hdm37nD7-ItDboX-1" vertex="1">
          <mxGeometry x="803.75" y="411" width="49" height="49" as="geometry" />
        </mxCell>
        <mxCell id="pJUA1Hdm37nD7-ItDboX-53" value="Store all secrets&lt;br&gt;in the secrets manager" style="text;html=1;align=center;verticalAlign=middle;resizable=0;points=[];autosize=1;strokeColor=none;" parent="pJUA1Hdm37nD7-ItDboX-1" vertex="1">
          <mxGeometry x="762.03" y="378.62" width="140" height="30" as="geometry" />
        </mxCell>
        <mxCell id="pJUA1Hdm37nD7-ItDboX-56" value="" style="sketch=0;outlineConnect=0;fontColor=#232F3E;gradientColor=none;fillColor=#2E27AD;strokeColor=none;dashed=0;verticalLabelPosition=bottom;verticalAlign=top;align=center;html=1;fontSize=12;fontStyle=0;aspect=fixed;pointerEvents=1;shape=mxgraph.aws4.rds_instance;" parent="pJUA1Hdm37nD7-ItDboX-1" vertex="1">
          <mxGeometry x="850" y="549.23" width="47.5" height="47.5" as="geometry" />
        </mxCell>
        <mxCell id="DxohR8C178BpTvjmq5BH-1" style="edgeStyle=orthogonalEdgeStyle;rounded=0;orthogonalLoop=1;jettySize=auto;html=1;" parent="pJUA1Hdm37nD7-ItDboX-1" source="DxohR8C178BpTvjmq5BH-0" target="pJUA1Hdm37nD7-ItDboX-40" edge="1">
          <mxGeometry relative="1" as="geometry" />
        </mxCell>
        <mxCell id="DxohR8C178BpTvjmq5BH-2" style="edgeStyle=orthogonalEdgeStyle;rounded=0;orthogonalLoop=1;jettySize=auto;html=1;" parent="pJUA1Hdm37nD7-ItDboX-1" source="DxohR8C178BpTvjmq5BH-0" target="pJUA1Hdm37nD7-ItDboX-37" edge="1">
          <mxGeometry relative="1" as="geometry" />
        </mxCell>
        <mxCell id="DxohR8C178BpTvjmq5BH-3" style="edgeStyle=orthogonalEdgeStyle;rounded=0;orthogonalLoop=1;jettySize=auto;html=1;entryX=0;entryY=0.5;entryDx=0;entryDy=0;entryPerimeter=0;" parent="pJUA1Hdm37nD7-ItDboX-1" source="DxohR8C178BpTvjmq5BH-0" target="pJUA1Hdm37nD7-ItDboX-36" edge="1">
          <mxGeometry relative="1" as="geometry" />
        </mxCell>
        <mxCell id="DxohR8C178BpTvjmq5BH-0" value="ALB" style="sketch=0;outlineConnect=0;fontColor=#232F3E;gradientColor=none;fillColor=#4D27AA;strokeColor=none;dashed=0;verticalLabelPosition=bottom;verticalAlign=top;align=center;html=1;fontSize=12;fontStyle=0;aspect=fixed;pointerEvents=1;shape=mxgraph.aws4.application_load_balancer;" parent="pJUA1Hdm37nD7-ItDboX-1" vertex="1">
          <mxGeometry x="375.25" y="531" width="78" height="78" as="geometry" />
        </mxCell>
      </root>
    </mxGraphModel>
  </diagram>
  <diagram name="Account structure" id="wUJVm-5ZJfGnMqhCirbD">
    <mxGraphModel dx="1900" dy="491" grid="0" gridSize="10" guides="1" tooltips="1" connect="1" arrows="1" fold="1" page="1" pageScale="1" pageWidth="850" pageHeight="1100" math="0" shadow="0">
      <root>
        <mxCell id="km9KdVgc4UFE4PCnm0q_-0" />
        <mxCell id="km9KdVgc4UFE4PCnm0q_-1" parent="km9KdVgc4UFE4PCnm0q_-0" />
        <mxCell id="km9KdVgc4UFE4PCnm0q_-2" style="edgeStyle=orthogonalEdgeStyle;rounded=0;orthogonalLoop=1;jettySize=auto;html=1;entryX=0.5;entryY=0;entryDx=0;entryDy=0;" parent="km9KdVgc4UFE4PCnm0q_-1" source="km9KdVgc4UFE4PCnm0q_-6" target="km9KdVgc4UFE4PCnm0q_-27" edge="1">
          <mxGeometry relative="1" as="geometry" />
        </mxCell>
        <mxCell id="km9KdVgc4UFE4PCnm0q_-3" style="edgeStyle=orthogonalEdgeStyle;rounded=0;orthogonalLoop=1;jettySize=auto;html=1;" parent="km9KdVgc4UFE4PCnm0q_-1" source="km9KdVgc4UFE4PCnm0q_-6" target="km9KdVgc4UFE4PCnm0q_-20" edge="1">
          <mxGeometry relative="1" as="geometry" />
        </mxCell>
        <mxCell id="km9KdVgc4UFE4PCnm0q_-4" style="edgeStyle=orthogonalEdgeStyle;rounded=0;orthogonalLoop=1;jettySize=auto;html=1;" parent="km9KdVgc4UFE4PCnm0q_-1" source="km9KdVgc4UFE4PCnm0q_-6" target="km9KdVgc4UFE4PCnm0q_-39" edge="1">
          <mxGeometry relative="1" as="geometry" />
        </mxCell>
        <mxCell id="km9KdVgc4UFE4PCnm0q_-6" value="" style="rounded=0;whiteSpace=wrap;html=1;movable=1;resizable=1;rotatable=1;deletable=1;editable=1;connectable=1;" parent="km9KdVgc4UFE4PCnm0q_-1" vertex="1">
          <mxGeometry x="-30" y="40" width="750" height="300" as="geometry" />
        </mxCell>
        <mxCell id="km9KdVgc4UFE4PCnm0q_-7" value="Secuity Account" style="points=[[0,0],[0.25,0],[0.5,0],[0.75,0],[1,0],[1,0.25],[1,0.5],[1,0.75],[1,1],[0.75,1],[0.5,1],[0.25,1],[0,1],[0,0.75],[0,0.5],[0,0.25]];outlineConnect=0;gradientColor=none;html=1;whiteSpace=wrap;fontSize=12;fontStyle=0;container=1;pointerEvents=0;collapsible=0;recursiveResize=0;shape=mxgraph.aws4.group;grIcon=mxgraph.aws4.group_account;strokeColor=#CD2264;fillColor=none;verticalAlign=top;align=left;spacingLeft=30;fontColor=#CD2264;dashed=0;" parent="km9KdVgc4UFE4PCnm0q_-1" vertex="1">
          <mxGeometry y="70" width="170" height="120" as="geometry" />
        </mxCell>
        <mxCell id="km9KdVgc4UFE4PCnm0q_-8" value="" style="sketch=0;points=[[0,0,0],[0.25,0,0],[0.5,0,0],[0.75,0,0],[1,0,0],[0,1,0],[0.25,1,0],[0.5,1,0],[0.75,1,0],[1,1,0],[0,0.25,0],[0,0.5,0],[0,0.75,0],[1,0.25,0],[1,0.5,0],[1,0.75,0]];outlineConnect=0;fontColor=#232F3E;gradientColor=#F54749;gradientDirection=north;fillColor=#C7131F;strokeColor=#ffffff;dashed=0;verticalLabelPosition=bottom;verticalAlign=top;align=center;html=1;fontSize=12;fontStyle=0;aspect=fixed;shape=mxgraph.aws4.resourceIcon;resIcon=mxgraph.aws4.security_hub;" parent="km9KdVgc4UFE4PCnm0q_-7" vertex="1">
          <mxGeometry x="30" y="35" width="40" height="40" as="geometry" />
        </mxCell>
        <mxCell id="km9KdVgc4UFE4PCnm0q_-9" value="" style="sketch=0;outlineConnect=0;fontColor=#232F3E;gradientColor=none;strokeColor=#ffffff;fillColor=#232F3E;dashed=0;verticalLabelPosition=middle;verticalAlign=bottom;align=center;html=1;whiteSpace=wrap;fontSize=10;fontStyle=1;spacing=3;shape=mxgraph.aws4.productIcon;prIcon=mxgraph.aws4.guardduty;" parent="km9KdVgc4UFE4PCnm0q_-7" vertex="1">
          <mxGeometry x="90" y="35" width="40" height="40" as="geometry" />
        </mxCell>
        <mxCell id="km9KdVgc4UFE4PCnm0q_-10" value="Guard&lt;br&gt;Duty" style="text;html=1;align=center;verticalAlign=middle;resizable=0;points=[];autosize=1;strokeColor=none;fillColor=none;" parent="km9KdVgc4UFE4PCnm0q_-7" vertex="1">
          <mxGeometry x="80" y="75" width="60" height="40" as="geometry" />
        </mxCell>
        <mxCell id="km9KdVgc4UFE4PCnm0q_-11" value="Security&lt;br&gt;Hub" style="text;html=1;align=center;verticalAlign=middle;resizable=0;points=[];autosize=1;strokeColor=none;fillColor=none;" parent="km9KdVgc4UFE4PCnm0q_-7" vertex="1">
          <mxGeometry x="15" y="70" width="70" height="40" as="geometry" />
        </mxCell>
        <mxCell id="km9KdVgc4UFE4PCnm0q_-12" value="" style="sketch=0;points=[[0,0,0],[0.25,0,0],[0.5,0,0],[0.75,0,0],[1,0,0],[0,1,0],[0.25,1,0],[0.5,1,0],[0.75,1,0],[1,1,0],[0,0.25,0],[0,0.5,0],[0,0.75,0],[1,0.25,0],[1,0.5,0],[1,0.75,0]];points=[[0,0,0],[0.25,0,0],[0.5,0,0],[0.75,0,0],[1,0,0],[0,1,0],[0.25,1,0],[0.5,1,0],[0.75,1,0],[1,1,0],[0,0.25,0],[0,0.5,0],[0,0.75,0],[1,0.25,0],[1,0.5,0],[1,0.75,0]];outlineConnect=0;fontColor=#232F3E;gradientColor=#F34482;gradientDirection=north;fillColor=#BC1356;strokeColor=#ffffff;dashed=0;verticalLabelPosition=bottom;verticalAlign=top;align=center;html=1;fontSize=12;fontStyle=0;aspect=fixed;shape=mxgraph.aws4.resourceIcon;resIcon=mxgraph.aws4.control_tower;" parent="km9KdVgc4UFE4PCnm0q_-1" vertex="1">
          <mxGeometry x="-50" y="20" width="40" height="40" as="geometry" />
        </mxCell>
        <mxCell id="km9KdVgc4UFE4PCnm0q_-13" value="Logging Account" style="points=[[0,0],[0.25,0],[0.5,0],[0.75,0],[1,0],[1,0.25],[1,0.5],[1,0.75],[1,1],[0.75,1],[0.5,1],[0.25,1],[0,1],[0,0.75],[0,0.5],[0,0.25]];outlineConnect=0;gradientColor=none;html=1;whiteSpace=wrap;fontSize=12;fontStyle=0;container=1;pointerEvents=0;collapsible=0;recursiveResize=0;shape=mxgraph.aws4.group;grIcon=mxgraph.aws4.group_account;strokeColor=#CD2264;fillColor=none;verticalAlign=top;align=left;spacingLeft=30;fontColor=#CD2264;dashed=0;" parent="km9KdVgc4UFE4PCnm0q_-1" vertex="1">
          <mxGeometry x="520" y="70" width="170" height="120" as="geometry" />
        </mxCell>
        <mxCell id="km9KdVgc4UFE4PCnm0q_-14" value="" style="sketch=0;points=[[0,0,0],[0.25,0,0],[0.5,0,0],[0.75,0,0],[1,0,0],[0,1,0],[0.25,1,0],[0.5,1,0],[0.75,1,0],[1,1,0],[0,0.25,0],[0,0.5,0],[0,0.75,0],[1,0.25,0],[1,0.5,0],[1,0.75,0]];points=[[0,0,0],[0.25,0,0],[0.5,0,0],[0.75,0,0],[1,0,0],[0,1,0],[0.25,1,0],[0.5,1,0],[0.75,1,0],[1,1,0],[0,0.25,0],[0,0.5,0],[0,0.75,0],[1,0.25,0],[1,0.5,0],[1,0.75,0]];outlineConnect=0;fontColor=#232F3E;gradientColor=#F34482;gradientDirection=north;fillColor=#BC1356;strokeColor=#ffffff;dashed=0;verticalLabelPosition=bottom;verticalAlign=top;align=center;html=1;fontSize=12;fontStyle=0;aspect=fixed;shape=mxgraph.aws4.resourceIcon;resIcon=mxgraph.aws4.config;" parent="km9KdVgc4UFE4PCnm0q_-13" vertex="1">
          <mxGeometry x="10" y="40" width="40" height="40" as="geometry" />
        </mxCell>
        <mxCell id="km9KdVgc4UFE4PCnm0q_-15" value="" style="sketch=0;outlineConnect=0;fontColor=#232F3E;gradientColor=none;strokeColor=#ffffff;fillColor=#232F3E;dashed=0;verticalLabelPosition=middle;verticalAlign=bottom;align=center;html=1;whiteSpace=wrap;fontSize=10;fontStyle=1;spacing=3;shape=mxgraph.aws4.productIcon;prIcon=mxgraph.aws4.cloudtrail;" parent="km9KdVgc4UFE4PCnm0q_-13" vertex="1">
          <mxGeometry x="60" y="40" width="40" height="30" as="geometry" />
        </mxCell>
        <mxCell id="km9KdVgc4UFE4PCnm0q_-16" value="" style="sketch=0;points=[[0,0,0],[0.25,0,0],[0.5,0,0],[0.75,0,0],[1,0,0],[0,1,0],[0.25,1,0],[0.5,1,0],[0.75,1,0],[1,1,0],[0,0.25,0],[0,0.5,0],[0,0.75,0],[1,0.25,0],[1,0.5,0],[1,0.75,0]];outlineConnect=0;fontColor=#232F3E;gradientColor=#60A337;gradientDirection=north;fillColor=#277116;strokeColor=#ffffff;dashed=0;verticalLabelPosition=bottom;verticalAlign=top;align=center;html=1;fontSize=12;fontStyle=0;aspect=fixed;shape=mxgraph.aws4.resourceIcon;resIcon=mxgraph.aws4.s3;" parent="km9KdVgc4UFE4PCnm0q_-13" vertex="1">
          <mxGeometry x="110" y="40" width="40" height="40" as="geometry" />
        </mxCell>
        <mxCell id="km9KdVgc4UFE4PCnm0q_-17" value="Cloud&lt;br&gt;Trail" style="text;html=1;align=center;verticalAlign=middle;resizable=0;points=[];autosize=1;strokeColor=none;fillColor=none;" parent="km9KdVgc4UFE4PCnm0q_-13" vertex="1">
          <mxGeometry x="55" y="75" width="50" height="40" as="geometry" />
        </mxCell>
        <mxCell id="km9KdVgc4UFE4PCnm0q_-18" value="S3" style="text;html=1;align=center;verticalAlign=middle;resizable=0;points=[];autosize=1;strokeColor=none;fillColor=none;" parent="km9KdVgc4UFE4PCnm0q_-13" vertex="1">
          <mxGeometry x="110" y="80" width="40" height="30" as="geometry" />
        </mxCell>
        <mxCell id="km9KdVgc4UFE4PCnm0q_-19" value="AWS&lt;br&gt;Config" style="text;html=1;align=center;verticalAlign=middle;resizable=0;points=[];autosize=1;strokeColor=none;fillColor=none;" parent="km9KdVgc4UFE4PCnm0q_-13" vertex="1">
          <mxGeometry y="75" width="60" height="40" as="geometry" />
        </mxCell>
        <mxCell id="km9KdVgc4UFE4PCnm0q_-20" value="QA Account" style="points=[[0,0],[0.25,0],[0.5,0],[0.75,0],[1,0],[1,0.25],[1,0.5],[1,0.75],[1,1],[0.75,1],[0.5,1],[0.25,1],[0,1],[0,0.75],[0,0.5],[0,0.25]];outlineConnect=0;gradientColor=none;html=1;whiteSpace=wrap;fontSize=12;fontStyle=0;container=1;pointerEvents=0;collapsible=0;recursiveResize=0;shape=mxgraph.aws4.group;grIcon=mxgraph.aws4.group_account;strokeColor=#CD2264;fillColor=none;verticalAlign=top;align=left;spacingLeft=30;fontColor=#CD2264;dashed=0;" parent="km9KdVgc4UFE4PCnm0q_-1" vertex="1">
          <mxGeometry x="250" y="407" width="190" height="200" as="geometry" />
        </mxCell>
        <mxCell id="W-bhO0ozUKY38MyPXwtG-5" value="VPC" style="points=[[0,0],[0.25,0],[0.5,0],[0.75,0],[1,0],[1,0.25],[1,0.5],[1,0.75],[1,1],[0.75,1],[0.5,1],[0.25,1],[0,1],[0,0.75],[0,0.5],[0,0.25]];outlineConnect=0;gradientColor=none;html=1;whiteSpace=wrap;fontSize=12;fontStyle=0;container=1;pointerEvents=0;collapsible=0;recursiveResize=0;shape=mxgraph.aws4.group;grIcon=mxgraph.aws4.group_vpc;strokeColor=#248814;fillColor=none;verticalAlign=top;align=left;spacingLeft=30;fontColor=#AAB7B8;dashed=0;" parent="km9KdVgc4UFE4PCnm0q_-20" vertex="1">
          <mxGeometry x="10" y="30" width="170" height="160" as="geometry" />
        </mxCell>
        <mxCell id="W-bhO0ozUKY38MyPXwtG-6" value="" style="sketch=0;points=[[0,0,0],[0.25,0,0],[0.5,0,0],[0.75,0,0],[1,0,0],[0,1,0],[0.25,1,0],[0.5,1,0],[0.75,1,0],[1,1,0],[0,0.25,0],[0,0.5,0],[0,0.75,0],[1,0.25,0],[1,0.5,0],[1,0.75,0]];outlineConnect=0;fontColor=#232F3E;gradientColor=#4D72F3;gradientDirection=north;fillColor=#3334B9;strokeColor=#ffffff;dashed=0;verticalLabelPosition=bottom;verticalAlign=top;align=center;html=1;fontSize=12;fontStyle=0;aspect=fixed;shape=mxgraph.aws4.resourceIcon;resIcon=mxgraph.aws4.rds;" parent="W-bhO0ozUKY38MyPXwtG-5" vertex="1">
          <mxGeometry x="129" y="94" width="33" height="33" as="geometry" />
        </mxCell>
        <mxCell id="W-bhO0ozUKY38MyPXwtG-7" value="RDS" style="text;html=1;align=center;verticalAlign=middle;resizable=0;points=[];autosize=1;strokeColor=none;fillColor=none;" parent="W-bhO0ozUKY38MyPXwtG-5" vertex="1">
          <mxGeometry x="120.5" y="124" width="50" height="30" as="geometry" />
        </mxCell>
        <mxCell id="W-bhO0ozUKY38MyPXwtG-8" value="" style="outlineConnect=0;fontColor=#232F3E;gradientColor=none;fillColor=#232F3E;strokeColor=none;dashed=0;verticalLabelPosition=bottom;verticalAlign=top;align=center;html=1;fontSize=12;fontStyle=0;aspect=fixed;pointerEvents=1;shape=mxgraph.aws4.client;" parent="W-bhO0ozUKY38MyPXwtG-5" vertex="1">
          <mxGeometry x="7" y="37" width="30.8" height="30" as="geometry" />
        </mxCell>
        <mxCell id="W-bhO0ozUKY38MyPXwtG-9" value="" style="sketch=0;points=[[0,0,0],[0.25,0,0],[0.5,0,0],[0.75,0,0],[1,0,0],[0,1,0],[0.25,1,0],[0.5,1,0],[0.75,1,0],[1,1,0],[0,0.25,0],[0,0.5,0],[0,0.75,0],[1,0.25,0],[1,0.5,0],[1,0.75,0]];outlineConnect=0;fontColor=#232F3E;gradientColor=#945DF2;gradientDirection=north;fillColor=#5A30B5;strokeColor=#ffffff;dashed=0;verticalLabelPosition=bottom;verticalAlign=top;align=center;html=1;fontSize=12;fontStyle=0;aspect=fixed;shape=mxgraph.aws4.resourceIcon;resIcon=mxgraph.aws4.api_gateway;" parent="W-bhO0ozUKY38MyPXwtG-5" vertex="1">
          <mxGeometry x="66" y="37" width="32.5" height="32.5" as="geometry" />
        </mxCell>
        <mxCell id="W-bhO0ozUKY38MyPXwtG-10" style="edgeStyle=orthogonalEdgeStyle;rounded=0;orthogonalLoop=1;jettySize=auto;html=1;entryX=0;entryY=0.5;entryDx=0;entryDy=0;entryPerimeter=0;" parent="W-bhO0ozUKY38MyPXwtG-5" source="W-bhO0ozUKY38MyPXwtG-8" target="W-bhO0ozUKY38MyPXwtG-9" edge="1">
          <mxGeometry relative="1" as="geometry" />
        </mxCell>
        <mxCell id="W-bhO0ozUKY38MyPXwtG-11" value="" style="sketch=0;points=[[0,0,0],[0.25,0,0],[0.5,0,0],[0.75,0,0],[1,0,0],[0,1,0],[0.25,1,0],[0.5,1,0],[0.75,1,0],[1,1,0],[0,0.25,0],[0,0.5,0],[0,0.75,0],[1,0.25,0],[1,0.5,0],[1,0.75,0]];outlineConnect=0;fontColor=#232F3E;gradientColor=#F78E04;gradientDirection=north;fillColor=#D05C17;strokeColor=#ffffff;dashed=0;verticalLabelPosition=bottom;verticalAlign=top;align=center;html=1;fontSize=12;fontStyle=0;aspect=fixed;shape=mxgraph.aws4.resourceIcon;resIcon=mxgraph.aws4.fargate;" parent="W-bhO0ozUKY38MyPXwtG-5" vertex="1">
          <mxGeometry x="65.25" y="93" width="34" height="34" as="geometry" />
        </mxCell>
        <mxCell id="W-bhO0ozUKY38MyPXwtG-12" style="edgeStyle=orthogonalEdgeStyle;rounded=0;orthogonalLoop=1;jettySize=auto;html=1;startArrow=none;" parent="W-bhO0ozUKY38MyPXwtG-5" source="W-bhO0ozUKY38MyPXwtG-11" target="W-bhO0ozUKY38MyPXwtG-6" edge="1">
          <mxGeometry relative="1" as="geometry">
            <mxPoint x="65" y="50" as="sourcePoint" />
          </mxGeometry>
        </mxCell>
        <mxCell id="W-bhO0ozUKY38MyPXwtG-13" style="edgeStyle=orthogonalEdgeStyle;rounded=0;orthogonalLoop=1;jettySize=auto;html=1;entryX=0.5;entryY=0;entryDx=0;entryDy=0;entryPerimeter=0;" parent="W-bhO0ozUKY38MyPXwtG-5" source="W-bhO0ozUKY38MyPXwtG-9" target="W-bhO0ozUKY38MyPXwtG-11" edge="1">
          <mxGeometry relative="1" as="geometry" />
        </mxCell>
        <mxCell id="W-bhO0ozUKY38MyPXwtG-14" value="ECS" style="text;html=1;align=center;verticalAlign=middle;resizable=0;points=[];autosize=1;strokeColor=none;fillColor=none;" parent="W-bhO0ozUKY38MyPXwtG-5" vertex="1">
          <mxGeometry x="61.25" y="126" width="43" height="26" as="geometry" />
        </mxCell>
        <mxCell id="W-bhO0ozUKY38MyPXwtG-15" value="API" style="text;html=1;align=center;verticalAlign=middle;resizable=0;points=[];autosize=1;strokeColor=none;fillColor=none;" parent="W-bhO0ozUKY38MyPXwtG-5" vertex="1">
          <mxGeometry x="63.75" y="13" width="37" height="26" as="geometry" />
        </mxCell>
        <mxCell id="km9KdVgc4UFE4PCnm0q_-27" value="Dev Account" style="points=[[0,0],[0.25,0],[0.5,0],[0.75,0],[1,0],[1,0.25],[1,0.5],[1,0.75],[1,1],[0.75,1],[0.5,1],[0.25,1],[0,1],[0,0.75],[0,0.5],[0,0.25]];outlineConnect=0;gradientColor=none;html=1;whiteSpace=wrap;fontSize=12;fontStyle=0;container=1;pointerEvents=0;collapsible=0;recursiveResize=0;shape=mxgraph.aws4.group;grIcon=mxgraph.aws4.group_account;strokeColor=#CD2264;fillColor=none;verticalAlign=top;align=left;spacingLeft=30;fontColor=#CD2264;dashed=0;" parent="km9KdVgc4UFE4PCnm0q_-1" vertex="1">
          <mxGeometry x="40" y="407" width="190" height="200" as="geometry" />
        </mxCell>
        <mxCell id="km9KdVgc4UFE4PCnm0q_-28" value="VPC" style="points=[[0,0],[0.25,0],[0.5,0],[0.75,0],[1,0],[1,0.25],[1,0.5],[1,0.75],[1,1],[0.75,1],[0.5,1],[0.25,1],[0,1],[0,0.75],[0,0.5],[0,0.25]];outlineConnect=0;gradientColor=none;html=1;whiteSpace=wrap;fontSize=12;fontStyle=0;container=1;pointerEvents=0;collapsible=0;recursiveResize=0;shape=mxgraph.aws4.group;grIcon=mxgraph.aws4.group_vpc;strokeColor=#248814;fillColor=none;verticalAlign=top;align=left;spacingLeft=30;fontColor=#AAB7B8;dashed=0;" parent="km9KdVgc4UFE4PCnm0q_-27" vertex="1">
          <mxGeometry x="10" y="30" width="170" height="160" as="geometry" />
        </mxCell>
        <mxCell id="km9KdVgc4UFE4PCnm0q_-30" value="" style="sketch=0;points=[[0,0,0],[0.25,0,0],[0.5,0,0],[0.75,0,0],[1,0,0],[0,1,0],[0.25,1,0],[0.5,1,0],[0.75,1,0],[1,1,0],[0,0.25,0],[0,0.5,0],[0,0.75,0],[1,0.25,0],[1,0.5,0],[1,0.75,0]];outlineConnect=0;fontColor=#232F3E;gradientColor=#4D72F3;gradientDirection=north;fillColor=#3334B9;strokeColor=#ffffff;dashed=0;verticalLabelPosition=bottom;verticalAlign=top;align=center;html=1;fontSize=12;fontStyle=0;aspect=fixed;shape=mxgraph.aws4.resourceIcon;resIcon=mxgraph.aws4.rds;" parent="km9KdVgc4UFE4PCnm0q_-28" vertex="1">
          <mxGeometry x="129" y="94" width="33" height="33" as="geometry" />
        </mxCell>
        <mxCell id="km9KdVgc4UFE4PCnm0q_-32" value="RDS" style="text;html=1;align=center;verticalAlign=middle;resizable=0;points=[];autosize=1;strokeColor=none;fillColor=none;" parent="km9KdVgc4UFE4PCnm0q_-28" vertex="1">
          <mxGeometry x="120.5" y="124" width="50" height="30" as="geometry" />
        </mxCell>
        <mxCell id="W-bhO0ozUKY38MyPXwtG-0" value="" style="outlineConnect=0;fontColor=#232F3E;gradientColor=none;fillColor=#232F3E;strokeColor=none;dashed=0;verticalLabelPosition=bottom;verticalAlign=top;align=center;html=1;fontSize=12;fontStyle=0;aspect=fixed;pointerEvents=1;shape=mxgraph.aws4.client;" parent="km9KdVgc4UFE4PCnm0q_-28" vertex="1">
          <mxGeometry x="7" y="37" width="30.8" height="30" as="geometry" />
        </mxCell>
        <mxCell id="8YKWtBsn04NnXVwhU__3-1" value="" style="sketch=0;points=[[0,0,0],[0.25,0,0],[0.5,0,0],[0.75,0,0],[1,0,0],[0,1,0],[0.25,1,0],[0.5,1,0],[0.75,1,0],[1,1,0],[0,0.25,0],[0,0.5,0],[0,0.75,0],[1,0.25,0],[1,0.5,0],[1,0.75,0]];outlineConnect=0;fontColor=#232F3E;gradientColor=#945DF2;gradientDirection=north;fillColor=#5A30B5;strokeColor=#ffffff;dashed=0;verticalLabelPosition=bottom;verticalAlign=top;align=center;html=1;fontSize=12;fontStyle=0;aspect=fixed;shape=mxgraph.aws4.resourceIcon;resIcon=mxgraph.aws4.api_gateway;" parent="km9KdVgc4UFE4PCnm0q_-28" vertex="1">
          <mxGeometry x="66" y="37" width="32.5" height="32.5" as="geometry" />
        </mxCell>
        <mxCell id="W-bhO0ozUKY38MyPXwtG-1" style="edgeStyle=orthogonalEdgeStyle;rounded=0;orthogonalLoop=1;jettySize=auto;html=1;entryX=0;entryY=0.5;entryDx=0;entryDy=0;entryPerimeter=0;" parent="km9KdVgc4UFE4PCnm0q_-28" source="W-bhO0ozUKY38MyPXwtG-0" target="8YKWtBsn04NnXVwhU__3-1" edge="1">
          <mxGeometry relative="1" as="geometry" />
        </mxCell>
        <mxCell id="8YKWtBsn04NnXVwhU__3-0" value="" style="sketch=0;points=[[0,0,0],[0.25,0,0],[0.5,0,0],[0.75,0,0],[1,0,0],[0,1,0],[0.25,1,0],[0.5,1,0],[0.75,1,0],[1,1,0],[0,0.25,0],[0,0.5,0],[0,0.75,0],[1,0.25,0],[1,0.5,0],[1,0.75,0]];outlineConnect=0;fontColor=#232F3E;gradientColor=#F78E04;gradientDirection=north;fillColor=#D05C17;strokeColor=#ffffff;dashed=0;verticalLabelPosition=bottom;verticalAlign=top;align=center;html=1;fontSize=12;fontStyle=0;aspect=fixed;shape=mxgraph.aws4.resourceIcon;resIcon=mxgraph.aws4.fargate;" parent="km9KdVgc4UFE4PCnm0q_-28" vertex="1">
          <mxGeometry x="65.25" y="93" width="34" height="34" as="geometry" />
        </mxCell>
        <mxCell id="km9KdVgc4UFE4PCnm0q_-31" style="edgeStyle=orthogonalEdgeStyle;rounded=0;orthogonalLoop=1;jettySize=auto;html=1;startArrow=none;" parent="km9KdVgc4UFE4PCnm0q_-28" source="8YKWtBsn04NnXVwhU__3-0" target="km9KdVgc4UFE4PCnm0q_-30" edge="1">
          <mxGeometry relative="1" as="geometry">
            <mxPoint x="65" y="50" as="sourcePoint" />
          </mxGeometry>
        </mxCell>
        <mxCell id="W-bhO0ozUKY38MyPXwtG-2" style="edgeStyle=orthogonalEdgeStyle;rounded=0;orthogonalLoop=1;jettySize=auto;html=1;entryX=0.5;entryY=0;entryDx=0;entryDy=0;entryPerimeter=0;" parent="km9KdVgc4UFE4PCnm0q_-28" source="8YKWtBsn04NnXVwhU__3-1" target="8YKWtBsn04NnXVwhU__3-0" edge="1">
          <mxGeometry relative="1" as="geometry" />
        </mxCell>
        <mxCell id="W-bhO0ozUKY38MyPXwtG-3" value="ECS" style="text;html=1;align=center;verticalAlign=middle;resizable=0;points=[];autosize=1;strokeColor=none;fillColor=none;" parent="km9KdVgc4UFE4PCnm0q_-28" vertex="1">
          <mxGeometry x="61.25" y="126" width="43" height="26" as="geometry" />
        </mxCell>
        <mxCell id="W-bhO0ozUKY38MyPXwtG-4" value="API" style="text;html=1;align=center;verticalAlign=middle;resizable=0;points=[];autosize=1;strokeColor=none;fillColor=none;" parent="km9KdVgc4UFE4PCnm0q_-28" vertex="1">
          <mxGeometry x="63.75" y="13" width="37" height="26" as="geometry" />
        </mxCell>
        <mxCell id="km9KdVgc4UFE4PCnm0q_-34" value="Master Account" style="points=[[0,0],[0.25,0],[0.5,0],[0.75,0],[1,0],[1,0.25],[1,0.5],[1,0.75],[1,1],[0.75,1],[0.5,1],[0.25,1],[0,1],[0,0.75],[0,0.5],[0,0.25]];outlineConnect=0;gradientColor=none;html=1;whiteSpace=wrap;fontSize=12;fontStyle=0;container=1;pointerEvents=0;collapsible=0;recursiveResize=0;shape=mxgraph.aws4.group;grIcon=mxgraph.aws4.group_account;strokeColor=#CD2264;fillColor=none;verticalAlign=top;align=left;spacingLeft=30;fontColor=#CD2264;dashed=0;" parent="km9KdVgc4UFE4PCnm0q_-1" vertex="1">
          <mxGeometry x="190" y="70" width="310" height="120" as="geometry" />
        </mxCell>
        <mxCell id="km9KdVgc4UFE4PCnm0q_-35" value="AWS &lt;br&gt;Organizations" style="sketch=0;points=[[0,0,0],[0.25,0,0],[0.5,0,0],[0.75,0,0],[1,0,0],[0,1,0],[0.25,1,0],[0.5,1,0],[0.75,1,0],[1,1,0],[0,0.25,0],[0,0.5,0],[0,0.75,0],[1,0.25,0],[1,0.5,0],[1,0.75,0]];points=[[0,0,0],[0.25,0,0],[0.5,0,0],[0.75,0,0],[1,0,0],[0,1,0],[0.25,1,0],[0.5,1,0],[0.75,1,0],[1,1,0],[0,0.25,0],[0,0.5,0],[0,0.75,0],[1,0.25,0],[1,0.5,0],[1,0.75,0]];outlineConnect=0;fontColor=#232F3E;gradientColor=#F34482;gradientDirection=north;fillColor=#BC1356;strokeColor=#ffffff;dashed=0;verticalLabelPosition=bottom;verticalAlign=top;align=center;html=1;fontSize=12;fontStyle=0;aspect=fixed;shape=mxgraph.aws4.resourceIcon;resIcon=mxgraph.aws4.organizations;" parent="km9KdVgc4UFE4PCnm0q_-34" vertex="1">
          <mxGeometry x="20" y="32" width="48" height="48" as="geometry" />
        </mxCell>
        <mxCell id="km9KdVgc4UFE4PCnm0q_-36" value="Billing" style="sketch=0;points=[[0,0,0],[0.25,0,0],[0.5,0,0],[0.75,0,0],[1,0,0],[0,1,0],[0.25,1,0],[0.5,1,0],[0.75,1,0],[1,1,0],[0,0.25,0],[0,0.5,0],[0,0.75,0],[1,0.25,0],[1,0.5,0],[1,0.75,0]];outlineConnect=0;fontColor=#232F3E;gradientColor=#60A337;gradientDirection=north;fillColor=#277116;strokeColor=#ffffff;dashed=0;verticalLabelPosition=bottom;verticalAlign=top;align=center;html=1;fontSize=12;fontStyle=0;aspect=fixed;shape=mxgraph.aws4.resourceIcon;resIcon=mxgraph.aws4.custom_billing_manager;" parent="km9KdVgc4UFE4PCnm0q_-34" vertex="1">
          <mxGeometry x="90" y="32" width="48" height="48" as="geometry" />
        </mxCell>
        <mxCell id="km9KdVgc4UFE4PCnm0q_-37" value="Single &lt;br&gt;SignOn" style="sketch=0;points=[[0,0,0],[0.25,0,0],[0.5,0,0],[0.75,0,0],[1,0,0],[0,1,0],[0.25,1,0],[0.5,1,0],[0.75,1,0],[1,1,0],[0,0.25,0],[0,0.5,0],[0,0.75,0],[1,0.25,0],[1,0.5,0],[1,0.75,0]];outlineConnect=0;fontColor=#232F3E;gradientColor=#F54749;gradientDirection=north;fillColor=#C7131F;strokeColor=#ffffff;dashed=0;verticalLabelPosition=bottom;verticalAlign=top;align=center;html=1;fontSize=12;fontStyle=0;aspect=fixed;shape=mxgraph.aws4.resourceIcon;resIcon=mxgraph.aws4.single_sign_on;" parent="km9KdVgc4UFE4PCnm0q_-34" vertex="1">
          <mxGeometry x="160" y="32" width="48" height="48" as="geometry" />
        </mxCell>
        <mxCell id="km9KdVgc4UFE4PCnm0q_-38" value="AWS Service&lt;br&gt;Catalog" style="sketch=0;points=[[0,0,0],[0.25,0,0],[0.5,0,0],[0.75,0,0],[1,0,0],[0,1,0],[0.25,1,0],[0.5,1,0],[0.75,1,0],[1,1,0],[0,0.25,0],[0,0.5,0],[0,0.75,0],[1,0.25,0],[1,0.5,0],[1,0.75,0]];points=[[0,0,0],[0.25,0,0],[0.5,0,0],[0.75,0,0],[1,0,0],[0,1,0],[0.25,1,0],[0.5,1,0],[0.75,1,0],[1,1,0],[0,0.25,0],[0,0.5,0],[0,0.75,0],[1,0.25,0],[1,0.5,0],[1,0.75,0]];outlineConnect=0;fontColor=#232F3E;gradientColor=#F34482;gradientDirection=north;fillColor=#BC1356;strokeColor=#ffffff;dashed=0;verticalLabelPosition=bottom;verticalAlign=top;align=center;html=1;fontSize=12;fontStyle=0;aspect=fixed;shape=mxgraph.aws4.resourceIcon;resIcon=mxgraph.aws4.service_catalog;" parent="km9KdVgc4UFE4PCnm0q_-34" vertex="1">
          <mxGeometry x="230" y="32" width="48" height="48" as="geometry" />
        </mxCell>
        <mxCell id="km9KdVgc4UFE4PCnm0q_-39" value="Prod Account" style="points=[[0,0],[0.25,0],[0.5,0],[0.75,0],[1,0],[1,0.25],[1,0.5],[1,0.75],[1,1],[0.75,1],[0.5,1],[0.25,1],[0,1],[0,0.75],[0,0.5],[0,0.25]];outlineConnect=0;gradientColor=none;html=1;whiteSpace=wrap;fontSize=12;fontStyle=0;container=1;pointerEvents=0;collapsible=0;recursiveResize=0;shape=mxgraph.aws4.group;grIcon=mxgraph.aws4.group_account;strokeColor=#CD2264;fillColor=none;verticalAlign=top;align=left;spacingLeft=30;fontColor=#CD2264;dashed=0;" parent="km9KdVgc4UFE4PCnm0q_-1" vertex="1">
          <mxGeometry x="460" y="407" width="190" height="200" as="geometry" />
        </mxCell>
        <mxCell id="W-bhO0ozUKY38MyPXwtG-16" value="VPC" style="points=[[0,0],[0.25,0],[0.5,0],[0.75,0],[1,0],[1,0.25],[1,0.5],[1,0.75],[1,1],[0.75,1],[0.5,1],[0.25,1],[0,1],[0,0.75],[0,0.5],[0,0.25]];outlineConnect=0;gradientColor=none;html=1;whiteSpace=wrap;fontSize=12;fontStyle=0;container=1;pointerEvents=0;collapsible=0;recursiveResize=0;shape=mxgraph.aws4.group;grIcon=mxgraph.aws4.group_vpc;strokeColor=#248814;fillColor=none;verticalAlign=top;align=left;spacingLeft=30;fontColor=#AAB7B8;dashed=0;" parent="km9KdVgc4UFE4PCnm0q_-39" vertex="1">
          <mxGeometry x="10" y="32" width="170" height="160" as="geometry" />
        </mxCell>
        <mxCell id="W-bhO0ozUKY38MyPXwtG-17" value="" style="sketch=0;points=[[0,0,0],[0.25,0,0],[0.5,0,0],[0.75,0,0],[1,0,0],[0,1,0],[0.25,1,0],[0.5,1,0],[0.75,1,0],[1,1,0],[0,0.25,0],[0,0.5,0],[0,0.75,0],[1,0.25,0],[1,0.5,0],[1,0.75,0]];outlineConnect=0;fontColor=#232F3E;gradientColor=#4D72F3;gradientDirection=north;fillColor=#3334B9;strokeColor=#ffffff;dashed=0;verticalLabelPosition=bottom;verticalAlign=top;align=center;html=1;fontSize=12;fontStyle=0;aspect=fixed;shape=mxgraph.aws4.resourceIcon;resIcon=mxgraph.aws4.rds;" parent="W-bhO0ozUKY38MyPXwtG-16" vertex="1">
          <mxGeometry x="129" y="94" width="33" height="33" as="geometry" />
        </mxCell>
        <mxCell id="W-bhO0ozUKY38MyPXwtG-18" value="RDS" style="text;html=1;align=center;verticalAlign=middle;resizable=0;points=[];autosize=1;strokeColor=none;fillColor=none;" parent="W-bhO0ozUKY38MyPXwtG-16" vertex="1">
          <mxGeometry x="120.5" y="124" width="50" height="30" as="geometry" />
        </mxCell>
        <mxCell id="W-bhO0ozUKY38MyPXwtG-19" value="" style="outlineConnect=0;fontColor=#232F3E;gradientColor=none;fillColor=#232F3E;strokeColor=none;dashed=0;verticalLabelPosition=bottom;verticalAlign=top;align=center;html=1;fontSize=12;fontStyle=0;aspect=fixed;pointerEvents=1;shape=mxgraph.aws4.client;" parent="W-bhO0ozUKY38MyPXwtG-16" vertex="1">
          <mxGeometry x="7" y="37" width="30.8" height="30" as="geometry" />
        </mxCell>
        <mxCell id="W-bhO0ozUKY38MyPXwtG-20" value="" style="sketch=0;points=[[0,0,0],[0.25,0,0],[0.5,0,0],[0.75,0,0],[1,0,0],[0,1,0],[0.25,1,0],[0.5,1,0],[0.75,1,0],[1,1,0],[0,0.25,0],[0,0.5,0],[0,0.75,0],[1,0.25,0],[1,0.5,0],[1,0.75,0]];outlineConnect=0;fontColor=#232F3E;gradientColor=#945DF2;gradientDirection=north;fillColor=#5A30B5;strokeColor=#ffffff;dashed=0;verticalLabelPosition=bottom;verticalAlign=top;align=center;html=1;fontSize=12;fontStyle=0;aspect=fixed;shape=mxgraph.aws4.resourceIcon;resIcon=mxgraph.aws4.api_gateway;" parent="W-bhO0ozUKY38MyPXwtG-16" vertex="1">
          <mxGeometry x="66" y="37" width="32.5" height="32.5" as="geometry" />
        </mxCell>
        <mxCell id="W-bhO0ozUKY38MyPXwtG-21" style="edgeStyle=orthogonalEdgeStyle;rounded=0;orthogonalLoop=1;jettySize=auto;html=1;entryX=0;entryY=0.5;entryDx=0;entryDy=0;entryPerimeter=0;" parent="W-bhO0ozUKY38MyPXwtG-16" source="W-bhO0ozUKY38MyPXwtG-19" target="W-bhO0ozUKY38MyPXwtG-20" edge="1">
          <mxGeometry relative="1" as="geometry" />
        </mxCell>
        <mxCell id="W-bhO0ozUKY38MyPXwtG-22" value="" style="sketch=0;points=[[0,0,0],[0.25,0,0],[0.5,0,0],[0.75,0,0],[1,0,0],[0,1,0],[0.25,1,0],[0.5,1,0],[0.75,1,0],[1,1,0],[0,0.25,0],[0,0.5,0],[0,0.75,0],[1,0.25,0],[1,0.5,0],[1,0.75,0]];outlineConnect=0;fontColor=#232F3E;gradientColor=#F78E04;gradientDirection=north;fillColor=#D05C17;strokeColor=#ffffff;dashed=0;verticalLabelPosition=bottom;verticalAlign=top;align=center;html=1;fontSize=12;fontStyle=0;aspect=fixed;shape=mxgraph.aws4.resourceIcon;resIcon=mxgraph.aws4.fargate;" parent="W-bhO0ozUKY38MyPXwtG-16" vertex="1">
          <mxGeometry x="65.25" y="93" width="34" height="34" as="geometry" />
        </mxCell>
        <mxCell id="W-bhO0ozUKY38MyPXwtG-23" style="edgeStyle=orthogonalEdgeStyle;rounded=0;orthogonalLoop=1;jettySize=auto;html=1;startArrow=none;" parent="W-bhO0ozUKY38MyPXwtG-16" source="W-bhO0ozUKY38MyPXwtG-22" target="W-bhO0ozUKY38MyPXwtG-17" edge="1">
          <mxGeometry relative="1" as="geometry">
            <mxPoint x="65" y="50" as="sourcePoint" />
          </mxGeometry>
        </mxCell>
        <mxCell id="W-bhO0ozUKY38MyPXwtG-24" style="edgeStyle=orthogonalEdgeStyle;rounded=0;orthogonalLoop=1;jettySize=auto;html=1;entryX=0.5;entryY=0;entryDx=0;entryDy=0;entryPerimeter=0;" parent="W-bhO0ozUKY38MyPXwtG-16" source="W-bhO0ozUKY38MyPXwtG-20" target="W-bhO0ozUKY38MyPXwtG-22" edge="1">
          <mxGeometry relative="1" as="geometry" />
        </mxCell>
        <mxCell id="W-bhO0ozUKY38MyPXwtG-25" value="ECS" style="text;html=1;align=center;verticalAlign=middle;resizable=0;points=[];autosize=1;strokeColor=none;fillColor=none;" parent="W-bhO0ozUKY38MyPXwtG-16" vertex="1">
          <mxGeometry x="61.25" y="126" width="43" height="26" as="geometry" />
        </mxCell>
        <mxCell id="W-bhO0ozUKY38MyPXwtG-26" value="API" style="text;html=1;align=center;verticalAlign=middle;resizable=0;points=[];autosize=1;strokeColor=none;fillColor=none;" parent="W-bhO0ozUKY38MyPXwtG-16" vertex="1">
          <mxGeometry x="63.75" y="13" width="37" height="26" as="geometry" />
        </mxCell>
        <mxCell id="km9KdVgc4UFE4PCnm0q_-58" value="Management Account" style="points=[[0,0],[0.25,0],[0.5,0],[0.75,0],[1,0],[1,0.25],[1,0.5],[1,0.75],[1,1],[0.75,1],[0.5,1],[0.25,1],[0,1],[0,0.75],[0,0.5],[0,0.25]];outlineConnect=0;gradientColor=none;html=1;whiteSpace=wrap;fontSize=12;fontStyle=0;container=1;pointerEvents=0;collapsible=0;recursiveResize=0;shape=mxgraph.aws4.group;grIcon=mxgraph.aws4.group_account;strokeColor=#CD2264;fillColor=none;verticalAlign=top;align=left;spacingLeft=30;fontColor=#CD2264;dashed=0;" parent="km9KdVgc4UFE4PCnm0q_-1" vertex="1">
          <mxGeometry x="200" y="210" width="290" height="109" as="geometry" />
        </mxCell>
        <mxCell id="km9KdVgc4UFE4PCnm0q_-59" value="" style="sketch=0;points=[[0,0,0],[0.25,0,0],[0.5,0,0],[0.75,0,0],[1,0,0],[0,1,0],[0.25,1,0],[0.5,1,0],[0.75,1,0],[1,1,0],[0,0.25,0],[0,0.5,0],[0,0.75,0],[1,0.25,0],[1,0.5,0],[1,0.75,0]];outlineConnect=0;fontColor=#232F3E;gradientColor=#F54749;gradientDirection=north;fillColor=#C7131F;strokeColor=#ffffff;dashed=0;verticalLabelPosition=bottom;verticalAlign=top;align=center;html=1;fontSize=12;fontStyle=0;aspect=fixed;shape=mxgraph.aws4.resourceIcon;resIcon=mxgraph.aws4.resource_access_manager;" parent="km9KdVgc4UFE4PCnm0q_-58" vertex="1">
          <mxGeometry x="30" y="29" width="40" height="40" as="geometry" />
        </mxCell>
        <mxCell id="km9KdVgc4UFE4PCnm0q_-60" value="" style="sketch=0;points=[[0,0,0],[0.25,0,0],[0.5,0,0],[0.75,0,0],[1,0,0],[0,1,0],[0.25,1,0],[0.5,1,0],[0.75,1,0],[1,1,0],[0,0.25,0],[0,0.5,0],[0,0.75,0],[1,0.25,0],[1,0.5,0],[1,0.75,0]];outlineConnect=0;fontColor=#232F3E;gradientColor=#945DF2;gradientDirection=north;fillColor=#5A30B5;strokeColor=#ffffff;dashed=0;verticalLabelPosition=bottom;verticalAlign=top;align=center;html=1;fontSize=12;fontStyle=0;aspect=fixed;shape=mxgraph.aws4.resourceIcon;resIcon=mxgraph.aws4.transit_gateway;" parent="km9KdVgc4UFE4PCnm0q_-58" vertex="1">
          <mxGeometry x="120" y="29" width="40" height="40" as="geometry" />
        </mxCell>
        <mxCell id="km9KdVgc4UFE4PCnm0q_-61" value="" style="sketch=0;points=[[0,0,0],[0.25,0,0],[0.5,0,0],[0.75,0,0],[1,0,0],[0,1,0],[0.25,1,0],[0.5,1,0],[0.75,1,0],[1,1,0],[0,0.25,0],[0,0.5,0],[0,0.75,0],[1,0.25,0],[1,0.5,0],[1,0.75,0]];points=[[0,0,0],[0.25,0,0],[0.5,0,0],[0.75,0,0],[1,0,0],[0,1,0],[0.25,1,0],[0.5,1,0],[0.75,1,0],[1,1,0],[0,0.25,0],[0,0.5,0],[0,0.75,0],[1,0.25,0],[1,0.5,0],[1,0.75,0]];outlineConnect=0;fontColor=#232F3E;gradientColor=#F34482;gradientDirection=north;fillColor=#BC1356;strokeColor=#ffffff;dashed=0;verticalLabelPosition=bottom;verticalAlign=top;align=center;html=1;fontSize=12;fontStyle=0;aspect=fixed;shape=mxgraph.aws4.resourceIcon;resIcon=mxgraph.aws4.cloudformation;" parent="km9KdVgc4UFE4PCnm0q_-58" vertex="1">
          <mxGeometry x="210" y="29" width="40" height="40" as="geometry" />
        </mxCell>
        <mxCell id="km9KdVgc4UFE4PCnm0q_-62" value="AWS Resource &lt;br&gt;Manager" style="text;html=1;align=center;verticalAlign=middle;resizable=0;points=[];autosize=1;strokeColor=none;fillColor=none;" parent="km9KdVgc4UFE4PCnm0q_-58" vertex="1">
          <mxGeometry x="-5" y="69" width="110" height="40" as="geometry" />
        </mxCell>
        <mxCell id="km9KdVgc4UFE4PCnm0q_-63" value="AWS Transit&lt;br&gt;Gateway" style="text;html=1;align=center;verticalAlign=middle;resizable=0;points=[];autosize=1;strokeColor=none;fillColor=none;" parent="km9KdVgc4UFE4PCnm0q_-58" vertex="1">
          <mxGeometry x="100" y="69" width="90" height="40" as="geometry" />
        </mxCell>
        <mxCell id="km9KdVgc4UFE4PCnm0q_-64" value="CloudFormation/&lt;br&gt;Terraform" style="text;html=1;align=center;verticalAlign=middle;resizable=0;points=[];autosize=1;strokeColor=none;fillColor=none;" parent="km9KdVgc4UFE4PCnm0q_-58" vertex="1">
          <mxGeometry x="175" y="69" width="110" height="40" as="geometry" />
        </mxCell>
        <mxCell id="km9KdVgc4UFE4PCnm0q_-80" value="Tools Account" style="points=[[0,0],[0.25,0],[0.5,0],[0.75,0],[1,0],[1,0.25],[1,0.5],[1,0.75],[1,1],[0.75,1],[0.5,1],[0.25,1],[0,1],[0,0.75],[0,0.5],[0,0.25]];outlineConnect=0;gradientColor=none;html=1;whiteSpace=wrap;fontSize=12;fontStyle=0;container=1;pointerEvents=0;collapsible=0;recursiveResize=0;shape=mxgraph.aws4.group;grIcon=mxgraph.aws4.group_account;strokeColor=#CD2264;fillColor=none;verticalAlign=top;align=left;spacingLeft=30;fontColor=#CD2264;dashed=0;" parent="km9KdVgc4UFE4PCnm0q_-1" vertex="1">
          <mxGeometry y="204.5" width="170" height="120" as="geometry" />
        </mxCell>
        <mxCell id="km9KdVgc4UFE4PCnm0q_-81" value="ECR" style="sketch=0;points=[[0,0,0],[0.25,0,0],[0.5,0,0],[0.75,0,0],[1,0,0],[0,1,0],[0.25,1,0],[0.5,1,0],[0.75,1,0],[1,1,0],[0,0.25,0],[0,0.5,0],[0,0.75,0],[1,0.25,0],[1,0.5,0],[1,0.75,0]];outlineConnect=0;fontColor=#232F3E;gradientColor=#F78E04;gradientDirection=north;fillColor=#D05C17;strokeColor=#ffffff;dashed=0;verticalLabelPosition=bottom;verticalAlign=top;align=center;html=1;fontSize=12;fontStyle=0;aspect=fixed;shape=mxgraph.aws4.resourceIcon;resIcon=mxgraph.aws4.ecr;" parent="km9KdVgc4UFE4PCnm0q_-80" vertex="1">
          <mxGeometry x="15" y="38.25" width="43.5" height="43.5" as="geometry" />
        </mxCell>
        <mxCell id="km9KdVgc4UFE4PCnm0q_-82" value="" style="shape=image;verticalLabelPosition=bottom;labelBackgroundColor=default;verticalAlign=top;aspect=fixed;imageAspect=0;image=data:image/png,iVBORw0KGgoAAAANSUhEUgAAAOEAAADgCAMAAADCMfHtAAAA6lBMVEX///9cTuUAAABAQLJLOuNPPuTc2fn6+f5XSOQ6OrCXj+2WltBxccOOhew2NrCYmJhdXV2Pj4/39/c+Pj7u7u6JiYm1tbVMTEzNzc0eHh6qqqoODg4rKyvCwsKhoaGMjIx1dXVVVVWBgYFvb2/f398xMTFTQ+TU1NQ4ODju7fwbGxtmZmYpKawwMK67u7vGwvV0aejW0/jKxvazrvLk4vqqpPBwZOiGfeuAduq8uPNFRUWVje1iVOZoXOejne/j4/JZWbuNjcynp9jIyOZISLVoaMCzs93T0+tkZL7BweOdndRBLuKJgOs6JOIilRkXAAAIeElEQVR4nO2bC3eaSBSAx1ET0zY+EHyjiCjGRNu06Svdvl/bbff//529MwMKCGoUF2fO/c5pigiT+8lcZrgZCUEQBEEQBEEQBEEQBEEQBEEQBEEQBEF25TzrAI7Onw9ZR3BsLou5p1nHcFwuS7nis7OsozgmYJgrFS8VTkdmyBxfZB3I0RCGudwk9zzrUI6Eb5iDdLzLOpijsDLMlQrvVEzHgKGi6RgyhHT86zbriNImYgjp+OYq65jSZc0Q0vGRUum4bghddfI267BSJM4Quup7ddIx3hC66mtV0jHBkDl+UCMdEw0hHUtKTOQ2GOZK77KOLg02Gj4i5OqgrvoxrTAPYJvhbWH/kePjp88pRrov2wzPisVX+5UAzj/fzB+nHO0+bDeEu+qfPUaOL/NyviyJIXvmePnAdPz6bZ7PS2TISgAPqch9/H5zkZfMMPeAihwkIPeTzZCVAHZKxx/lcj4vpSG8nrzc2t5PnoCyGrISwOaJ3McnfgeV1ZCVAJIrcqsElNkQRo5HCen446KczytgCLtLcRW5n5/m+SiyGkI6vo+m49WTSAeV3BC6aigdzx/Pox30dAxfFpIVkw15Oi4ncr/y6x30dAzJ2bMEh82GrAQgnqviEvCkDAl5+tdkH0NWkYPL+DguAU/MELpqMbarbjPMFcDwSbLgCRmSq8u4dFTJEExexQx8ShkS8jYXTUfVDMn5h0g6KmcI6fg6lI4KGhJy+z74PKiiIaRjaaK4IaSj31VVNSTk7o1wVNeQpeNEcUNCXkxKihuS80eFidqGkI7PLhU3BEflDYGzguqGV8klgK2G5fLXrMPfiedJJYAthhc3MlxBwYv4EsBGw4ubJzItyDl/F1+RSzacf/uZddC7cisWud/FpmOSYXn+I+u4d+esMBE1/OdrJYAkw4ubU1iCsTMwHvqratcrcnGGFzffZUpAb8QviFW1V5cRxxjD+Tc5RogVYk7jL+OLVOTWDKVKQA9/1ubX8J8G0zFiCAko4XLG1by0+EqkY6AiFzKEBDyFZWwPJjDz9lfVXr32HYOG8iWgR+jZolQU6XjrpePKsDz/knWk+xJ5evLXRomKnG8oZwJ6rD0femujeIFcGF7M/5YyAT3Wn4BLhUuejndvitzw5tuvrIM8iLhnfH9t1G0JDL//k3GEhxJfxfDWRp0TBb4MnlSnUefLw4mVqFJxt6WKJ8+GWltposS3FTdWE39Ln4Rkh3qp9KCh/KCh/KCh/KCh/KCh/KCh/KCh/Nz93vCVEyUMo6tqFTSMrKpV0pCQF6X4BSfqGLJlfHFdVSFDvqpWcUNIx/W1UYoZilW1ahuurY1SzzC6NkpFw/DaKDUNg1+sVdWQnPvfVlTWcLk2SmFDQp6yiZzShnxtlOKG5OrPv4obwsihvCGCIAiCyIGmiX8+Dt/W+DtawjlyQS1C2tbq9WwEP1zqmJTSYUYxpUvbJqRuE9d04PqZLplauqlpDTK+13WH6Gy3S3TYNrOOdF96I8cZD0zaposW7VGtDtfOcqjeA3Ni0i5cY0pHA9g7zTrUPRlD7NSAjanVoS78N9SqVd0zvG6SPmUdeUBJg2Yd6p60LY1MjVYXLpZ2Tak2tYi1NKxekwUYtogxk9gQTKYDY6z3Rprm0lbdIqMhGNbHbsu1epoNhiYxqFaR1XAKPbRZa1E6thuU9kjTJvY1GLptSD+9R2lHGFJqZx3qYfCxT9ODu3S2y9sDvVRfP0kl7G7WERwbRaY36aLBNEHlz2XR7MLNqcvuY1mzaMRw8AytSj3u04jxMGY0hkOn3LVlS6NUgjyIcZxh9bA2tVVLtXSiPIRjGLqigy7MRaWVTpSH0D5CL23wRk5litCvcPo9FtTUe9U4rM0Oa+vk5gj1FHqnjySG+gN6mRYe2+MMtZ2G/9DM+CER7EDIsGXx9Gxb3o3CNAYDG36fPqAaf2FAuDo8WBGnY9x3edrNRmIUrRg1MRrCYQPD4aFW7vmenu2u2uNNGNDEwhgYLC3cypC1NGSn6AuLpc2scxxDvRm9q1bYpkts+OkQVtGgjmbxm0mVBhizD30aumexj8gIvG5qy/Ycrz32dlurdJfH6OZwuZ3inGhlqHUDEdE629VnWyMqPPlwblERZC14LJ35DS1xSPhDoF3NN7S89gy6CecIhtfhX9HxDQWLoFSLLMIH96PXUAuey2n6hgJzi2E/fUNdtGybplDphQ0rQcMODO5Vu9KAoV30bLjiA8sWncyybcsiRBzZtmuGSEZW7goY9rcYXqdvyG+EPH+Iwzf1gOHYDEw670MTFtGJeZoF76UtYcu3xUzACBjWW6s0rTYc3d9u11q6y7Mlvar00tBmG02xc+zJ+oYLttMznEUeQEz/4wgbilO9Y4ZezL4hb0JY1fiZYkY7FB9dMJI0DXkU3iPBtReGCHMgdgrDSrQBN96QH+0/Q/EXbd/Qm5Vzw7HYFoZu4I1jGQ7dFuAOQ4aRMCM48YaVoCFvp+cbkoBIL2jY+h8Mg2wzdFqcjqqGi9DoqaBhJ3KweobRg6UxjJRXEg3FaNesDQY1S03Dxiq6TffSeuTUbA3t4Ie+zbDin5VoKE7Vwr8kW0MR0nLCYuqbDPk1nK421w3FRKC6emhiA322huJa0GGt3zdG9eCzRYyhmKpZ5mLg1ezWDP1SV9UaeeOKk7Vh9OnJ2mSo0QjrhpHnK57iGRtq4TL4eJOhyNqNhpFD+AQ0E0Pey8Sjiha6itPYiJZ/8r73jzPssCFdVp6CswLxh+RQe/y8WYwhfyO9P3x0gnVSp1LttdvtcbXCbzSkxauo3pv8xerRu9OctXujhgYnAVzLDR8BPdWqs+au+3pME2bghcZ/kRN4I81aFIIgCIIgCIIgCIIgCIIgCIIgCIIgivMfKW3MkNLFeuoAAAAASUVORK5CYII=;" parent="km9KdVgc4UFE4PCnm0q_-80" vertex="1">
          <mxGeometry x="59.89" y="38.25" width="50.22" height="50" as="geometry" />
        </mxCell>
        <mxCell id="km9KdVgc4UFE4PCnm0q_-83" value="docker &lt;br&gt;image" style="shape=image;html=1;verticalAlign=top;verticalLabelPosition=bottom;labelBackgroundColor=#ffffff;imageAspect=0;aspect=fixed;image=https://cdn1.iconfinder.com/data/icons/unicons-line-vol-3/24/docker-128.png;fillColor=#FFFFFF;" parent="km9KdVgc4UFE4PCnm0q_-80" vertex="1">
          <mxGeometry x="110.11" y="34.5" width="45.5" height="45.5" as="geometry" />
        </mxCell>
      </root>
    </mxGraphModel>
  </diagram>
  <diagram name="Serverless Deployment Process" id="N7LySkpVf0LaAqfUgoRC">
    <mxGraphModel dx="1050" dy="491" grid="0" gridSize="10" guides="1" tooltips="1" connect="1" arrows="1" fold="1" page="1" pageScale="1" pageWidth="850" pageHeight="1100" math="0" shadow="0">
      <root>
        <mxCell id="7zUhYIdjNnRir5XlXD8w-0" />
        <mxCell id="7zUhYIdjNnRir5XlXD8w-1" parent="7zUhYIdjNnRir5XlXD8w-0" />
        <mxCell id="7zUhYIdjNnRir5XlXD8w-2" value="&lt;span style=&quot;color: rgb(0, 0, 0); font-family: Helvetica; font-size: 12px; font-style: normal; font-variant-ligatures: normal; font-variant-caps: normal; font-weight: 400; letter-spacing: normal; orphans: 2; text-align: center; text-indent: 0px; text-transform: none; widows: 2; word-spacing: 0px; -webkit-text-stroke-width: 0px; background-color: rgb(251, 251, 251); text-decoration-thickness: initial; text-decoration-style: initial; text-decoration-color: initial; float: none; display: inline !important;&quot;&gt;commit code&lt;/span&gt;" style="edgeStyle=orthogonalEdgeStyle;rounded=0;orthogonalLoop=1;jettySize=auto;html=1;entryX=0;entryY=0.5;entryDx=0;entryDy=0;entryPerimeter=0;curved=1;" parent="7zUhYIdjNnRir5XlXD8w-1" source="7zUhYIdjNnRir5XlXD8w-3" target="7zUhYIdjNnRir5XlXD8w-42" edge="1">
          <mxGeometry x="0.0112" y="4" relative="1" as="geometry">
            <mxPoint as="offset" />
          </mxGeometry>
        </mxCell>
        <mxCell id="7zUhYIdjNnRir5XlXD8w-3" value="" style="html=1;verticalLabelPosition=bottom;align=center;labelBackgroundColor=#ffffff;verticalAlign=top;strokeWidth=2;strokeColor=#0080F0;shadow=0;dashed=0;shape=mxgraph.ios7.icons.user;fillColor=#FFFFFF;" parent="7zUhYIdjNnRir5XlXD8w-1" vertex="1">
          <mxGeometry x="20" y="450" width="50" height="50.5" as="geometry" />
        </mxCell>
        <mxCell id="7zUhYIdjNnRir5XlXD8w-4" value="Developers" style="text;html=1;align=center;verticalAlign=middle;resizable=0;points=[];autosize=1;strokeColor=none;fillColor=none;" parent="7zUhYIdjNnRir5XlXD8w-1" vertex="1">
          <mxGeometry x="40" y="495" width="80" height="30" as="geometry" />
        </mxCell>
        <mxCell id="7zUhYIdjNnRir5XlXD8w-5" value="Tools Account" style="points=[[0,0],[0.25,0],[0.5,0],[0.75,0],[1,0],[1,0.25],[1,0.5],[1,0.75],[1,1],[0.75,1],[0.5,1],[0.25,1],[0,1],[0,0.75],[0,0.5],[0,0.25]];outlineConnect=0;gradientColor=none;html=1;whiteSpace=wrap;fontSize=12;fontStyle=0;container=1;pointerEvents=0;collapsible=0;recursiveResize=0;shape=mxgraph.aws4.group;grIcon=mxgraph.aws4.group_aws_cloud_alt;strokeColor=#232F3E;fillColor=none;verticalAlign=top;align=left;spacingLeft=30;fontColor=#232F3E;dashed=0;" parent="7zUhYIdjNnRir5XlXD8w-1" vertex="1">
          <mxGeometry x="310" y="360" width="380" height="290" as="geometry" />
        </mxCell>
        <mxCell id="7zUhYIdjNnRir5XlXD8w-13" value="" style="rounded=0;whiteSpace=wrap;html=1;fillColor=#FFFFFF;" parent="7zUhYIdjNnRir5XlXD8w-5" vertex="1">
          <mxGeometry x="32.91999999999999" y="220" width="320" height="50" as="geometry" />
        </mxCell>
        <mxCell id="7zUhYIdjNnRir5XlXD8w-14" value="" style="sketch=0;outlineConnect=0;fontColor=#232F3E;gradientColor=none;fillColor=#BF0816;strokeColor=none;dashed=0;verticalLabelPosition=bottom;verticalAlign=top;align=center;html=1;fontSize=12;fontStyle=0;aspect=fixed;pointerEvents=1;shape=mxgraph.aws4.addon;" parent="7zUhYIdjNnRir5XlXD8w-5" vertex="1">
          <mxGeometry x="96.91999999999999" y="230.5" width="50.7" height="26" as="geometry" />
        </mxCell>
        <mxCell id="7zUhYIdjNnRir5XlXD8w-15" value="" style="sketch=0;points=[[0,0,0],[0.25,0,0],[0.5,0,0],[0.75,0,0],[1,0,0],[0,1,0],[0.25,1,0],[0.5,1,0],[0.75,1,0],[1,1,0],[0,0.25,0],[0,0.5,0],[0,0.75,0],[1,0.25,0],[1,0.5,0],[1,0.75,0]];points=[[0,0,0],[0.25,0,0],[0.5,0,0],[0.75,0,0],[1,0,0],[0,1,0],[0.25,1,0],[0.5,1,0],[0.75,1,0],[1,1,0],[0,0.25,0],[0,0.5,0],[0,0.75,0],[1,0.25,0],[1,0.5,0],[1,0.75,0]];outlineConnect=0;fontColor=#232F3E;gradientColor=#F34482;gradientDirection=north;fillColor=#BC1356;strokeColor=#ffffff;dashed=0;verticalLabelPosition=bottom;verticalAlign=top;align=center;html=1;fontSize=12;fontStyle=0;aspect=fixed;shape=mxgraph.aws4.resourceIcon;resIcon=mxgraph.aws4.cloudwatch_2;" parent="7zUhYIdjNnRir5XlXD8w-5" vertex="1">
          <mxGeometry x="166.92" y="226" width="35" height="35" as="geometry" />
        </mxCell>
        <mxCell id="7zUhYIdjNnRir5XlXD8w-16" value="" style="shape=image;verticalLabelPosition=bottom;labelBackgroundColor=default;verticalAlign=top;aspect=fixed;imageAspect=0;image=data:image/png,iVBORw0KGgoAAAANSUhEUgAAAOEAAADgCAMAAADCMfHtAAAA6lBMVEX///9cTuUAAABAQLJLOuNPPuTc2fn6+f5XSOQ6OrCXj+2WltBxccOOhew2NrCYmJhdXV2Pj4/39/c+Pj7u7u6JiYm1tbVMTEzNzc0eHh6qqqoODg4rKyvCwsKhoaGMjIx1dXVVVVWBgYFvb2/f398xMTFTQ+TU1NQ4ODju7fwbGxtmZmYpKawwMK67u7vGwvV0aejW0/jKxvazrvLk4vqqpPBwZOiGfeuAduq8uPNFRUWVje1iVOZoXOejne/j4/JZWbuNjcynp9jIyOZISLVoaMCzs93T0+tkZL7BweOdndRBLuKJgOs6JOIilRkXAAAIeElEQVR4nO2bC3eaSBSAx1ET0zY+EHyjiCjGRNu06Svdvl/bbff//529MwMKCGoUF2fO/c5pigiT+8lcZrgZCUEQBEEQBEEQBEEQBEEQBEEQBEEQBEF25TzrAI7Onw9ZR3BsLou5p1nHcFwuS7nis7OsozgmYJgrFS8VTkdmyBxfZB3I0RCGudwk9zzrUI6Eb5iDdLzLOpijsDLMlQrvVEzHgKGi6RgyhHT86zbriNImYgjp+OYq65jSZc0Q0vGRUum4bghddfI267BSJM4Quup7ddIx3hC66mtV0jHBkDl+UCMdEw0hHUtKTOQ2GOZK77KOLg02Gj4i5OqgrvoxrTAPYJvhbWH/kePjp88pRrov2wzPisVX+5UAzj/fzB+nHO0+bDeEu+qfPUaOL/NyviyJIXvmePnAdPz6bZ7PS2TISgAPqch9/H5zkZfMMPeAihwkIPeTzZCVAHZKxx/lcj4vpSG8nrzc2t5PnoCyGrISwOaJ3McnfgeV1ZCVAJIrcqsElNkQRo5HCen446KczytgCLtLcRW5n5/m+SiyGkI6vo+m49WTSAeV3BC6aigdzx/Pox30dAxfFpIVkw15Oi4ncr/y6x30dAzJ2bMEh82GrAQgnqviEvCkDAl5+tdkH0NWkYPL+DguAU/MELpqMbarbjPMFcDwSbLgCRmSq8u4dFTJEExexQx8ShkS8jYXTUfVDMn5h0g6KmcI6fg6lI4KGhJy+z74PKiiIaRjaaK4IaSj31VVNSTk7o1wVNeQpeNEcUNCXkxKihuS80eFidqGkI7PLhU3BEflDYGzguqGV8klgK2G5fLXrMPfiedJJYAthhc3MlxBwYv4EsBGw4ubJzItyDl/F1+RSzacf/uZddC7cisWud/FpmOSYXn+I+u4d+esMBE1/OdrJYAkw4ubU1iCsTMwHvqratcrcnGGFzffZUpAb8QviFW1V5cRxxjD+Tc5RogVYk7jL+OLVOTWDKVKQA9/1ubX8J8G0zFiCAko4XLG1by0+EqkY6AiFzKEBDyFZWwPJjDz9lfVXr32HYOG8iWgR+jZolQU6XjrpePKsDz/knWk+xJ5evLXRomKnG8oZwJ6rD0femujeIFcGF7M/5YyAT3Wn4BLhUuejndvitzw5tuvrIM8iLhnfH9t1G0JDL//k3GEhxJfxfDWRp0TBb4MnlSnUefLw4mVqFJxt6WKJ8+GWltposS3FTdWE39Ln4Rkh3qp9KCh/KCh/KCh/KCh/KCh/KCh/KCh/Nz93vCVEyUMo6tqFTSMrKpV0pCQF6X4BSfqGLJlfHFdVSFDvqpWcUNIx/W1UYoZilW1ahuurY1SzzC6NkpFw/DaKDUNg1+sVdWQnPvfVlTWcLk2SmFDQp6yiZzShnxtlOKG5OrPv4obwsihvCGCIAiCyIGmiX8+Dt/W+DtawjlyQS1C2tbq9WwEP1zqmJTSYUYxpUvbJqRuE9d04PqZLplauqlpDTK+13WH6Gy3S3TYNrOOdF96I8cZD0zaposW7VGtDtfOcqjeA3Ni0i5cY0pHA9g7zTrUPRlD7NSAjanVoS78N9SqVd0zvG6SPmUdeUBJg2Yd6p60LY1MjVYXLpZ2Tak2tYi1NKxekwUYtogxk9gQTKYDY6z3Rprm0lbdIqMhGNbHbsu1epoNhiYxqFaR1XAKPbRZa1E6thuU9kjTJvY1GLptSD+9R2lHGFJqZx3qYfCxT9ODu3S2y9sDvVRfP0kl7G7WERwbRaY36aLBNEHlz2XR7MLNqcvuY1mzaMRw8AytSj3u04jxMGY0hkOn3LVlS6NUgjyIcZxh9bA2tVVLtXSiPIRjGLqigy7MRaWVTpSH0D5CL23wRk5litCvcPo9FtTUe9U4rM0Oa+vk5gj1FHqnjySG+gN6mRYe2+MMtZ2G/9DM+CER7EDIsGXx9Gxb3o3CNAYDG36fPqAaf2FAuDo8WBGnY9x3edrNRmIUrRg1MRrCYQPD4aFW7vmenu2u2uNNGNDEwhgYLC3cypC1NGSn6AuLpc2scxxDvRm9q1bYpkts+OkQVtGgjmbxm0mVBhizD30aumexj8gIvG5qy/Ycrz32dlurdJfH6OZwuZ3inGhlqHUDEdE629VnWyMqPPlwblERZC14LJ35DS1xSPhDoF3NN7S89gy6CecIhtfhX9HxDQWLoFSLLMIH96PXUAuey2n6hgJzi2E/fUNdtGybplDphQ0rQcMODO5Vu9KAoV30bLjiA8sWncyybcsiRBzZtmuGSEZW7goY9rcYXqdvyG+EPH+Iwzf1gOHYDEw670MTFtGJeZoF76UtYcu3xUzACBjWW6s0rTYc3d9u11q6y7Mlvar00tBmG02xc+zJ+oYLttMznEUeQEz/4wgbilO9Y4ZezL4hb0JY1fiZYkY7FB9dMJI0DXkU3iPBtReGCHMgdgrDSrQBN96QH+0/Q/EXbd/Qm5Vzw7HYFoZu4I1jGQ7dFuAOQ4aRMCM48YaVoCFvp+cbkoBIL2jY+h8Mg2wzdFqcjqqGi9DoqaBhJ3KweobRg6UxjJRXEg3FaNesDQY1S03Dxiq6TffSeuTUbA3t4Ie+zbDin5VoKE7Vwr8kW0MR0nLCYuqbDPk1nK421w3FRKC6emhiA322huJa0GGt3zdG9eCzRYyhmKpZ5mLg1ezWDP1SV9UaeeOKk7Vh9OnJ2mSo0QjrhpHnK57iGRtq4TL4eJOhyNqNhpFD+AQ0E0Pey8Sjiha6itPYiJZ/8r73jzPssCFdVp6CswLxh+RQe/y8WYwhfyO9P3x0gnVSp1LttdvtcbXCbzSkxauo3pv8xerRu9OctXujhgYnAVzLDR8BPdWqs+au+3pME2bghcZ/kRN4I81aFIIgCIIgCIIgCIIgCIIgCIIgCIIgivMfKW3MkNLFeuoAAAAASUVORK5CYII=;" parent="7zUhYIdjNnRir5XlXD8w-5" vertex="1">
          <mxGeometry x="231.82999999999996" y="226" width="38.17" height="38" as="geometry" />
        </mxCell>
        <mxCell id="lL1xDrW0RNjOT5UMQTyE-2" value="" style="shape=image;verticalLabelPosition=bottom;labelBackgroundColor=default;verticalAlign=top;aspect=fixed;imageAspect=0;image=data:image/png,iVBORw0KGgoAAAANSUhEUgAAAoAAAAE/CAYAAADWuXIeAAAgAElEQVR4nOydd5wdxZW2n755Zu7knEeTlXNOIIEEItnYZBuM89rsOq3tXa+9a3/e4PWuMWsDNsmYjMAgkgAhMgiUR2FyzjnP3Hy76/ujb5wgFEGh3/nN7e7qqurqPhXeCueUJIQQ/UM9OKQRNGjQoEGDBg0aznd0VQv2PgUDLRKSJCEhIUk631H9B0Luhfzjvx9+1IWc+0JPisd/rt7z+VEdA2GCfnx3Q/0F4g2eB36DPxPvhDoE3HUn9+k0aNCgQYMGDRrObQgh1H8EQii+o/ofuB/iFnrNhKMScu4LPSke/7l6z+dHdQyECfrx3Q31F4g3eB74Df5MvBPqEHDRCKAGDRo0aNCg4YKDj+5doCRQaARQgwYNGjRo0HBhQQiVYCnKhUsCNQKoQYMGDRo0aLjgoJIx5bSTQM4REqgRQA0aNGjQoEHDBYZQgnZ6SaA4R0igRgA1aNCgQYMGDRccwknc6SeBZ/t0sEYANWjQoEGDBg0XFPxrAKcmgZwWEni2rwnUCKAGDRo0aNCg4YLDJAIoVLKnKMoFQQI1AqhBgwYNGjRouMAgAsfJBO4MkUBF4UyQwID/kHc7HhJoOA1fUYMGDRo0aNCg4ZyBABTfyJxOIoQwoW6VIRSEAurNcHckXcBNkiSVgEmEKdn6ryUJjBaJyBgdeoOEIks4xwQep/Dt/qGStdB4JNRzSQIhJCRJIJCQhED4whDwo+7rEfAf2DFE+ML639YXKvijEUANGjRo0KBBw4UI38gcTEkCFaGgU3Rhu6kdLwm0xuvJKDKTkmckOlFPhFWHTi+hKOCyKYwPCgZaZbrqvdiHTiMJBN99//tNTwI1AqhBgwYNGjRouMAgAn8Ijk0CJ66WOwYJtFh1FCyMpHCxheRcE9EJOpw2wfigjOwFox4SMoxExkrYhgQD7TLNhzw0HfTgtotTJ4EIJHF8JFAjgBo0aNCgQYOGCwshWsD+kbtTJYGJGUbmXxJN8dJIjGaJ1nIXB7a7GemXcdsFQpGQdBLmCB3RSXoyS4zkzTORkqcnOVdP+dtuhruU00gC8U0IT00CNQKoQYMGDRo0aLigEKrgAZwyCUzMNLL8qhhKlkfSWe/m6Ls2uhs82IcVZK86Qigh+UiahN6oo73STVOZi1lrLZSuNmOx6ji43clg++kigRJCEtOSQI0AatCgQYMGDRouMIRr8wInTQKjE3QsvNRKyfJI6vY7OPD6GP1tHpX4BUhfMH5JAtmjMDYgsI8ojPYqzNkgKF1lRvbAvhcdjA+crung6UmgRgA1aNCgQYMGDRcW/CZWVFXfoPsJkkC9UaJ0RRRz1kbTXOlk76sj9Ld4ECKc9E2MX/LFLXthoMPLoR12dDooWm7GNqxQ9qoTj/N0kkC/LkuQBGoEUIMGDRo0aNBwwUEIvzHlkyeB6flmSpZHMTbk5fBbo/S2uBCySrCOx0SMEKAoMNIrU/Gek5gUPQVLjPS3eOlplMmeYyQ5z4AkwXCXQvNBL/Zhvy3AU1MM0QigBg0aNGjQoOGCg/AbTJZOjgQaDHoyiy1k5JvZs32Ylko7slcgnaCdQD8J7GvxUr3Lydqbolj+xQgUryA2TY9er9I2RRbM22Ri3zYXzQdlZI84JRKoEUANGjRo0KBBwwUFgUAo/jWA0kmRwNhkAxmFZga7PbRWOXDaZJVwnYSxaCFAlhW66jy0lrspXWPBPqJQ8Y6LxgMeFC/kzDUyZ4OZdbdZ8LoctB6REcoJjgQSNBatEUANGjRo0KBBwwWHwDZqqvXkEyaBMUl6EjNN9La56Wt3T9AoPjkSONLrpbXcQ3yGgSM7ndR+7FbNxwA9DTID7TJrvxTB8uvM9DQ4cIye/I4hFxQB9HplZFnGaDCg05/+bZAVRd0/UK/XB7V+TjE+r9eLTtKhN6hxer1eJElCr9efhhSfH/B6vSiygsFoQKf7bLa3lmUZAJ1OhyRJuN0ehKJgMpumzAuKouDxeNDr9RgMF1QxPCvkdTzweDwoisBoNKLTnXp51qDBD0VWfFOIF1bZP9sQMATt53wnSAItUXqscQYaD9sYHXSr42unSAIVBao+dFC9y+lz0/kDIyFo3O8hZ56B0tUm0op1NB+UEcqJkUC/JWj9L3/5y1/anTa8kusMfN5Tg9vtYXxsnPHRcWw2Oy6nC51Od9KF5rWXd/KXPz9KUkoSqWnJJ9T4yLKM3WZnbGwch92B0+HA7XYHyJgkSVSV1/DWjneIjYshJjb6lElg+ZEq7r/7IdrbOskvmIEQgueefoHe3n7yC2ecUtyfFYQQuN1uxkbHGR8bx26z43F70Ol1J0Vq3W43z299ka2PP0d2bhZJyYknFN7r9TIyPIrdZsdhd+CwO/C43eh0x58et9vN+2/voqqihpTUZCIiLPzvf/6BZ598nnUXr8ZsNof5F0LQUN/Eb371O0ZHxpgzb9YJpfnThBACt8vN2OgY42M27DY7Xo8HnU5/UvJyuVw8v/VFnn1yG9k52SQmJ5xQ+Knk5Xa5UYTAYDCclo4XgNfj5b67H+bFv71McUkBcfFxpyXecxlCCJxOF6Mjo4Fv77A78Hq96PX6z4zMhzVsJxUe7Ha7L4+P43A48crypHJ7uiDLMh9/sIe9H+0nOycLs+XMPEfDsTHcI9NY5mZ8UAkSMgl86rY+hOSr0FMJJJ1EVlEEpctiaC6303h4PHBvUpgQxzCTMEz2K4VwSOFzlELi8Zvxy55rxOuCnkYZxYNvKzk1osAxNEwgLv/VWTwCaBu389Yb7/D0Y89SXVGLLMskpyRz+7e+zM23XX9SBb7iaCWvvrSD1etXMHf+rBNqwNpa2nngnof58L2PfCMCOlJSk7n86s1sunwjSSmJPPvk87z43Cv09fbzje/eTmRU5AmnMRTNDU28teNdhodGuOzKS6mprOH3v70bnU7PJZsvPqW4PwsIIRgcGOLVl3bw1KPP0NnehSRJlMws5ivf/BKbtmw84UbE65XZt/sg77/zIZu2bKBkZtEJha+raeBnP/xXBgeGsERYUBRBSmoyX7zxGi67ajMREZZPjKOlsZVHHnycyvIa7nv0jyxOWMCOV3ZSX9vAv/7XPxMdEx3+HRRBT1cvr2x7FZPJyA1f+sIJpfnTghCCgf5Btr/4Olsf+xudHaq8Zs4u4fZvfZmNmy8+YXl5PF727T7Arvd3c+nlGyieWXhC4Wur6/mn7/+C4aERzGYTIIiNi2PZyiVcd/O1ZOdmnpZRFVmWeev1t2lrbee6mz5PXn7uKcd5rsM2bmPbMy9z/z1/QR/SYVu0dAFf+/ZtlM4u+dTT5LA7aGluJSk56YQ7f34M9A/w5/97gDdefYvh4VFiYqOZO3829z5812nrUITC5XLz+9/8ke7uXqJjrFx+9ebT/gwNxwMBEw1BH8dIoCRJmCJ1JGeYyS6JwGhW/QoEoKAoOnQ6giN8pzAdHFAQIWTkUZIY7JTxOAX5iw0oXkHjfi+jfQLn2PFrB4uzVQnE6/HywrMvcfed9+H2uFm6YjFJKYlUV9Ty/NYXuenW6wIF0+P2YLc7MBoNRERGTCqwbrcbt9vjayymhtvtxmF3YjKbpm3wbTY7zU0tjI6Ms2jpfCIiIzhSVs6//+K/sdvs3Pjl67j08g1EREWyYdNFmC1mFEVBCIFer0f2ythsNiwWC6YJaZFlGZfThaIoWCIs0zZghSUF3HDLF0hJTw2G9cro9DqEEDjsTiSdRESEJew7CCFwuVy+72DGZDKekYrtk+BwOHnyka388X//RGpaCmvWr8QcYaGuup79ew6y9qJVRFmjAiMNHrcbs8WMyTR5GtXpdOJ2edBPM5Uf+s4WsxrHpB4XMDgwRGtzO3q9nksu28DY2Dg7XnmTwwePEBkVxeYrLlE3C1dUy+x+wuOXrU6nIz0zjS1Xb2btRavJys6Y9v39o8jnyrSP3WbniYef5p677vfJaxUmi4n6mgb27ylj1dqVRFkjVXk5nHg8HswWy5T5y+lw4vZ4/H3SSRBC4HK6cHs+QV79g7Q2twFw6eUbUWQvleXVPPrQE7yz8z3+885fsXDJ/IB/r9eL0+FEp9NhsVgCSz/8MvXL026zAxAZFXnMsiGEwOPx4HS4MBgNWCzmQByyrAAisAwA/MtCBAbDub9kw+320NXVTVdHN/lFMygqLgAgOycLi6/eDMjR7cZoMmGxmMO+hb/MOB1qXWWxqOG8Xi8up0tdEmE0BMqav6F0uVy4XW6MRiMWX/0mhGDX+7v52s1/x23fuIV//Y+fodeHf3un04XslbFEmDEajVO+10N/foSnH/8bM2eXcvNXbqSvp5f33t6F1+sNhAnLn746Sb2hPgdJ7dg5XS5MJqMvT0hh9ZN/iZDRaODm22+ktbmNhUsWhN13Ol3qfrIWc9gAhdfjxeFwotfrsERYzuqlE+cSAmsA/fgEEqjTSyRmmFi8MZEllyRiskj0d7oY7vOEEMkzTwLHBhU6qr2kFRooWmlk9kYzrUe8lG13M9guo3iPjwSelS1RS3Mrr7zwGsPDI/zkFz/gupuvxWqNwm63s393GZIkIcsy9bWNNNQ1UlNVS0JiAnMXzGFGfi7xCXHIskJvdy9lBw7T2dFFXn4uA/2DCEUJPEdRFJobW6g8Wk1dTT3pmenMXTCb4pJCjKapK4uMrDRu/drNrL14NY8++CT3/P4+9u4+wIbNF5GWkcqyFYtISklEkiQqj1bT29PLrLkzqSqv4eihcgqKC1i8dAFpGakIIRgdGaW6spbqihpcLjdFJYXMnjdzyt6syWxmyfJFREVbARgeGqZs/2HSM9IYH7dx9FAFJrORpSuWkF+Yh8FgwOlw0tbazuGycro7u8nOyWL2vJnk5GZPIqJnEkII2ls7eOhPj5CYlMiPf/4Drvz85UiSRFdHNyPDo5jNZkZHx2hpbKXiaBU9XT3k5GVTXFpIQXE+FotFnT6ta+Tg/sP0dPUyf9FcbDZb2LMcDifNDc1UHK2iu6uX3Lxs5i6YTUZWerDinoDM7Ax+8vMfYDKbMRmNPPvUNqrKq9l8xSWMjoxycN8hklKSAtO1LU2ttLV2UFRSQEJCPKUzi3G6XERGTj3qOzw0zJGyco4eriAzOxOX8+xbchEKIQStzW08fP9jJKck8dNf/IAt11yGJEl0tHcxPjqO2WxidGSUlqZWyo9U0dPdS96MHIpKCyksysdsMSOEoL62kYP7D9HX08+c+bOwjdvDnuWwO2hqbKbiSBU93X3kzchh7vzZpGelTSuvrOxM/uv3v8JgMNDf28/v/vMP/O3pbdx71/388cE7MRoNDPQPUn6kkrrqeiwWMzPnlFI8s4i4uFgG+gepra4jKTkJp8PJ/j0HAVi8fCFz58+e8pkup4vWlnaqK2toamghISGOmXNKKSiaQUREBJXl1YyPjTNv4Rxi42IBOHqogv6+AVatW3Fco8nnAqKskVx97Rbu+OG3w9yHh0ZobWmjpqKWzs5uUlOTmTW3lJlzSjEajRw9XMFg/yC5M3LZ/eEeklKS2Lj5Inq7+6g4WkVrcxtR0VEkJMRjiTBTVFJIRISF1pZ2aipq6ejoIiUlKRBnd0cPhw4cBqCtuZ0P3vmQwuICsnOysNlsVFfWUlVRw/joOAVFM5g9bxap6SlhxEpRFA7tP8zY6Dhf+7vb2Lj5YoxGA9/q6QuQP5fTRU1VHZXl1fT3DZBfkMfs+TPJzMrEbrPTUNsAOgmnw0ltVT0LlszDYXcgyzILl8wP1AkH9x1ieGiE1etWUFA4g5TUpEAHamxsnOqKGmqq6pBlmTlzZ1E8s4joaCvd3T1UlVdTU1VHZFQks+ao7x/1CZ0VDccBMY0haIWQ6WCVBOp0OpKzzFxyYzozl8fS1eSgas8INfvGGOxyT9AQPn0k0GjRERWnxxwpoXjBOSpwjAveediONV5HeqGB4tVm0gp1bL4jgo+edtJS5kWRP5kEnpUEsOzAEdpaO5g9bxZr1q/Cao0CIDIyknUbVgNw9HAF//bT/6Crs5u0tBRGR8eQZZnbv6lOEQ8PjfDgn/7KtmdeIjIqkpiYaIaGhnG53YHnNNQ28v/+5b9ob+sgNS2Vvt5+QPCbu37N0hWLj5lGnU5HbHwskVERKqkUgiceeYanHn2GX/z7P3PtDVdz12/vYedrb/Hlr97M7o/24rQ7GRoa5vovXcuPf/Z9vF4vLz63nScefhqD0YBer2dkeJSrrt3CrV+7edIzG+oauePrP2RGQR4vvfksh8vK+caX7mDxsoU4HA6GBocYHBhixerl/PzXPyUnN4sD+w7x5z88SHdnN3HxcXR1dFFUWsiPf/4DSmcVf2o9SVmW2b1rD6MjY8xbMIctV28OPDsjK52MrHTsNjs7XnmTvz7wOLZxG1ZrFN1dPaSkpfAvv/oxy1Ytob9vgH/50S85dOAIefm5vPi3V3DYHYHnuN1u9u8+wN133kd//wBx8bH09w4we+5M7vjRt5k1p3TK9DkcTupqGzAYDAwPjZCQGE9hiTrCUVfdwO03fptNWzZy78N3oSgK2559mb/e/xg///VPWbZyCb/9j7vo6ujiDw/8bhKBEELw1KPP8n//cy8JCfHExsWcoa98+uDxeNn90T5GR8dYuGQ+l125KSAv/yinzWbntZff4JEHn8Bud2CNUuWVmp7Cz3/9U5auWExfbz///INfcKSsghkFubzw7EvYJ8hrz0f7uPeuBxgcHCI2Nob+vn7mzp/NHT/89nFNKyYmJ/K179zGyy+8RkNdI82NLcTFxfKX+x7ljVffIiExHpvNjlAUbv/WrVzzhSvY+/F+/vtXvyNnRo5vPeoYHW2dpKSm8OCT95KTmzXhe3goO3CYu3/3Zxrqm0hMTGBkeAS9wcDX/u421m9YwwP3PMwH7+7irj//lvUb1+LxePjlP/07NdX1vPnxdiIy006jhD47KIrANm6jt7sPgMioCKKsUezetZcn/7qV4eER9Ho9LU2txCfEcc9f7qJkZhG//fXv+ej93WzasoGjhytZuXoZCxbN474/PsTO198mPSON/r5+Otq7KJ1VzI/++Xt43G4e/+tWhgaH0Ov1tDa3ERsXwx8e+B1Hysp5futLCCHYv7eMvt5+bvvGLSQlJ/Lmjnf4010PgKTOiAwNDrH24tV8646vkZWTGXgXSZJITk3GZDLy0vPbsVqjyC+aQUZmOqCOTO7etZff/L87kb1eomOiee7pbcyZP5vv/+S7jAyP8ttf38lA/xA6vY7hoWG+ecdXeWXbazTWNfLocw8xd/5sXE4X3//WTxgaGuaNXS/x77/4b9pa2rn34bsomVXMay/t4E9/eBCvx4vVGkVKajJf/+7tFBblc9/dD7HrvY+JiY3BYXcwPjbOj372PbZcvflT7cSfjxBCHNMQdOBCEkTG6ll1VTIzl8VwdNcQ7z/XS2+rE5DQ+fb3DcMpkECDUcIaryc6UU9avom8+SaScow4RhXaKjx0VHkZ7VcYHxDU7XHTVOahdK2ZeZeYKFplpKPKi2v8kxVDzkoC2N3Vw9joOAsWp0zZaxZC8Lv//APVFdX84Kd/z8WXrufIoXJ+/5s/8vLzr7Js5RK6Ort449W3yMvP5ebbrsfpdPHUo8/Q3dnjiwQeefAJDuwt45e/+Tmbr7iEg/vK+OpNf8df7nt0WgLosDtpbGgmIiKCPbv2MToyRkFRPjGxMcheOawXIHu9gLr28Ps//g42m53f/+Zu3nnjfa645jJ0ko6nH32W1LQU/vFfvo/FYubO3/yRV7a9xvJVSyc9W/Z6fcsWRODa4/HQ1NjCl796I2npqTzzxPPUVNVyYG8ZUVERvPbSDtpb2vnOD77Jug1reOKvW3n84afZ/eFecvOyifKR6zMNRVFoqGvGYNCTmp6CwTg569VU1fHc1hfwuD18+x++ztz5s3h522s8/djfePapbZTMKuaVba9xcP9hVq1dwd997+scKSvn/nseDmhp9vX0s+3ZlxnoH+B7P/4OS5Yv4omHn2brY39j36olFBbnTzmq1N7azn/92/+gKAr795SxeNlC5i2YA6jTBErIyLG6iziBwiorCkJRwnuAIRgcGOK+Pz5EZGQE3/vpd4mLi+WxvzxFQ13jqXzSMwpFlmmsb8ZoMJCaNrW8qitqeO7pF1Fkhe9+/5vMmlPKi89tZ+vjz/Hsk9sonVXMS89tp+zAEdZdtJpv/v1XOVJ2lAfu/WtgGrynq5cX/vYKw0PDfP8n32XR0gU8+uATPPvkNlasXkZ+UT6maUbj/ZAkibj4ODKy0nDYHPR09dLc2MILf3uFizau4Y4ffpumhmb+73/u5Y3tbzJ/0VwUWZ2OrDhSyS1fuZF5C+fw3NMvsGP7mzz5yFb+6V9/FPaMgb5Bnnv6RWqq6rjp1uvZtGUjZfsP8fD9j/PKC68xZ94s5i2cw+5de9n78QEWLllAc2MLLc1tLFo6n5SUpNMnnM8YLqeTPR/tx+lQR7EXLVvARRvXEhsbw+dvuIaiknys0dHc94cH2fbMS3z0wW4KivLxerwoikJrSzvf+f43ycrOoKuzi1dffoO1F6/iH3/2PXa88iZ//uODrNuwhkVL51NVUcPnrruSwuJ8omNiePDeh3nu6Rf5+MM9bNx0EV2d3fzhf+5l6YpF3PaNL1FUXEBPdy8P3/cYRpORf/uPn5GYnMgD9/yFt3a8y5JliyYRwGu+eCU9XT3sfO1tyvYf4aKNa7jmi1eybOUS7DYHf/q/BxgbHeO/7/o1eQV5PP3oMzz5yDMsWDRPzUuKoK2ljfUb17Lyy19k7YY1NNQ2UVVRw+GDRykpLeLo4Qq6u3pYe/Eq4uPj8PraBgG0Nrfx1weewGgwcMcPvkXujByaGpqJjrHy9s73eOPVt7jyc5fz5a/eRG9PPz/8u5/w8P2Ps27DGhI0AnjSCFTjAfI1PQnUG3TklkaxYH0CjeXj7Hyik8FuVQk0MGs80U4gnBAJlCSIjNERn2okMctI9iwzmSVmDEYYH1ToafRgMEnMWGiidI2ZwTaZlqMe+lsVxvplqt53Mdqj4HaCc1wc17ZxZyUBVImUMu19p9PJ7l17iU+I50tfvQlrdBTRsVbef/tDjhwqp6GukZGRUbq7erj62i1c9fktGIwGmhqaaaxrAsDj9VB24Ager4ex0TF2bH8TRZFRFIXKo9XTPruro4sn/roVo9GA0+5kyfJFbLp8IwmJ8dOGue0bt3Dl57cwNDjM+2/vYt/uA9RV1xOfEE99bQNx8bFUVdQgSepapPa2DoYGhjie0X29Xs/M2cV8+x++wfjYOG0tHTz+8FMM9A/Q2dlNY0MzBqOBtpZ23nvrQwb6BwF1NNFud3xqBBChjqIcCy1NrbQ0tnLxpeu4aONadZoceGfne1QcrcLpcHJw3yFkr8ytX7+JFauXMXf+bMr2H+bAvjJAnWotP1yJJEl0tnfxoeNj+nr7cXs8dHV2Yxu3Y0qYXGkajUYSkhLQ6XQsWDyPxvpGnt/6It/5wTdP+dXrqusZGhxm3YbVXH/ztXi9qrHQvR/tO+W4zxQEofKaOiM2N7bQ2tzGpVs2sm7DGlLTUlCE4O2d71F+pBKn08WBPQdRZJnbvnkLK9csZ868WRzcf5jDB48CMDg4RMWRKnQ6iY62Tuw2B/19A7jdbro6u7Hb7JhMscefaEnC4XDQUNeEfdyGw+Fk9659DA0OIcsy7W2dDA0MBYLMXzSXm269joysdEDw9hvvcujAkUlRjwyPcPjgEXJys7jims2UzComNj6W/XvK2Lf7AH29/axat4LtL+7g/bc/5As3fo7339mFw+Hkmi9ceUbMTn1W8Hplujq6Ax3R+MQ4lq9ayqKlC2hsaKa9rQOXowWvVwbfEg9/fW4wGPjS7Tdyy1duBODQgSPoJAnZKzPQP4jdbkcn6YiLjyUmNoYFi+cRGxdLe2s7LY1teNyqGazujm51yY5vtD0rO5P1G9YghODQwSNUHq2mqLSAhvomGhuaGBsdp6e7l56evknvc/El64iIsLD9hdc5cqicpx59lj0f7+eeh+4kPiGeg/sPk5KaRFtbBx3tnQwPjzA0OEx7WwfzF80FICcvm5tuvZ71G9cgSRJrLlrJO2++x673dnPV57fw1hvvIisyn7vu6rBnC0VhoG+A+toGLrvyUq76/BbMFnWpj9cr89Jz2+nvG8Bhd7B7116EAI/XS3VlzSfWpxo+AT4FkLA1gExNAk0ROuavT8TjUjjwVh/9nc5wbV4RqH5OmAQajBLJ2UYSM0ykFZjImW0hOkGPbVimp9FNd6OHjio3wz0KlkgdaYVGsmaaSMgwMH+TBaFAT4OXtgovIz0K44PKce8dfFYSwLi4WCwWCwN9g7hck9dKOR3qgmCz2USUVV1fYdAbsEZbURQFl9uN26UaZYyMigzYYjNbzOh86z/cbg9OpxNFVvjog92BUaEtV28mNS1l2rRZIizk5GaRl59LTl42q9YuZ0bBjGNqFCckqqYudDod1ugoNY0uN06nqqTQ0d7Fu2++D0CUNYotV20mIyudro6uT/xWkiQRGRmJ0WhAp5MwGA0IIZBlBbfLjdPhYmhwmAN7y6iraQBg+colzF0w+1M1PyDpJFJTk5FlhcGBITwez6RF2S6XC6fTSZQ1KpA2qzUKg9GAbdyOEOrUkxCCpKQkX7y6MBLr9crYbTacThd7PtoXWGS+et1KSmeXTDualDsjh/+881eYTSaOHCrny1/8Os8+tY3PX3/1lP5PBGPj40iSREJigmo2SKc7ZQ3xMw2dTiIlNRlZlhkaGMTr8U4aBXQ6XThdLqzWyIDJDGu0FYPBgMu3mH183I4QkJwclJc1VF4eL3abHbfbze5dewPyWrN+FSWziqddixsKVbt8kL7efhIS40lIjOfooQrcHg8NdY14PepoS0amutQgKTmRocFhAGJiY9D7FDSio7OpnowAACAASURBVKNBkqasc7yyjG3cTmJSAlbfGlyLxYwlwozX60WWZUpKiyiZWcjrL++k/HAFH7y7i6ioSJavWnpeLdqPiLRw0SVrufaGawBISU0mLj6Wj97fw5OPbMXlcpGYmEBzUyter9e3REYNK+kk8gryAnFFRkWSnJrEgb1ljAyPMjI8woIl81i0ZAFCCPZ8tJ8n/7oVu91OYlIirc1tPvuMqsLNRPiVNVwuFwN9g4F6FWDLVZspKMybFEan07Fq7QoWLJ5P2b5D/Nev/pcjZeW8/spOPn/9NbicLsbHbLz35gfBuK7ezOy5MwPXCYkJxMbFBEjBkuWLSEtP5eC+Mjo7uvjw3Y+JjYlhzfqVYc9WfApviqIQGRkRmNKVJAlFkXE6XXi9XiqOVgU67wsWzcNsNgfKioaTR5gSSGDEbzIJNJokCubGMDroobZsZMp1g4pQXaYkgQHt4HA7gXqDIHeuhWVXxJKUbcTrEvR3eGgsc9BR42agzYvRoiMpy0h6oQm3QzDUpfBxuQ1rop7MYiOp+Qbi0w2svCGC8QGFtnIvB19x4Rz/ZBJ4VhLAmbNLSE1Lobqqlo8+2ENKajLRMdGMDI9w9HAli5ctJDIqktGRUdpa2snJy8Zms9Hc2EJERATJyUl4XKrGYXdXD8NDI8iyTE93Lx7fGkCT0Uh0tBW9Xs+tX7+FgqIZgcJrmkZbDNRG5MtfvZmLLll73AtwDx88wuq1K3A4HDQ1tmAyGUlKTsRoMhIRGcHsuTP53k++izVabRh1ko74hLjjIoDHQkREBFHWSFLSUrjp1utZuFTVjlRkhbj4uLCG+ExDr9ezZMUiDAY9tVV1vPfWh6zfsAa9QU9XRzdjo2MYDAYioyLpbO9icGCI+IQ4mptasY3bSE1LxWA0EBsfhyRJHC47yvxFcxkeHKaluTXwHKPJSExsDPGJBm792s0U+8zCCEUQGxc7LfGSJAmT0YjJbCIhMR6DQY/X68Xt9qDT6TCbzTidLkaGVRtoHe0dx/3u8QlxCCFobGhmfNyGJEnUVNae2gc9wzAYDCxZthC9Xk9NVR3vv/Mhay9ajd6gp7O9E9u4HaPRQGRkBB1tXQwNDhEXH0tzQzN2m42MrAwMBgNxCbFIksShg0eYNXemT15tgeeYTCZiYqMxW8zc9vVbKCpVzcIIRRAXH0tkZMQx0ymEoKmxhScfeZaxsXFWrl1OfkEeZfsPYzIZWblmObd94xa1gybAZDYRGxcT6Ay1tbQz2D9IckoS1ZW1KLJCekb6pOcYjQZi42IYGVbrnMzsDPp6++nt7iMuPi7QaVm5dgUfvb+Hpx57lqryatZvXHfS5knOVhgMBjKzM8KWybhcbl7fvpM9H+3nBz+9g/Ub17Dt2ZepqaqbNh5FURgZHsE2bqegaAbFpYXEJ8azas1yZs4uweP2sPPVt/j4w738/Y++zcbNF/HS89upq6kPxOEn1jafFrckqZrFUdYocmfk8A8//g4xsaoZJp2kC5wH0u10UV/XSE5uFtZoK6vWraC4tEjtQLhUjV9rdBSJSQnc8cNvEZcQF3iO1Wqltnrq90v2KYxVVdTw/NYXaahrZP2GNSQmJQQ0ztX0S0RGRmAwGOjr7aevp5+klER6u/sQQhAVFYnJZOLSLRu5/MpLAwRRr9MT7euIaDg5CN+Pejw2CTSYJGLijXQ22hgd9vhs8U1NAiWm3jYOoaAovjzru2kwQ8HCCNILzdTts9F4yEl3gxu3Q5CQYaRoqYX0IjMZxSYiovXIbsFAh5fOWg99rTINB13UfuwiMdtAZqmRohUmSlYbqd/jxjkuPnEk8OwkgHNKWb9xDY8//DR/vf9xGuubSEpKpKurm+bGFh595kEuu+ISXt72Gv/323uZv2guDfWN1Nc2sGrdCmbPm4ler2NGQS4ff7CHe8z34Xa5OVJWjqKoH95oMrLu4tXUVNXx0nPbWbV2OXq9nr7efvIL89g4nZ09SS20J6J95V8nNTIyRlV5NaWzSpi/cC6jo2PMWzCbmuo6dmx/k+zcLGxj45jMJlavW/nJEX8CMrLSmDWnhBef284H7+7C6XCiCIXenj42Xb6RguIC9NNM751u6HQ6Zs+dxZZrLmP7i69z12/v5uC+Q5jNJpoaW8jOyWLN+pWUzirm0MEjPPrQE+TNyOWjD3YzOjLGLbffRExMNGsvXsUb23ey9fG/4bA7aG1uo7mxNTBdnpiUwLJVS3jt5Td48/V3GBwYwuv1Mj5mY+WaZcwK6bWHoqerhwfvfRidXk9leTVOp4tLLttAZlY6siwzoyCX+poG/vA/9+J2uzmw99BxjU4BFBblkzsjh4baBv74v3/CZDLyzpvvn9U9eL1ez5z5s7jsqk289vIb/P6/72H/3jJMJhNNDc3MyM9j+eqlFJcWcXBfGY8++CQ5edl8+N7HjI2Os2nLRqzWKNZtWMMb29/iqUefZWzMpk7zN7UGRsyTU5JYsmIxO197izd3vMtA/yAejxfbuI3V61ZMqwTS29vHn+56AI/HQ31tIx+8+xHzF87llq/cSHxCPCUzi0hISuDQgSNk52YRExPN8PAomZlpLAtZX1tdWcsD9z5MQVE+21/cgRCCK66ZbJctPiGeFWuWse2Zl3js4aeoqqihtrqOmuo61m9YS75vVGv5qqVkZmdwYG8ZXq+XTVs2TqvJfL7Bb+ZloH+Asv2HKT9ciTtE6W4ihFCVLPwGpRVFYXR4lN279uL2uCkpLUbxTdENDgxRtv8I5YcrwzTok5ITEUJQtv8Qf7nvURYsmkdKajLLVi6mpqqOV1/cQX5RnmoiS4JlK5dQUJQfCD8yMsqjDz5BZFQkaempeDxe9u85SExsDOsuXo012sr6jWv58N2Peen5VymdXYzbpZoWW7h4/lSvBagEcd2GNezY/ibPb30Rp8PJFZ+7bJI/naQjNT2FBYvmUnm0mj/87k+kpacwODDE2otWqdrwGal89P5uIiMjiIuLZXBgiMSkBDZfeQkW/dlbh5wLCG4FN3EHDwglgXq92sA4bequG6ol6BPbNm5KEigEOj3YR2QOvz1Gb4uHnJkR5My2kFFkJj7VgG1Epq3CxVCXF4tVR0qekXkbI3DaBD2NHnqbvDQedHPgFS/WBB0FS03o9CJo7+8YJPCs3AnEbDaRkZ1BTGw0w0MjVBypoq62AafDyep1K1i2cgl5BXk4nE6qK2upLK+ir7eflWuWc/0t11JUUoA12orJbKKlqZX62gaMRgOz5swkIiqCNetWkpuXQ3ZuFkhQVV5DVYWqZt/b3UtRaSFFJeEGam02Oy1NrVitVlauWU5aiC0+PxrrmxkeHmH9htXMKMjj5edfpamxhY2bL6K6oobKI1WUzCrh5q9cz+JlC7Fao0hISqCvt4/Ko9XUVNbS3NRKZFQkM2eX4PXKtDa3UlxaxJJlCwPrWwqK8tm0ZSOjI6OUH6lk/sK5rF6/EllW6O7qob9vgOWrlrBg8Xzi4+Nxu93U1dRTcbSaupoGRkZGWbR0ASmpyUif4hZXRpOJgqIZqumOvgGOHq6gpbkNi9nMijXLWLpyMQmJCYwMjVBTVUtVeTWyrLD5ikv5/HVXkZiYQHpGGna7g4ZalfBHRkay9uJVeNweLrpkHTMKcklMTmR83EZdTT1V5TU01DXidDqZObuU9AmamA67g7qaevR6HZ0dXbS1dKCTJC6/ahM33Xo96ZlpGAwGjEYDzY2tNDU2ExMXQ+nMYmLjYli8bCFZOZnU1dRjtUayfuNaEhLj2b/nAJaICL544+eIT4gjLj6Wro5uKo5WYbc7WLBoHrHxsRQU5U+p8HM2wGQ2kV+oyquvr5/yQ5W0NLcREWFh5ZplLF2xiPiEeIaHRqj2yUsIhcuu3MTnr7ua+MR40jPSsPlMZTTWNRFljWT1upXIXi8XbVxHXn4uickJjI8F5dVY14jL6WLmnFLSMsLLmd3uoLa6HqPRSEd7Jx0dXZhMRi6+ZC3X3/IFVqxeisFgIDommuhoKx1tHRw9VEFtdT0d7Z2kZaRSVFJIW0s7u97/mLSMVEwmEwf2HUL2ernq2i3cdOt1GE0myg9XYjQa2XzFRjIy00lOScbhcNJY30TF0UpGhkdZunwxX7zpcxQUFwSWeLS1tlN5tJqExATu+NG3SUiMPy/MdfjX/g0NDrN81dIwjXq9XoeExNDgEA11TXR39pA3IwdZllm2cgnzFs6hsrwa2Stz5ecuJyU1GSEU2ts6ePP1d9Ab9CQmJtDR1sn7b++is121VpCSmsTQ4DCN9U0BM1ZCCJasWMT8hfOIjY2mr7efro5uurt6KJ1VzKw5paSmpzI0OEzF0SpqKutoamjGYDBQOqs4bERWCEFTQwsH9x3i0P7D1FTVkp2bxc1fuZ7NWy7BZDaRlZ3J2NgYFUeqqK6spbG+CdkrUzKriGirldaWNuIT41m+agmJScGdbeIT4mhsaFbNexXn843v3k6UNQpZUag4UonRZOLSyzeSmZVBUnISfb39VB6toqW5Te3IrlzKzDmlREZG0NzYGjAF097aQUZmOrPmzsQ4hXKWhuPDcI+H+gMOxgbUbTzDFt2HFVeJiCg9q69KZ2TAzYG3+4KejmPHkDBM2ATEaNYxY14ksclGqnfbiIjWse6meDKLzQz3eKnd66DiAxvVHzloKXfTVe+mr8XLYKeM7BWkFxrJm2/CZRd01nrImW0kMdtA3W7fDicEd/7wk8BguiQkIYToH+rBIY2c4Oc78xgZGqG1pV213ycU4hPjyS+cQUxMNEIIOto7aWlqxW5zEGWNJCc3m4ys9MC0wODAIA11TYyPjZOankJsXCx9Pf1k5WSSmKSux+rt6aOpsYXR4VH0Bj0JCfHkF+YRExtuqkO1OK+uP8mdkUPMhN0dQJ1O6ursJr9wBomJCXz1pm/z9s73eODxe4hPiGN0ZIyUtGSKSwoDa9wcDocvXA8et4eoqEgyszNIy0jDbrPR1NBCbFwM2blZeL0yRw+VY7VGMWvuTMbGxqk4UklSchKFxfnIskxvdx8d7Z1kZWeSlpGqTn139dLS3IZt3IbRaCApOZEZhTM+cXrtTEBRFIYGh2lubGFkeBSDwUBKWjJZ2RlYo604nU7aWzvp7OjC4/YQGxdDfuEM4uJjA3Lt7uqhprIOr+wlOyeLhKR4mhtaKCopIDYuFo/HS09XD60tbdhtDkxmE6mpyWTlZhE1YQrY4XBQU1kXWPel06nTROkZaYE8IIRgaHCY2qo6nE4XGVnpRFkjGewfJDU9lbj4WBrqGnG7PRQWFxAVFcnRwxXYbXYWLV2A0WjE5XJTfriCoaFh4hPiyMnNpre7l4jIiLN6Wz9FUddstjS1qvIyGkhNTSYzOxNrdBROh5P21g46O7rxeFR5FRTlExsXG9DM7urspqaqDkVWyM7NJD4hnuamFoqKC4mNi8Hj8dDd1Utbcxt2uwOz2URKWjLZOVmTpuwddgfVlbWBkSWDwUB0tJWUtBTi4oPKIkLA2NgYzQ0t9PcNIBDExESTk5dNcnISr760g9/++k4WLJ7PzV+5AYfDgdFgoGRWMckpSSiKQm11PeNj4wGba16Pl55utSzZbXaioiLJmZGtLk8IMfT8wD0Pc+9d93PxpvX823/87Jww+3M8kL0y3V09dHV2k5mdQXrG5M5UU0MzPV1qvp5RkEdbaztp6alkZmdQV9PAQP8gc+fPwhptZXRkjEcefIKtj/+Nr3zjS1z5uctpqG/k/rv/QldHN//0y39k5ZplNDe00N3VgyXCwoz8PDraO0lJTSYzOwOdTkdbSzsNdU0YjAZmzi4hMSkBt8tNW2sHne2duFxuIiItpGekk5mVPmntc3/fAK3NbQwNDqtrX9NSKCzOD6xrlWWZ9tYO2lrbcTqcmC1mUtNSyc7JRBGClqZWJFRFkND1yEIIaqpqGRwYIioqirkLZqPT6dS8VVXHuM3OzNklREVF4nA4aWlsoaurB4NeT1ZOJplZGZjMJoaHR2hpamWgbxAhBDGx0WrHyae0puHk0HTEwev3D9JZ50LdPk0KaPUGz9VjbJKF7/1uHooieOAXVUENYJ/2rupPF+IWDOs3ETPxnk7SERlj4JIvJ5M7O5KX7+khwqrnqu+m0FLh5KPnRhjpk/G6VJMtUkgcOr1EdLyB3LlmNn41htrdLnY+MMa6W6yUrDLz6l3jdNXJgS3gAtu/+Z4dOD+bCeC5jttv+BZv73yPx557iHUXr/6sk6NBgwYfXtn2Gr/99Z0sXLqAn/3qx8dU/DoROJ0ufvSdf2LHq29y159/y6Ytl3yiGZsLFWNj4zz20FPcfeeffaOEs+nu6mHPrv3MWzCb7//0jrDpWg0aTieaDjt47YEBOuvcYURpKhIYGW3kytvzWLE5jZ1Pt/Pm0x1hhOxkSWBUjJFLb00hd3YkL93d7SOAqZS/P87bjw4F/AJh8fn/k7KM3PzrJOr3Odn5wHiAAG6/a4yuWjnwLtORQG38+Azi4kvXERsXM6mnrEGDhs8WMwryuOzKTeTm5xARcfpGwsfHxikoyufm227wjf5qVex0iIyMYMvVm9AbdDTWNdHV0Y3JZObm265n9fqVZOdmf9ZJ1HAew28D0L8GUEIE1+xNWBPotHs5+G4f81YnsWRDMl3Ndip2D00yFn2iawKFUIJayALffsKhBqr9yZl6x5DQ6NR4/HGFajcH323imkCtdjqDuOraK9i4+WKSziMjsBo0nA8oLM7na9+5DZPJdFptYcbExvCl22+AELM/GqaGXq8nJy+bm2+9gdHR0YCpoejoaKzRUdr0poYzDhGyscKxSKAsK7TXj/PW1jauuD2PK76SQ1ySiYPv9uMc99ssPnESKEJ2FQglfGrajmPbuDBG6Uu78JPbkHRMQwLPOQLodMHv79epL6qO06rDmZL6H1zw6D/3L9SceJ9gOJ9/9RAeRgqE9R0JHqVQNyl4L1jnZwTSHXSbuFh0igZiQqMxlbc7vtiOXjfN1hNnMWQZahpg2+u6sCHpSTIKDJn73SEwjC1NIR81oqCfQLBQGYf49cUpER6/P57g5w6Na7LbhJMphTXRSZIEOakuPrduslHacwndvfDORxJNrSHlD8LL0gR5Ti5X4WWWieGnChPql1C/hMlEmiQLKTyo323iddjpJKmHeUmM9bBm3gh56er2diaTkZTTNJ18PkD31u+R+uqRkAEFSRf+HSUJIoDkMFELJESo6INF3ncNE7OAHL6Gf4oiP1V2mFj7SsggeUK9TF1FT+Me7kHF8Pyf4k6YB5JGaM86TDQEfQwS6HR42fd2L+jgkhuyueL2XBZdnEx77Tj9nU7sYzKyLALTtP46KPRchy+jA2NDMkPd7hAuJ4LnAUJ4bBLoT3vQnqEIj+sTSOA5RwCFgPomnyHDABnwkUCdv4LXhTU84QSR8DBTNFwTyeNEohjmlykaMH/jM7EBCWt5jkEiwuIK9RJ0UxQ4FzcXEALGbdDQ5Kvg/TV7QF46nyyDBIKpZO0PM5UMQ/1MkmHotXo/GM7nH0LiC3HjWDKcXn7hXiR0ksBsPPfI+0Q4XdDZDfVNvrZtgkzCZDZFB23Kssn07lMRxWBZDJGrLxq/TMLJ4YQySojbVGVxovwnuLvcOuzOc7Agflrob4LOClSC5jPerAt+1ol9A/VcJYCSJIJ+Qvz7TsPjQYCkanNO058IPCPMbcK5eu0B3NPenxjXpFsTbujcI0xltFrDZw0/SQpOvQJMRwIVRWF8xM3Hr3bTXm9j5eVpzF+TxIyZ0Xg9qnmXUEsywfgmPldCkQVVe0bZ+Wi3mhLhn45WgmkK3aJuGhIoUPyvEv4OgVFF6Zgk8JwjgKB+mIApHl/lISSQFECSEEJBCpk+8A8WqucSkv/jSSAJf3i/uyps4Y9bSAhJ+Pyp9ybXCP4nBI/qcwg+wJfuIIHwP5jpa5JJ6T8Oz+cAhFA3lJf8MvDX/L7KHwlQfN/dL18xQdY+4U0tw1A/k57OlLJCTMgQvv0SjynDqeKd+joYjZrm8wVqpeWro8LkA0IXKhtC5O0X6BRlMPBtQudCfLIWoWFDZeSvKH15JlCu1Iinlll4rTCt7CbK338WzCYajgEhBJJ/nZMkIUkCIftIoK/IEZI3YKJUgs1aeKlV6/tAXguQfyU0e0xbZQfkGMyKQZELg1of4J7yvj8Cf5Mw+Z2n8K/hLIU60iaJ0JzGMUmgw+6h4egwHQ3jvPFkGylZESSlWYiMNmIwhBItCHRKfdf+XwH0NDnDpqADo3j+6zC7hFOTQOFni/hH/YLvELD5dwwSeO4RQHVyO1AAYYpqXJLU7Yd0usmFnBCiQEgDFOrub1yYmgSqGSZwM2BU8cQJRCgJnNAITai1QgnEOV+zhMgvWKkrCEmnVub431Dy92GmkKGP4CGmliGhsp1M4sNkfdIynEjipycOYU7nE3yVUGjjDMEOWYAEMkHe/pYZwuXn9zNJjqdGAoORH6MshnUYjocEnm/CPAMQwXKrfi4dkqSoxnT9JNDn1Z831AsppC7wdZqCIg7EF7gWIND5qsxpSGBI2En9PSZmFaPPn3vaKhqYWE2HvvZ5UVWf71CbIjXXHS8JBHVNoH3Mg9Mm09fpQK/TIelUbV8JCUkXorELTKUdjJCIiDKEpCWcvIWtCZyOBPrJX4A8hsYlgvl/GhJ4zhFAlf+FvKjP/VMlgUi+MKdKIEJSfMIk8NyGEGKKHr2C0J3/JDCwUvc8gL8shpN5372TJIF+D6eTBAbDcHpJ4HkixzMGEeTJQXF/MgkMdgLOfhLIVG6E+NdwdkIlEz59ghMngUiqnVRJSIGZjYnmX4ImYsSUJFBWFNxOGZ1O3W9YCKHuNKZXZ8km7h08iQSGrD5RlUbUc0Xx7wQSkv+nIIHn4OIV4ROar2bxnU+8DjQsvu2J/I1umD8IOZ/C3XcMLK4UTO8vkEn8tVlI+MBlMGOFLTwNY7MTaowJowxTeTknESKnsKOiBL5xUFYcQ4YiWJCnko3ffaL8/Gnw+1MdTlKGIuwQJqApBHbeyNDf+5xKjqHfXpkgm9CjGkGY/ITil9dUZVR9blhY3zEoyxBZB5IZGiaY9kD6Q98pTDbTy/K8EOEZRqA4hRc7hFAXjQplCj9qlvGJQh0pEUIKiCZExIH4QousGrcueC/k6E+UmHg+TRUsMAKmY1fRU7gdzz0Nny182QY/CQwqXhDgFEHFjPDr4LnfXZkQJuTcH/cUfrxeheF+DwaThDXegMMmMzroJTbJSEySXt1ecdLzlED86YUmdHqJ/nYPAkFUrA5FEdjH5IAfQo+gEkWf2zlIAJnUkHwiCRTnEAmcdB4a/5R3z0FMQwbOJAmcSn7Aqcow7J3Cbk1PHM4b+FvjkPKlkUANYRAh4ggvdkESGFLUxAT/qihOHwkMKeZhRTWsqIecq6enRgI1nM0I1hlnjAQyPQn0uhV62xwYLToSM80M97ppq7GRnG0is9ACCB8JnBivgqQXzFoVBRLU7LGDBAmZRjwuwUifNywNhB5RRy7hHCWAUxK9Y5FAPzk4F0jgVAQiLP5zH/7C82mTwEnE4DSQwOlHcsNOJsv91D7hWYNABXMBk0AN02MSmQsvdipRE1OTwPAi+1mTQAMqCZSmvD+dm4azGyLQZviOvvritJJAZXoS6PUqDHa7cNllMvIt2Me8NFfYiIo1kL/AiiVahxCKOqVLeLwFCyNIKzDTWu5ksMuNNV5PQoaB3mY3XrcyKW2EHgFFnKsEUJmO6E1PAic1SqeLBE5soFSPx00gVOfpGp6JNcx5Ursch5w4AyQwNNzZQALPdYR+13OLBIbI7LjLYri/802WZwo+CfhFSIjo1fsCzg0S6F8yb0QjgecHROCPCe1E8J6/vTmTJNA+5qXx6DgJ6SaySyJor7VRXzZG0UIrc1bHYLRICIIkEARxKQZWfyEeEHz84jCKIpi5KhKhQEOZIyQtxyCB5yoBPBaBOB5ycVpJYEitdrIEQnWeruGZWMOcB7WLr+Y+lpwC7ucjCTwPRBjAJFmeZhLImSCBE2R23GUx3N95JcczBR9hC6kmCRG96kXAmSCB6M1I1gyISAGdKXiP8OdrJPACRiixC2sn+NRIoG3UQ+XeYaJiDMxeFcvIoIeyd4Zw2mWWb0lg/kVxJKabiEnUE5tsIL3QwuXfSCEh3cjBnaO0VjqIjNOxaFM040My9fsdE9IyPQk857SAgWAF7rucpAE8xb2oCB3xsQYsZh06vd8wrc+HXy1b8p8T0L4NGoSeYBjYrzk4wf+ka/ymaUO1CyUUwOWGERvYnP7Xmk4jMfTNCKm5zmWIYGXLZBkKIC7GQGK8IWBbSSDRMyAzbld9CU5OOzjwNUM1RgWnrB08SX7TaQefN61DKKEOlaWC8Nm8D5XnSWkH4xOLAnoDREdKRFh0mI0SOp2EwSAhyxKKEHi8Ek4P2BzgkZkgS4KyDmSYEJmFyBGOVRZDU8v5I8ozBD9h811MyhMQqlgp+dxVj6HawX4cl3awIQIpLg996hz0uReDcwi55W3EUDXC1oWQ3eHKnL7wx6cdrJJA1Z9H1TAPux94Vc0MzLkCP6nztw+BdiLYeJyodrAa7xRbwikE8hG+beM8bmirsdFcOU7hgmhKK23UHhjjg+d7WfO5ZDbenMLARS6Gez2YInRkFEYgSRIVu8b4+IVB9CZYfW0c1ng9728dYnzYG7ATGFbQ/GkQweSekwQwtIf+SSTQoJfISDWyfH4U80stJMcZMBqlkEBTlNAQ0yvHLr/SlKdB0je1dyHAK8PAiKC8SXCwTqGzH2TlBEjgOQ6hCFWF/RgkcN2SKC5ZHYM1Ui1Esgxv7bZR3+ZWDYEHSDvhJJ7QazXmUMIfJOghjfp0xD00j0gSigIDo9A7LNQh+ZMlgecDifcNvwghpuh4nR4SaDFLJMfrSYjV0cu/XAAAIABJREFUExutozDLQFqinlirDoNeIjJCwuECt0cw7hD0DQuauxQGRwWjNvV63EGwh3DaSaAIeWsNk+D7PIHG9JgkMNBVPikSKBmt6JNK0afOwTjzi+gSSxD2ATCYMBRdg9z2HnLzDkTfEcRYO8jOT4cEajhr4RsPC+az00UCA5h6X+DAhY8EDvW6+PjVPq75djarr07G41KoKxvDNuJl/rp4EjPNJGWZEAr0tbmo22/jyHujRETpmb06hkWbYmiucHDgjdEAPzoeEnhOEkA/Y5/c6ASv/ec5GUZuuiKeucUW+gZlega8yEpoqVdDhnPBqQnilDtATHALko5JHsMOep1ETBRcuVJHcbbEc+8rNP5/9t47TI7rvNd8K3ScnpwDwiAOMcg5B4IgGERSFJOSJVmWpbuOu967d732ru37rOxry9dr6bFkSbYoS5REiaIpBlEkSJAECJAgCAIgApEzMDnPdO4KZ/+oqu7qnoAZABQx4PweDLq66tSp6vPVOeet76QW2+txy0Og5TVypjQaDgJnTvEypcbL6YsJVEVi1lQ/n/1EIbG46Xqer5IeuTYc8vgo4rGl63D8osm2fQYXWgWafi0QeAtJCKtJVx4qP147BBaEZCZVeZg+ycP8WV5mTvIgSRLJlKC6TEFR4OwVndYug4I8mcZ6FUmC7gGT1fNAlSWau0w+OG9w+opJU4dJdz8YQtxgCJzQSHKaY+21dj4UCMRXgFq9AKVyPt7bHkQumorZfRrt+H9iXN6JFChGrb8DuWoJyuQNmK37MC5ux+x4H9F3DqHH09f/MCBwQje37Fr3xkNg+uG+OgTqmsHFY2HefKaNjQ9Xs+V3qjm0o5dLJ6LsfLodRZXx+RUMA1IxE19QoW62n8bVBTSuzafpZJztP+oiHtaRRlg7OPcexiUAOoR7NQjMz5PZsDTEvFl+9n8Q45W3wlxp063moZzm3uy1Sl3bWR4kybVNJhxOfA4AOnE452buzKlMVFWiskRi00KF5XNk1s+X6Oi1vRXc2hCY1WzoLCHGYBsCRKIGP32+h7yAzJ9+sYJw1OTMpSSGPeelokjMrvcxqcoDWF7C1i6d05c1dN1OqyFAPj8o0VCvUphnTRxrGHDsgk57j5mxqXM39pfCkMTsyTJrFygU5Uu8tFfn+AVBLDlWCLzFJAQ4IOfssj9HDYF2Mgf8MtPqvCxp9LN8rp/CkExbt8GRMynON+vUVaiUFfs5eVHnyVfinGs2qCpV+NQmP8sbPVxsMTh8VqeuQqGsSGb9QpVNS+DoOZODpwxOXjLoDVvN+jcGAic0kkT6vxsPgXJeOWrNItTqRXhn34uUX43Z9j7JQz/COPMbzK7jYCRAkjAuvIZStxpl6iaUqiV4Vq/E7DyCeek1zLYDiK4PEEb8Q4HACd28SvcftY39UUJgLKJxeFcPhgHLt5ax9pPlzF9XxOWTUbpbUmhJgSRLFBR7qJ7up3ZmAGHCqX0R3nqmh45LKbv8Gn7t4FwIHNcACCNDYF2lh4bpPprbU7z0Zj8nzidxoM0NfQCSLA8BeVLauJntIfaDCx4Bp2JJQ6HrprBPSUI4JtB0KC+WmF4rUVsGp65cpeKx4x/vym02HNKGlnOJRNJEVaw8dehEnB8/30tKA59XYv2yEHVVXqJxk3NXNGoqVCJxwaGTSQ6eTBKOkraXA+i1FSprF/qYXqdyuc0gmhBMq1HoGRDsOqRx7IKZgXob4EsKZLYsU6krl+kLCyqLJR7dpLI9ZLDvhKA/OgYIHP/mS8vpKC0Jrg8CgYpSldULg6xdHKSsWOFSi87O/XE+OJuiqcMgFJT5s88X0jtg8tOXoxw5qwMSkZjg56/EKS+SqSiROXPZYNs7KcqKFRqmKMybrjJ7ksKcqTIHTsrsPmJwsVWQ0smBQIcFJyDwRupGQ6BSNAlP7RI8k5bjmXEHsr8Y7coejBO/Qju7DdFzGkwt8x4uBGa0C3H61xhXdqNUL0WZvB65ZgXqsv+K6DmNcek1RMcBzJZ3kczEBAR+HGQ/mFb5JaUh0P0g/rYhMDqg8f4bXXRejtOwvIiqqQHqZgWZvbQAb0DBNASJqEGkV+fcoQhXTsY5tS9KtN/MPG4So4bAcQmAQzUBDwUQRfkKpUUqR0/FaevUME2R7jKWdZ70YS4blxOO7EEFPf2Cy+0my+coFIacC49Q8Tgl0HiWyED8SDa0A9qjmKw9hiFIpUwK8xXuXFPA3evyEcAz2wd4/0SShQ1+1i0J8siWEKWFCrveT9DSaYAkoSgSc+o9bFnpZ+ltXs636Ly2L0XPgGD9Ii8bl3ipKJbYtlfj7aMammaZrLxY4q6VKqvnKlxqN9n5vk5+UOLOZSoPrFUpKTB446BJZ9/QEAg2VNxqLkDHkytcg22uAQIVBerrvNy7voAljQG6eg2efyPCwRNJWroMdMNKv7vWBJhWp/LcjhgnzmuZMk5Aa5fBr3cn+P0Hg2xc4uVsc5yWToO2LpNDpw0apymsaFRZ0agwuVLmtf06B0+bRBNuCIQxLxs3oZHleFicFx/5+iBQLZ1OYMXX8M68A0kNol3Yid5yEP3C65h9F0DoVtlqR2YXx9anEBDvRb+wHaPlXZSK+SiT1iLXrkBd8ieI/gsYx36CcfwnFkC6zp2AwFtbbghMg5wQFhP8liEwlTS4cDxC8/k4RWVeiit9FBR7CeYrmDpEBwzC3Tq9HRrxsLWUjiTJyLKcc72rQ+D4BUDHOM4uBlc6qgIeRSKlmei6mYY0csL+ViDQdR03BBomaDooEiiyu+C4CgSOd41kC3IcZSLzTSBonOnjjlUFrF2Sx9nLKV7aFWbv4TjxJFxu02jp1Nm6Oo971+dRXa7wyp44zZ0GCxt83L06QG2FynvHU2x7J8G5ZhPdgNZOg/Yek7tX+/j8Vh9VJTJvHNRQFYlPrveypEHlxEWDF9/WONMk8Hkl+sJwzyqVzUsUikISL+01aO4SmOJqawffQnINArkWCFRVidum+XloaxHT6rwcOhnn9b1RTl/WSKbA8awXFSismOtnIGKy+/0EKd1qNxb2qDpNh2MXNM43GzRMVZhaJXPmiomJoGfAZM8Rwflmk+WNKpuXenhoo4eCkM6bhwwiseuBQG45k95IOe8IziB6p/4bGwTaFSsmntrl+G67HzlUjhnrwYz3oF3cjdF9zn65l+x4hhgdTKZMF8kBjCtvIeJdeAIlULkIuWoZqH6Mk0+BqbnHDV0fBE7oJlVmihRJkgZDIBKYmS5Bv00IRJikEtDZnKCrJYl7fWHZ1Urp/CFMTBP7mDvekSFwXAKg1YeMbGBjOC+SUwiJtCFGA4H21xsHgU4fI9IHrX5ILrjBfuvI9SI5vzkbAsensqFuBFu4D7ps1zgzwJwZAWbX++juNThxLkEyaTJ/tt+KR7JG6p69olFZqrJucYCKEpWOXoOGKR4qShVOX9K42KJTUiBTFJLTGbyz1+SD8zpr5nl4YL2XqdUKphAsaVDpiwjae0zKi2VKC60R26oC51tMKksU1i9UKAzB828ZnGsW6ObVbHhryHlTTlfeY4BARYFZU3187hNFVFd4eO2dMK/vjdDaZdgvSFL63MZpHqpKFd45nKC7z7DmBnTnQSAcNXn7cIov3Rtk8WyV01eSSPYNGSa0dJls36fR1WfywDov966yKuw3DhrEhvEEWvcs3ZJ58bciJ+u6YGrsEAhWaBn8hSArpM69gVJQi6/xIZTS6ehX9qFf2IHectAVzzAQiIRS2oAyeQNK7QqUqkWIaCeS4kfyFVsVfKY4v24InNDNrxEh0NVa9duGwKHCmIDsijJzzCpbs3QVCBx/AGjDXDpjuoGNXIAQ6c806WeiSZ+D+zwbAiVZToPcjYZA6zKuu80tJUYFgeNVY7AF2fYDmDnFh6pYRwN+meXzgyyfF3QZ3YI5WYZQUCbgk5g304sQAkWWMAVUlSpsXeV3ZdDM1WXJAjuvR2LlPBXTBEWGgjxYPU9l1Tzrtky7YpNlifwgBH2wrEEhHIOOXnugwTA2zMnt41tCpKf0GQsESpLMpCovn7uvmJpKDy+9OcCre8L09LveuMmcu2C2l6Bf4r1jFvCnHw1XHkym4FyTRjRhMmOSSsifJJIQaQgUwpojcN9xnVgCPnOnl3tWW31G93xgktIGQyA4L24jQeCEhpOw/8uq/64DAp30T5x8CbP3EmrNAvwNnyCw8g8wpm9Cb9qHdv4N9MtvI4SRDYGyB7lqAeq0O1BrliOXz0FE2tFOPYfZshfvpr8HWcncey4Ekn53HxMETujmlHBvSKODQABuKARKpCHvBkCgKUzkMUDg+ANAsIHA2nQgMA1suCoO+9VTONtD9B0k5/tvAwIzx6zSI7uISD+NtzwEwsi2AAgGFLasK8LntSYAduBPCNh3JEpnj27lFes/gn6Zxhl+8vMU9h+L09VnkDVqG9smTmXiTkrJgUCJukqFRbM9HD+vc7bJSIdLjw/OtYFty7PNgkTKBa5D2DA7145fCceOQmSVL6OBwKICmUfuLqG+zsf2twfYtruf3gEz4/Vzyj8JikIyU6o9dPUZtHToGIarZnaHNaEvbHLuik51ucqkSpkTFw3SE4PbEJjSJI6c05Ffgy9/wsenNnho605xusnENKUxQeCtwvEfmmz4c4/izYXATOYaBQTaO8xYH6kLu9Ga9qOd34Wnbim+hnvwLfkyav1GjOb9aOdeRb+wA1QVpXY53pl3o1QvQS6ux+w5Q+rA9zFb9mH2noJ4L6z9K/AVZDyWTrk/xOeYIHBCN60cQpBsF+/VIDD9TN4wCIQsb+BvGQLHKQDa/X/sr8NBYDphnC+uZsebBQKzf5fILklGgMBxL9fvH84WiYSJ1yNxx5pCJMny+AF0dGuUl3iYXO3l5V39XGxO4fQVKy1WCQZkJlV72fFelDOX7JEcaUiU7IyZ2QYbxu19iiKxcq6HudNVjpzTeXVvaohw1p2mYdK2cUKz+qOlf8kQNsx6Nsez7B+S7gM4Sgj0+WTWL8tn2bw8Dh6P8sLrvfTYoJ6VNyWQTJhU5aEwJHP6Uopo3Mz2oufkwWjc5NQVjdlTPUypUjhxQXcdz0CgrkscPqPzwm6ZT9/p5ZHbPfzzLyyPYfY8gYwIgTBEPp5QWuli1wV2kA2B1jMzSghMRyxb1UBiAK3pAHrnSbSLu/HULsbbcC/eeY+hTlmL0X0aTAOlvAE5rwKj/TCJ3X+L2XYAs+8ipMJImNkQh0La3tcNgRKZZ2VCN5VcLxQfVwgchwAoMqBEToGSA4GZwnnoZsebBwLd1sstVYbxIo1nCazOtXa6wtC2+NW2TvYfDeP1WlP0NM4Mcu/tJby+px8BPHZPKV9+qIwfPN3FkVNxkCQ8qkQyZWIYgkjUpG/AyABgGvhyp/mxAc7eVhSZWMLKtPGEoC9iDgqTrgEk93RAgmwovIVt6Ja7D+BVIFCWJGorvTy0tZTuPp2nXuyms9uCdHeF74bASZUqeQGZc1dSJJNGTpNcNgQmEoLLrQYBn0RtuWJXyu48moFATZfYdUhj1hSZlY0qaxeobH9PwzAZNQQOzr8TypLASssh6rxcCEyn5wgQmB21lKk3k1G0jhMYvRfQLu9BrVmA77YH8My4A7Q4+pV3SLz9DYz2I4hIC5IeB0lkP29ZF5EB8wZAoAK5FfGEbiKJjE0/hhA4DgGQQU0vQ0GgHTATwtWP7OaCwMyvEOmH8daHQCEE0lUgsKklQWuHNbmlJEuoisTWDYLeAZ1Xd/XT3avzXz5byR99voKfPN/N7v2RbO9oFvSns6+TpNmeJrujkHAyiMsuVvpnh8mCeLetyZ7mZ0gb3krAMIRnfSQI9Pngng1FBAMyz77aw4UmZzmu4ecJrKlQCfglLremSKYy3v+hINAwTfrDJuGYSVmRhN8DCW14CIwl4LmdKeZNU/nkOpW3jmjWWtPuvDoiBN5CtvwQJGz4G9QE7N62IXBUfQKd8hXnRNnuBw6SKTBTcUTPBcyBZkQyglK9EKP9A+Kv/xUi3AxmMlNR21FIZFeewoZWSboKBJIBx5EhcEI3u64VAiFT149HCByfryYOzLn+hGufME3Xd6wMag4OlxvPsMewwBLhND/lhLPvydoeYr/7nhH2P+E6lvXj7N1Oiek6P/11HBcpguz0NU3IslfmmGkKdM1E00xSKRPdMO04BOGIzss7+/j777VQVaby+4+Wcf/thU7pjQPU2TbGZdNcG4r0vQnnoXFueLgwItc2mXNuaRu6lEnO7LR25zcnvSQElWUqd6wrpqktxau7etF1O085ect9jv1ZVqyQTAn6+g1rGcehwrluJp406ew1yAvIFISkbPu47Wg/A00dJrve1yjOl9iw0OOypSuvWsGd/zJly4RGIQkhJHdWGryNVSc58CWEq6tEzjngbNvxImfe2eyy3tSSmIl+MDREMowZbkPoqezrubazJDLxW5VtxoOZ9ek+Nzeru7YndPNKuP9P2y5j2MyqY8Jlb7uGyCrfsMsip+bJ1DfpP+dc1/fMtmu/MIfZb8ftPu4KY7rqNfcxMzd8+hxzvHoASSe62xfm5DfHE+h8v39LKVs3lJAZgTmCXIcjUZMXdgzw7OthGmf6+erDxdRWeIglTH6+Lcwre+LMmebhC5/IZ1qdZ/iIRrqcZI047erN9jpd3Ys0viWE8zZlp5TLGzicVzabyQTxhMFb+weIxAz+21dr+Pz9JcyY4kN23pxExgOYiXcUnsB0xiad6Qd5kGBwc/5oPYGOm2C8yw1+Gd9NOq1zPYGyKrFpZREy8PrbvQxEMk2/AEPNExjwy+QHZfoGDJKamVl32FXR5noCk0mTrj6T6jJrfsb2bmeewlxvvWUXw4RX9qXYssLDluUqv9mTsn6P83AM4wlM38CEhpdw8piUlefh6p5AtbSevIX3o+SVEN33E7TOM+5oXZBleevSnsAcGAOncpfSx4aaIibntlGn3I5n4Vcwzr6AfuJJhDAHewLtc0f0BE7o5pXreXBAf6yeQCCrfBlPnsBxCYBWBS2RBRDOIftTAgzd8hq1d6a4cCVBSneFdjItTp8t55BzXCKeELR2agghCEcMPjibpLXLIJkS1uhTBOGoyYnzGr0DZvo8KTcue3+W7OOqDHUV1uL2aU/KKJoSx71c0JABhtw+nDkQ6Pa62C8AqZTJwQ+i/M23mvivv1/NnWsLME04dzlphzcRkuwq+K3YRoLAwbWBGAIe7HiuEQJvDWXeOK1fOzIEqjJs3VhKJGaw4+3e9HlOeBgMgflBCZ9XoqdfR9NMy27OoJJhIDClWX0/p9ao5Acdu9jl5jAQ2NFtcvSszup5HqbXypxtMl22ZEgIvGXM+CHKKdIQ2FNPXB0CvdWNFG74GsHbNqMECzFifcRPvg4dZ3I8gLiab4eAwFwAtPPpcBCYG1apvxNl2l0oU+/As+K/oR/7CdrBf0EyEmOCwAndzBIZm10PBDrwd5NDoIRsTRZtHxy3AGjZbWQIHAjr9A/oRKIGP3661YICKWcAwBDfhzp2qSXFvz/dkwY5SbYKnCttGj/+9UDOoAJc20Pstz8lSaK6TOEzW3xUlcr0R82Mt+mWBohM6TwWCMywn8vFDui6yfEzMb7+nWb+1y9V0zgzYIezM65pIuSRIRBhzR0Y8MEX7y9g3SIfQb/EI3cEqCiReWFXkq4+E+yMmynwrwUCyS4QxrNcTSBXg8Cpk/yUlXjYscdq+r1zXRFb1pZQV+3D75NJpEya21Ls2BvmnfcjDERNQkEZjyrR0aOj6wKvCnevy2fRnADV5Sp+r0w0btLUobPjvTj7j6fQdGtSaL9XIhSw8l1JgcTqBT6WzfFSUaLgUyUiCcHFVoOX96Q432Kw77jOirkeljYonG0yc2zJMBDoeimZ0GDZMJWu30aAQCWvmIKVn6Fo0/+CEiol2XSE3pf+jvjJ7ZjRjmxvmsAaWOQCsVwIzCo43MA4DARm3baA5M6/RDvyH3gaHsWz+L/gWfUXKDPuQ3v7v2NeeYOsvoFMQOC4kwTI7qkf05N84XYMpaddkzIhnH0ZJ5JI1/GS/RBY/GDVMU6f4QwmZK4l2TMkpI+5ttNvJ5JzfTJTJzkdq9MRuMIMEZf1Z9o7rQwyLgHQXeiOBIHnL8U4cSbKJ7dWcLklSWRbF/1h45oh0DJ0JlUlJ8HTliRzzPU9YxAX/AHBgMSa+SorG1VeP6BzodmwC49ReJHGsdJg5nwfJQRmBngIayZmu+B2vAyd3RpvHwgzZ0YgE86Bk2EgUFHA64EZk708ujWf+TO9AMQSgp37Eyxq8HLPaj9blvs5ek7j5T1JTlzQ0Uzs+egYOwTeQkp7rXF74oaGwOULrDnWQkGFf//GbMpLvWi61V9QAD6vQtGsIAtuC/LIPSU88WwXkbiJR7WmBHrwjkI2rQiRn6dgmCLtqSnMl6mrVFk1P8C5Jo2nXo2QSAk8KlSUyDx4u58HNgQpDMnoRgZGQnkSNWUy6xZ4OX5B56nXEpimYNEslV9sTw1hSwZD4IRGVNrx5uLkoSBQzS+jcMNXKNr4VbSOs3Q//zfEjr2CSEXscjaT393xOt+HgsAc/st4RxgGAl3hAYRhYHadIrnn62iHf4Bnwe9ZILjpf6Lv/TuM08+km4WdE4eEwAndlJrcEORLfzMVLWm33qVrhdFpNA1xWTEOET59fNAxN3Tm7Mv9Jg21X8rZnRuf9f9HDoCapqOlUnh9XlR1lLdjd4gcDiAcDYQ1Xt/dTV21j09uLWfd8iJa25OkNFepkZXC0mBbpEmONFJLuQ/KoObdXGvmnCGBqkJFsUJZkcSx8wY7DqSIJsx0yNF4kW4mmaZJPBbH6/Pi8eT2h8yRDQ3ZgHd1CEzX+M75IvPyU1Lo4f4tJTx2bymGIdJgktUH0IZAGQj4rYmlNywLsmVliJpylZQmaGrXefLlCIfOpIgnrNVElsyx1hBurFeZP8NDa7fJa+8mee+ETjgmSGrW+r+jh0Dnt9ycSiaS6LpOMC+YeWkZTkKkVwKBkSFwZn3QWmFlcQEd3RrPbetk25s9tHak0A1QPQrVFV62ri9m48pC/vgLlXxwOkZeQGHzqnxkWaKnT+e7P+/iwPEEvWED0wRVlakp97B5VR5bV4f4o08X0tSmU5An88DGIF5VoqVT51dvxHjvuEbPgMAQVt/byZUqn9zoZ8FMD//bZ4IoMtRXy8gSVqfqq0Hgx1CappFKavj9PhRVGTmwK8sOB4EoKoHpKyla9yXiZ96i5zd/T6r1eNbLtfM0pZtykbPituLMhsAM+WXOS5cF5EIgmYCmK4zAGl0caSX17j9idB7Gt/F/oM79Xczuk4iuoy7vJkNC4MSLws0pX0CmYpLvo76Nj1QfOQCePHaKna/vpnHebcxqmEFeKI/8/BCqZ/hbS1fuXB0CT5yO8O0fXuGR+1IsXVBAXY0Pn1emMF8lnjSJxgxXXTyY1AcX8UPRes7xIU6UJMgPyng9EgMRk5QOKU2w86DOc28maemyloVJQwRXgcCbTL09fTzx+JM0zJlFw5xZhPJDFBUXDguDbg/AsBDohjfnJHt/ZuQnVFd4eey+MrauL6alXSOWsCcVzmmezAsq5OUpFBeo3LkmxOpFeZQUKkjA4VMJXnoryrkrOoaAgqBEQZ71gnDqorV28PQ6D5uX+Vkwy8NXHwzy0O0mbx/R2HNEo3tAEI7Zq4BcBQJvdr35+m4OvPc+D336k4TyQ+TnhwjlhwbDoMh4czNzuQ0PgfWTreX3Ljcn+J/fv8zRk1E7rFXTJzXBuUsG338yyfvHo3zu/nJWLQyhqjJCWCu/fO8XXTR3aKTpQJLQdZPzzSmuPKdz6ESSrz1SxILZPhTZatZ/+1CCn70cpbnDSJ8nyRK6Dicv6fzjT6JsXeXl0c0BVEXCo0JJAXT1A1eBwCzK+Jjo2JETvLZtB6vWrWBq/WRC+XnkhUKoQ8GgsLy/dpINCYFqsBjf1MXoA50M7Psliebj6eYrOworPBJmPIwwDZTiSYCCEJrbMZgFgUJkppgSQ5jJDYFSsARJ9SNinZhCkH7XximrQOhJzEu70A7/EM/8LyFXLkHvPJrdhWsICJzQhG5WfeQA2NvTy7O/fIFv/sO3qZtUw5oNq7jjrk1MnjqZouJCioqLBhcsYuhBIENBoACutMT51g8uE8pTyQ+pLJqXz+8+WsM7Bwd48Y1uEkkxdBMw7m2GaSrOVGDknmedBBL4vTIP35HH/BkefvhClJOXDCJxQSxhtWamm5TT3gUYsTn4JpOW0ti9422+9Y3vUF5RxoLF83j0cw8xZeok8gvzqagsz/bwDjEIBHJs6DTb4jThZBp1nP43U2v9fPmxKpbOL+DdQ2GefaWHLeuKqJ/kz/IASrLEXevyuWtdAZVlHvy+jP8mpQkmVXn46kNF1g631zdHigyaLvB5JcqLZT65wcedK7z0hQVPvZZkz1GNhHY1T+CNS/cPQ62t7Xz3Wz/gR//2U2Y2zGDTHevZcs9mCgoKKC4poqAw3wWDIgPmI0CgBJSVeInGDB7/eTOHjw2k81DuZNGGYbL3YBgh4HcfrmBmfYCObo0nnuuiqS1JrqdeSCCZoOkm75+M869PCf7wM8VMqvJw5rLGb3bHaGpzrwjjulcBhgkv70mi6/C79wUpyJMozpfo7LOXphsBAj+O6urs5ic/fJLv/8vjTJ46iY13rGPj5nXUTqqxn48CFMUqs90ANjwEylgePQNh2C/CrkziBrxk0xGMSBehpZ8heX4vRn8TRrgNSRiDIHAQ/Ln2OTHL/kLkYAneeY8i+QpJHX8GYeoZb2EuBAoBpvMi4UwRk+kL6Fw/CwIn9LFQLBojHI7gD/gJhfLSeQAglUrR092L3++nqLiQrs4udM0AQFZk8kJ55OUFB8WZSCQZ6BsgkUigKAolpcX4A/70eNQ0AAAgAElEQVSrt8yMUurx48fpG+gmIYVvSIRjVXNTC6lUCk3TuHD+EhfOX+KXP/sVk6bUsXbjajZuXkd1TSVlFWWUlZdaJ40wCGQ4T6BhmAyENcIRndpqH7oh6A/rNLcmiSUGA+Co+gS6tnM/s+BRkvB7TaJxE8OEzl6T1i67LyJkKhecwsMeoJAuSAZD4NnT51AVk5tFnR3dxOMJTNOkva2DV196nde2vUFFZQULlyzg4c88QFV1FfkFRehaQQYaxgKBGf5DQjB7WpA//N1JTK3zs+OdPh5/qg1VlTMBXR5Anwfqaz1Ulam0dGrE42ZO6Zzruc0clIbYl/lqDTSoKJGZXCVz4BQkUozcHCwEsUiUM6fOXleaf1jqaO8EIB5PcOT9Dzh66BiPf+8JZjXMYOMd61m9bgXFJUVEIkXp2jVdQQ4DgYoCPq9Mf1inpS2BR5Ws/n9OmBwIBJN9h8LMnRWkttLLwWNROrs1a35Bp1JmMATqwOlLKba/E+WLDxRxoVnj5IWUHSjjjZSkbAgUSBw6rXGl3aBxmkrAl4H1kSAwHh2g6dIlvPpHU35+FGppasUwTJLJJGdOneXMqbP85Ic/Z2r9ZDZt2cCqtSuorK6gsqoC1TCtpBMMsrWTnY34AIkrxyhY+iChhfeQaj+N3n0JYWTW0XXsnWo9SeTgM+Sv+BzlX/gRiYt7ib33M4xYD2gxhBZFJPoQWjyL9qzuIiqyvwApUIjsy0P2hvDUr8c7607k/Fr09qMkD/8UdG3QFDESgJqHMmkdysz7MPsvYnYeZ6gVQyAbAif08dDh9z/gN8+9zLSZ07jvwbspryhLHzt25ARP/OBnrFq3gk89+gDf/Ifv0N/fD4Df52fugkaWrlxM/fSpBIMBhBB0tHey96197N65h8uXmsjLC7L13s1suWczJSXFNwQC1e985zskknF0KcVH4a9uaWqjv68/a18qleLcmfOcO3Oep598htXrVvKpxx5gy123A56s17uxQKDI2cidzFnKCef+PtQxRbH2mq7z02GdOiN9dfd7rMtrkgMGo4XAn/3HL4CbZ6HxWDROpw0OjkxT0NbazrYXX+W1ba8zd8Ec7r7/XibXb3XR3CghUMqkn6rC4rn5/OlXJhPKU3jpjW5+8kw7kbhJRZnXjkBkew3tz7Yuje8+2cWJ88ls766cDe3DLhvn9uzaxxbN9vD5e4JkXAwi48kdAgJNTJqbWvjxD3524wxwA3Xq+Jms70IIIuEIB987xKEDh/nFE79k05YNLFx2D4Y2Nf2gjwSBCNh/uJ+Z0/L4P/+onp8/28bRkxHau1LDQqBpmpy9FKdvQCcWNzAMc1C3gKEgMKWZ9EcMYnGTzh4DTTMzthsCAr1eqK9RuWeNn+l1Cmeu6PSGDTvQyBDY0XyObWefJ8/b/uEa5SZS0+Vmkslk1r5EPMHJ46c5efw0T/74l6zdsIrHfudh5mo6qkgn5ZAQaKaSxM++R/j9l8hfsBXZG2Rg39Mkm45iDLRZHjnnPAQDb/4bxkA7eQvuQymopvjBb4DixehrQu+5iNZyFLO/GaWoBskTRMmvxjtjM5LqwVPRgFrViFo8DSlQjJnsR0Q7SR75OclDP0b0N2eu5UCg4kMum4VSvQzv4q+A7EE79nOMtsMMt2IIZCBwohn44yEhBEcPH+O9dw8yf+HcLAD8zfPbePH5baxYs4xINMoTjz+J1+tl6YpFpFIaO1/fTXllGX/2f/0Jd2zdREd7J//x/Sf45c9+RUFhAZVVFYQHwnz7n79PVXUlazeuGbrLxRilPvLII/SH+0jJkeuO7Fp0+OBRThw7SX/fQHqfoijUTqqhbnItFZXlbLpjPfMWNKKoCkbSAbdMHGOHwExFnbXaR9b5lkaCwLoKlUnVXi636bR26uimSBdSkjWbaQYCReaaFpwM09dvlBB49/1bUWTjWpL8Q1FPVy9HDx1Le48clZWVUj9jKmUVpSxesoBV61fR0elDiGiOXUZhQ9tOc2aGeOieSnRd8PSL7TzzUpc1sMdd+trh06ON7f2mac0dmLD7CSJJYHsYnZZ8q81Y4PHITK1RURWZS206iaSwvbZ27WVvp3SBac0QQxruHfsNAYEyEuUVZdx++9030gQ3TB6Pyrt73sva5/f7mTptMlU1VUyfWc/6TWsIhCZz8oRkD60cGQJ1Hb7+T2d44O4qVi8v5k9/fzK79vby8hvdnLsUJ540h4TAy00J+sOGPVWMBAODJ4vOhcCAV6Km3EN/xKSlQ8uGxhwILC9WmDfDy0ObAxTlyxw8qfHU9jiXW515AKURIbCkvJZF9RuZXJkpv251HXj3fd575wDJRAYCPR4PdXaZXVNXzYbN65g5ezrqB2oG/lzQlwuBqa4r9Ox4HDMVIzT/Tioe/jrRk28SP70bvacJrfs8ZqwXSZiYeorI/qeJHv413vJ6/NNX4Z+2CsnjR8mvQp1bj+TxWX369ARyYR35m/8SYaRATyC0GHrPBYz+N9EuvoXRchAR60TCsL3LEkKSUIqnIxfUohRNwdv4KHJZA0bnMfSTz6KfeApMp//hVSBwQh8LNcyZxYxZ03nxuZe5eP4S8xc14vV6iUai7HtnP36/j3Wb1litGEBhUQH/8oP/j8hAhB8//jOeePxJXnpuG2vXr2LXG2/xq1++QE1tNV/7499j5drlJBJJXn9lBxVVFTfsuVI3btxIV287can/6qE/BKWSKQKBALIiU11TxfQZ06iqqWDF6mUsWb6Y2rpqfH6fK7xp17Fi7ADh7Hc6hdjx5E5IOxoIVBSJ5fMC3H97Eb94uY/2bh0M51oSAjMLAtNLyDnxiszktDB2CFy+aike9eZ5tWxraSe/IARASWkxM2fPoKqmksZ5c1i/aQ1Tp08hGAygaYKBd2IgoqTn4bN1NRs6WreiiAuX4zz963Ze3tmNYdpN85CGPmvTPVjEDfqu/Vgexvx8lZJClUutun1ticI8iS/eX0AqBd9+qs8CQJyKy0b9tGMyc5308zQMBCJBUVEhK9csv/6E/xB06oTlAVRVlRmzpjFp6iQmT6lj7YbVNM6/jfKKMhRF4dy5FJLcZ9nRlLIgEBg0MKS7J8UTv2zi4JF+Hr6vmuULC5k1LY+XXu9i/5EBrrQmB0FgS1uSnj6NGVODBP1OZCNDYCgoUV/robff4HJrKpOfnHCShCLDjMkqG5YG2LjYT0evwa93xXn5nSThWI5XcQQIDBWW0Th/IY0zEh+uUW4iRcJRVI+K6lGpqa1m+sx6autqWL5qKUuWL6KyugKv1/LEDygyRvY70TAQKEi1n6f7lW+TuHyE0Lw78E9ZRKhxC1pfC/Ezu9Haz2LGejDj/eh9zRj9raRaT5BqO054749RAgUo+WUogULkQAFysAhJVqy3ET2OSA5Yf/Fu6y8VBaxpXGR/CLloMnJeKXKgGNlfgFq/EbVqIVKgCKP9KKkPfoF+4mnMjqMgDOsRSN//8BA4oY+HikuKaJgzix3bd3Hk/aOs3biKqupKjh4+RvOVFpauWEx5RRnRSAywWp0KiwooKi5ixZrl/PB7TxAOR2hrbefQgSP09fbz2S8+xua7NhEMWlObfeH3PpvphnYD9JEPAikqKWLthlWsXLuceQsaWbJ8EXWTawmM0NHR8tpJYwYIKROBOzJ74lA5C/TyAjILG/O53JqkuU0bBIHlJQoN0/xE41YlUxSSmFzj59TFJOGYc9UMBFpgkLnTTBPwGCCQTLibTR6vhyXLF1E/fSqzGmawcs1yps+sJ5QfGvoEYaXkWGyYSUCJV3Z08eJrndiv7GlAFFmlrkinYwYhRRoGnWtMm+Rj/bIQU2p8fOunXfRHBKoCs6Z4ua3ey94jCUoLZRqnqRy/oNEbFtkQ6Io7d+TxkBBI5n5vRlVVV/KJT95FVU0VK9csZ+78OVRUlQ+epkmQSUuJLAhMO9lzPYGayeFjAzS3Jti8voz1q0r44qM1zJmVxytvdnPibIxY3Ezni3jC4MzFOD6fjGmarrQdHgJN0yQcMWjt0mjt1DJsbh/3eSUWz/Fx/4Ygk6o8HDuv8dLbcY6d09FNwPYADbViyGAIvLlt+WGotKyE2+/cSEFBPvMWWmV2dW0Vfr9/cGA3/F0VAsGI9hM++CKx028TnL6MwPRleEsnE5y9EXXV5xCJCPpAB1rbSVIdZ62+fkYSocVAT4KRBFNHpOIYqRgI3SrbZRlJUpD8RcihMiTVi+zxI3kC1nZeGWrVXOTCSSj51QDoHcfQmt7F7LuAfvYlzJ7TSEbSKXKG+D0TEPhxliRJzF80j7rJtbz37kG6Orqoqq7k7V17icXi3PvA3VkDQxDWII/e7l727z2AP+CnorKc8ECE5qZWCgsLqK2rTsMfgCzLQ1z52vWRA2D99Kl87Y9/j6LiwtHNOwaZimeMAJHel6GFTAXmgsCCkMIDW0vZtLqY7bv7eOrFrkGewdum+Zk+2cfew1Ga21KsXJjHPesL2Hc0zm92hekNm/ZKLTYEumshpxIbKwS6poi52ZRfEOILX/ksBQX55BfkX/VBtQrPsdnQXZjOnJ5Hw/QgJ87GsuzibtLPPCdYkw1nMaBAVSSWL8jjrnUFLGkMsvdwDEW2zvF7Je5YFSQWN9lzKMacaV4+eXuIV/fEeG1fgu5+MwMGOaW8Y9s0ruba7ya1oaMlyxYyd8EcKisrRpyOyZFjy+EhUCDZz4MDhZ3dKZ59qY2TZyLcfUc58+cUkEianL0YzzTZ2vli97v97D8SpqMzZdnRNvhwENjTq/Pc6/1IkkQ8YY0qzXqBkwTzZ3pQFYmX34rxxnsJ2ntMu0iRMgNDRgOBN7sxPwTNmDWNP/vzP6asvPTqIxLtJBLCehEYDQRiCoxwD+HD24ge34FaWI6vpgF/3VyU/FKUvCKUgirypy5FLa4FYSKSUYSWQOgJa/CIoVn7TQcAFSRJAcWDpHqRVB+SN4jkCSKSYYy+K5jRDvSWQ2iJnZiRVowr72IOXEIketLNw7jvl9FB4IQ+PmqYM4tpM6by6m9e4+KFy0yun8z+vQfJC+WxfNWSrHoxGo3ynX/+Pp3tXbz95jssWDSPu+67E1OYJBNJFFVFGe3cyNeojxwA8+15xsYiIdwTQY8dAt2FtrsJWAhBabHKY/dXsnV9CReaEly8Ek+DGHZ8BSGF26b5UWQ4fiZOb79GS0eKvgGDezfkUxiSeea1MG3dutXeL5tkzf/mQOCgCsY+PCoIvLkqHq/Xy6TJdaMM7XjJnHniRmdDB7ROnY2wfkUxBSGVp55v5d33BwaFceyaad53aiLS0L9mcR6fua+E4gKVF3f28+KOAbp7dWRFZmqNh7kz/Bw7k+DIqQT1dV5aOnTuXpuHokpsfydOZ585eAWBtEfMZVtcz2rayDeX/dwqc3VeHlmZ9Ezba0gIlKzOl3I2rCWTJkeOh2ltT7JwXgGRmEl4QGNqbYDp9UFUVc4adFNX7U9vI9kQ5qRsepAO2AcBqK3yAJKdlSTOXtFo7tDZ+V6cPYcSnG/WiSZE+pz0EptOBX81CHTS4WOkfPslbzRKI7LA6iuaC1HDQSAWtpupJFrXFbTuK8SOv47sDVgAGCrGU1yHp3wqsjcAsmJ58rwBJMVjLdWpqKRnijcN60/oCN3qC4ipIUwNEevA7L2IGe1EJHoQiX4wU864L/u5zjzfuKGPq0PghD4+KiwsYM7cBnbveJvDB4/iD/i5cqmJFauXUlJWkvWyZBgmHW2deL1eHvv8QyxZvpiVa5Zx7sx5gnkBkslkVj/bD0MfOQBek7KaU0mjwqgh0AE6FyQA1FZ4+eIjNaxbUcShY2Ge/k0nR0/H0vDmXHLaJC8N0/2cvpjgQlMSwxAcOhEjkRA8cEchG5fnURBS+OUr/Zy9Yk9dkdMHLdMEfG0QOK5le+CssnT0EOhg+N79veza082nH6rl9z5bR0F+G9t39djeXbcHUKTTzl0QO17C8mKVylIPmi7YvT9CS6eGEKDIgs0r80AI3nwvSjhqcuJ8kv98Ncxn7y3grtVBojHBtj0xkprLCyTE6Gx7Cy0PkHkZuzoE5s7raDXXQkdXktd2dSHLMl6vzNrlhdyzudweZe96InK8KVLut6G8La4CVwjYvifKb3ZHOHnBmU/Q6U8zhJ24OgTezCB/08gpPzOPAzBKCJQyK4aYholIRDGTUYxoD97yaZjxASIHn8OMdSOpHmSPD0lRbQCUkSTZLjcNrJFFBpgaGEkkUwd0JI8P3/QNeIqmkLqwE2FkTy7teJDTpdRYIfBDTt4J3USSYPHyhVTXVrHvnQN0d/UwMDDAnfdsxufzZgUNhfL40//jD/D7/eQX5hMMBpAkidKyUiZNqePN13dz8tgpOto7qagsB+z+t6qCz++7MdPAXHcMH4GcUcDuZp+xQCDC8VyQhoT6KUG++vk6li0oZPvubp7d1sW5S4mMt8E+3+uVmF0foKJEZee7A7R2JEFYL5cnzsWJxU36BgzuXl9AQb7ME8/3cfx8KvtN0AVAcG0QOO4l3GA3Ogh0bNYf1njxlQ56B3S++FgdX3y0llCeyguvdg4Jes713AAuhGD3/gEqylS2rivi0/cW8/jT3VxqSVFVqrJyfpDLrRoHjltNkl6PREWpQn6ejKpKyLI1zY1jy1wIHGRDXPBwq1QJrvwjXDlwrBAokDANgWma5IcUqit8+H0y7x7sp7UjZWe+jCfQyo+Z77mTrktZYa3tqjIPSxoDVJUp+L0S/WEz4+XD3aQ7Rgj88FL31pCTQG7PqWv3WCFQLaklNO9O/JPn469fiuzxE7ztdlKtx4kdf41U8xF7JL9AsifUdxzF7k9JArmwBv/MTXgnLcZTtwTJF8LbcDdG+3FSZ15Bbzlg3YN9U9cOgbdAeT2hUavhttlMnTaFN19/i+YrzYRCIebNbxzUh1pWZGrqqtMDphwVlxSxZPkiXn9lJ9u3vUEqpdEwZxa6rnPm1DkeeOhelq5YjMd7lSVXR6FxCYCOkyXbOzQGCEzX1RnP3LyGEGuWFRGOGmzb0cWZC1E787rjh5pyD3NmBmjv0jhzIU4yac8xZoe51JLktXfCrF2Sx8KGAIdOJDh+LjnYM4W7GfsaIHCca/B8bleHwAxkQSyus+21diIRnS99ehKf/VQ1+XkKb+7tzVTK7iZg0w3g1v62jhT/+VIPhgH3bS7msXtNvvHvbWxaHiIYkNm1P0J/2KC0WOXBzQWsWRzEMOAXL/XzzpEEKc1u00q/TDh/w4zwxmZ3Id0yDAi4wNr6nUK+NgiUnLc6AT19Gm++08uRk5HBczO6t5HweGRWLMwnqQkOfBAbFF6SJBpn+pla6xSY7peB64TACQ/gVeUkkXQdEKj4QxSt+Qx5t63HV9eIpHgIH3gWMxkhf9lDBGauJTB7I4nz7zLw9g8xBlqdi2ZAzY4bb4jAggcI3HYXnqo5SKqfxKltmNFO/Lfdi3fKajzTN2C0HCK251uY4ZbrgsAJfbwUys9j/oJG3tn9Lp0dXTz02AMUl45+4mZVVVm1dgVf/aMv88TjT/Lc0y+QX5iPaZiUV5TzqUfvR1ZuzGCQcQqAIlOZXAsEity4BAcO9fHmnh7WrCjmsfuriEZbOHc5jiTLWfA4bbKfhukBdrzTb3kIcyqSmkoPD20ppDCk8O7hKO+8H8nyWFqXFOkOwtcKgeNaLgAfCwS6yA4EJJImu9/pJhLV+eKnJ/HQJyqZNiVIwC9nnhFXn0A3QDrp2N6V4j9f7qZ/QOdym0ZeQObOtfl09ersei8MwkSRBcUFMt29Bk+/OsCJ8yki6dVjcEGA0wRsbw8DgbeShMjYEezfadoQKARCHhsEOi9HpilIJAyiUd2apNsGOb9PobLcR1NbyupSJkkUqB4euaeErh6ddw9FSOmkwzsQmEia1lyNCDBzvLS4yo8xQmD64ISGlCtrDO5Dyegh0FMxnfylDxCYsggkifjFgwzsfxa9+yKS6qdwzefx1y9DLa4l2XSE2JFfZ0qQHAhUi6cQmPMJ/DM3giShNR8mceRZ9I4ToCcJrvwantqlqGWzSV3ZR+rYM9flCZx4Pj5++sSD9zB91nRi0Rizb5uVniINLED81//4Jv6Af/DMCrbKyku5/1P3MmduA81XWkgmk/h8PmrqaritcVb2aOLr0DgEwIyXANxNT6OHwLQHjkwfwObWOP/6H5fo6E7x4D2VhPIUnni6jQNHB9IQWFbsoXFmkETC5MTZGOGojqvBiVnT/PzOA2Usbgzy2p4wv9reT1O7tXC9cJeECHAqwGuEwPEt2wMjSWODQBdEO1+SKZMDh/uJxU0+/0gta1cUo+uCS03xtIfX4j1hnyIyMGjH19Wj8eKOPpIpwd0biigpUvnlS7309OkIJHr7dX7+Uh9ej0xTu45uWFCRuT+R9bssuLB+zVA2dKDp1pCTjsNAoDlWCMyaVMdKT3sqmcl1fn7nU9VUVfj4f791ic4eDRSJVYtC1Fb5OHoqRm2lh1WL8/n1G/1EYqbrpU+4bteGQHkIwGOMEOh+sZjQYDlZ3dm+RgiU/fnIvny07ssohZV4K2dQ8cjfYcb78ZRNRfIEEKaJ5AkgB4rSz8xQECh585D8BegDLcj+QtSyaeRv/WtEvBe5sA7JFwLTQFL9SMGS7Pu8Bgic0MdPNbXVVFZVIIRAUZUs75/H4+GuT2xBkqQRZ8soLCpg8bKFzF80D9M0UGRlUFzXq3EIgJCuudNVxtgg0O0Jcjpymya0tCX46dPNdHSl+NrvTOIPvlTHL563BxjIMpNrvCyYk8eZi3FOnY2l1yUFWDY/j8/dX07D9AA/f7GbbbsH6OqzFg2X0m5Hu9KwIUS6Hggc77IBfmwQ6LZbhgY1zeT4qQH+7QmD/gGdT9xZgSugvemupAXCFK51YCEc0VEUiYfvLiGZFPzmzT5M0/LSplImzW2aDX2S09UsfX9u/kv3iXMquiEgkFsJGhw7DjFX5bVAIM6KKnZaOs/G+uXFPPpAFQ3T89i+u4d4wgAhkBE8eGcpyaTJm3v7Wbs0n09uKaG0SOWJZ7sZiJrpFwD3syAQSPZqI9cHgbeIHT9MZd73rhkCnePR03sYOPAC3rIplN37v6NOmk/k8It0vfC3+GoaKFz3JeeSrjkoJbu6sCO1qSx18T1iR36FEionf/0f46lqJHlmB5E3voFSMon8TX9uPdfCdW+umxwtBE7oYygJlBGWahvO8zcoGknC41H5sFBtfAJgusJ1+w1GD4FZZbZwj2KEnr4Uv361g95+jS9/po7yEmvt4YBPYta0IEUFKtt29tDWmcx6vZtc7aWsROV7P2tnx76w7X2QMiWA232VroeuAwLHsxxQciwl2bgn3PYbAgJdnruM3SzpOgyENWTZxXruPoAueExDmlNB2FGaJvztd5qoKPPS0ZWyoca6hmmadnNiZj67LAh0/neBxnAQSLqp81aQU1PfIAjMaqq30vKBuyt59P5qyks9fPeJJnbu7SUStbyzixrzqJ/s5+39Axw/GyUcNZg11c+WNYXIksQTz3XRFzZz8jwZSL9OCJzgv5ElXBtWmnJNEOgcNBIREpc/IH7uPQpXfwY5WEDbU38BqRiyP5S5qAClsJL8pQ8TmLkWvfcKkfd+TqrpQPrezFQMrfUEyeguAnPvQ84rZeDVr2P0nMN/2z2ZV3aRc2+umxwNBE5oQjerxh0AWhnSVZqMAIGWhoJAF4mlmwntc02IRjR2vtXNsZMR+sI6QghqKr0snhfiSkuSY6eiGIaV050CYNubvbx7OEJPn0HcWTNWytyzyIGXrCZQe440hwtGA4HjXk7J6ir6002k6b02BNrp5Abn3JHgpSVe/uQr9axdVZJxkAon3UlPxVNW4uHhe8rZuMry6Fk2zKSnIsvICsxvyEvvkzIuPyusZG/ZnxVlKqVFKpAE3NA5NARmNWWPZzk1pJMHbwAEpp8FJ1ohKMxXKSxQCUd03v9ggJ7eFI4n9pF7yzFNePG1blJJk4tNCX74dDtffrSKLWsLSaRMfvRMF07TcubZceWr64HAiRp+ZDlFnbPNtUFgVnymwEzGEablBTYGupBUNf0cqqWTKX/snwjMXINSUIGkesE0CDZuJdXyAanmIyBbA4KEMK0JpE0dhIkR7cbUUpk6wv1+4743ZwPJBapDQ+CEJnSzatwBIDheloz3aDgIhGwvjZSJwP4kuzJwnZtMGjS3xhFIKKrMlFofjbNCvLSji1PnopBTEUSiBtGYPSJYkrKOZe45s51ZL9aGG9O0VksYJQSOZ6WbwHMafmEYCDQFyO7qQbgqFkFJiZe//csGZs/I58KlGN09KYoKLc+tMwGxrpvohqAgpLJ+RdENBTBJkpAl0HVr8IIFgW4bZkNgBn7Hu9w0e2MgMCs+28v7y+dbKCnycNft5fzVn03nz79+mrauFPWTAyydX8CJs1HePxYGAaoC9XV+bpsRQJLAFALdMDN53r7vQZB+jRBIGi0nNJKymoC5Bgi0B/CE5t5O9ORbRE+86YpbQi2sIX/ZwyjBIoo2fQ0kGb23hZ7f/A/ip3fhKZtK4fqvEJi1Ef/MdUiyghIsJHnuLeIntmXdq5xfSWDJ59J3Ya3oNAwEYv2YkSBwQhO6WTUuARDIBoixQqBTydgehqzKwH2uPctHWbGHJfML6OpJceRYhFTKsNaWTJ+TUyDAoGNOv6P0ThfkfBwhEBg9BNoAkZXAtg0ryv18558WUl7m441dnfz0l018+qFaCgs9abgXpkkqBT/4WRMvvNqJ1yNnvHqSZHv13NOMOPvBPfWI5fVzb5M+zxDQ1G4QsV8CBtvQBYGQ/VvGuQbZ8TogULjyiZVOgljM4NuPX0QIwSe2VPD3//dM/uDPT/DIvRXIMjz7cieGYVIY8vCFhyt58K5yuvt0nvhVGy/t7EPX05k9fb9Z+Y9rh8AJjYhGfBoAACAASURBVELpF9/RQ6A7/wgJ4peOkmw7T/78O5j8hz9G67qMEipGVr1M/Yvt+GobkGSrOpMUa141Nb+UYMNG9P42lGAhSn4FIDLHS+sp/fS/ovc1I/sLkL0BSr/8DJ6SelC9mIl+EidfBWR7qdChITBdRg0HgR9+Ck9oQtek8QmANuxdKwRmOEykm5myKgPXuRLQ0ZnkX398maJCLz29WhoqGAICnW1yv2f1ARSZysQJN0YIHPdyN4FfDQJNELLkSj/LkjOnhfjmNxbi98k883wz3/vRRUqKva5LZOBemCbdPSm6e7VB88llfZctuBvy2FCfsjwYIB3wGQ4CxS3kM0pX7jcGArP/MvZLpUy+/fhFUinBG2/3EAzIbF5fSntXip3v9IAAnw+mTQlw+kKcb/6wmTMX4lZ3Ccm1jrQwQZiZ54Lrg0C3Z39CI8hOyNFCoDOAw8k/RnyAy9/9Kv6amZTf8yeE5m2yRv4KE2/ldGJn9tL98jfJa1hL0ZrPE/lgO/5J8wnMXEfwttut5mJdI9V6CskfItV0mMiBpwk2biHYeDeSN4BAQi2eQqr9JAMv/zWppvdAT9nlwPAQaDsIh4XAiedjQjerxiUAOtA2CCBGC4HCVcuI7EEgQ3sCTQb6NQYG9AwYwNgg0NW5PdMEmnPeGCBwXCudFMNBoHVsEATa6efxSCxfUsLX/2oumm7y+BMX+cWvmjPN+cJ1Ibcn0U7XEe2UMzCEnLC5qJoewCDcd+8CnyEgkFtkAmEnGzo14I2BQFe65HjqNA2++6OLCCS+8vlJ+DwSz7zYjqZZXteuHo2//qfzyLJMf9gAWcrOfy5PVNZzwbVD4K1gxw9V7nxxnRAoTINE00mu/Psf4imupGDBnSh5BfTvfwG95wqKL0BwxkpMLUnkyDY6n/4L8pd+ivJP/j/ETu6k5+V/RPL6KL33LxCmgdZxju4T2+l79R8JNmxGCRaTOP0aetdZEEba8W+Z+NohULh++4QmdDNpXAKgBW3ZAwSuBoGQUxA5n+lKZvAAkqEHlWRn/FFDYE7F5nQeHwoCIQMrtyIEpvnd+TYIAiFtPxcEOmm4fnU5X/niNPoHNP7le2fYvqPDQgw7nnRlL5zr3GQQ6Pott4YEmNINgUBnRLUVUGRgC7uiNSUUBZYvLKR/QOeFVzrSU/oYhslA2HqeJCRr6Vc5J/858JfjAbxWCMR9vxMaWjcSAiWQhEDrbaPnzSesR4xMnOlLCjCScfSBDsxUAq37CqmOc/iqZ2XdFwKMgQ4i7z2J5NyHA352sEEQKMzMo+2EwfWM5EDgxOMxoZtV4xMAIQvaRgOBkCnwM3GQU8l8eBCYuY5wQWcmDvd5TiUzEgSOfzkQb22PGgKBuY2FNDXH+Po/HOf9I31Zo3RdCT4s3H/kEJh2CdwKsmFK4tohUDhTskj/P3vnHSdFdTjw75vdvb29fsc1jt57bwKiKCpFBRF771GjxpLEGBNLotHEn1ETNfbeFRQFQRDERpOigCBF+sH13rbMvN8fW273Gtf29vZ438/nbmenvtk389533rziHrLPPyP39teI3+9twOP/20ufntGUV7g894pHFLzreA7rlUDfvefdkzSQ1OyEuhkS2FGiMUgE3I7C7/pvsQTWjmspPdeLyYw5LhVTVGL1swS4O4mOSUFEREFVqS9J9hUR1DFsXJ0SiIaktgR6qSmBquhP0V4JPwEMSMebKYEe4UtLtTJ0UBxVdm/FfYG38r+vG5ca8wIbCdSsIwa+x0dfnTD3utYIjaT4usci9Wzl+94YCQxrvHEomiaBXjnQdckbb+/H0CUjhiZUFwEISEq00slTD9BXVYDaIt/aEghUj+5yDAnEL1xhjaz+k7RQApHVr1SlJMpmonfPaHcDDuERLgLvq0NHKhk2MMZvXmDDnOriHOjdLZIomwmJw69uqJLAoOOTLIIugVLXcRZngWai0+m3YOnUDb2iCGGyYI5PI2bUOcSOm0dEWj/KDm/FcFb5bsNgSqBC0V4JPwEET6LrSUmaIYElJU4OHa5g1IhERo9MrL1/4ftXN3UsF/VPVAcbOJzloKxcr1UH0H+LRklguCcs3nhpggQWFjk4dLiChAQLV1/eq3pfovauf/6lhPIKZ43fOXgS6JvfWAnsKPhKtkWrSKDDYZCdU4WmwSXndXWv1GCJt6gV//Xdi7ohyclz4rAbflUwWiaB7f1GlIBLN+HUW2fs0KaiG1q1BPrLnTdwrSiBhtNB2U9fYknIIHrQFOLGzMWckIbQTMSOPoeoASfhKjpK2Y+LKdkwH1dxdo3XuMGRQLvLjMMRAVrbxoFAEmHWMWlGmx5XET6EpQBK8BMImiyBu/eU8Oobe0lNsaGZRHX+4p3wtAQV3nnC881XugDe0gjvdtWvIf1KIbzreL4bEgqKdA5kVuE/yoTvnGp8b0gCwx13AWDTJHDr1iL+98JuEhMstUp4vJMg0HXJkewqDh6qwL+yv3vv7UACwScg4Y63EFC0VAI993BZmYsvvszm133l2GymGvdfHfeibxr870mhCQJK7hE4nJJfD1ZRWOysEZctkMB2Ho1SCkoqrRSWR4Xk+DaXGZP3zg66BEqcJbnkLn6Cwu/eJmbIKcSNnIFmi0E6q6jcu46ynz7HlbcfqTv8k4+gSmB+aTSlhXFtLoAWk06nmHJiIh1telxF+BCWAgg1BYImSaDDYbBpcwE1u/Vw5x/eae8yaqxT9zzvd98+Na3GNjXX8zsPv3Oixvf6JLAj0FQJrKrSWbM2NyBjr/nqr844pH1JoM+aOhAtlkC/ODmcWc7hIxXubTT8RN9z72i176vq+Pe/B2t89wqi5plHyyUwXCJThqjvKOk/UVP0giKB7vvZVZhF0er3KN28GHNcMtJeil6WC9LwJQ3+sRZMCXT/9qLN4yBUca4IH8JTAH0ZTfMlsGbDEP8M2v+2CXrr4EYuqyWBYY30pfbNKQmEGl3EUB0nzY3DRkugqGcZBIQSqL9hiKzu7LhD4M3AaS0JrK4TWLuzaHwC4Hdov/j3FwEabBhSO54bKYHCb56U7b4UMKT4X/ttKYEChCHRK0owKks8960MEL+a96s/rS2BCkV7JEwFkHoEgmZJoJdwkEDAPbxZuCM9/5olgZ5dhEICG7Es4LMuCfRevx0Bbzx6cvKaEgheiWttCZS+B6E2l8CAuOwg8RhMZI3ptpRAPxkTQnjWDeyBoT4hVBKo6OiEpwBCAwJBkyWwvhFD2qMEes+nQ9BsCaxOgsNRAjtczuCOvDol0De8lwFodcRjsyVQVHeYDnXEf9tIYGD3Mor68E+eW1sCvRHTqhIocXf4rCRQ0YEJSwGUARPHpwSGNbLmdPuTQDxi0aoSKDTvpUnHKDnyk59jSqC7ta87nltXAr33VkgkUHUD0zA17vUGRa+ZElhL4FpDAgW+4T2UBCo6KmEpgHjq3QhfhY7Wl0CA6izI79DtRQLDHHfnwZ4zaQ0JpGbC3DIJ9DbigJbFU+CnWyrwikNHQPrFZWMkMCBOWkcCfSWs1BX/wZVARSM4ziVQGaCivRKeAughIONpZQmsvsFbXwJ93wO2r16PRizrCLSqBPrmh4MEdrxcIagSKGVAZ9HtSQJ9162iYWrcKOEogb4TaKoEKhTtlPAUQIlf4hB+Euhfx6y5Ehj21Iw/77xwlUC/DKrWshqfvus33JF+fzXvxdaUQCFqjRgSCgnE991v244Qj0FE1vwSxhLovmaaLoEKRXslfAXQ+6kkMPyQVP/eHUUCmzJsXEcRQH/aUgKldItaG0sgaHVKgqIB/OTL+/14k0B1nSjaK+EpgP4pwHEqgeFKZUU5P6xbicuVjNmcSCgk0G7PxV51hKjYvpgtsW0ugd6MoWMgqXkRt4kEGkGWQEFAX4NQtwR2SJlvbY57CVQo2idCSinzCrOpFMWhDkujMAw4uK/q2CuKer8ErlbvIlH/ZqLWBCDq2JeovVrNfQccRlBzUtSzny7pDYW9fVJaUspf//h3Kitc3P6HP2OLiml4gyDF4Ya1P7Bu9WrOOX8eXbp3C9h3o+NQ1LdN7fVFjXgVgNUKyUn1hTs8cNglhQVOKisaUc+pEXHZrHvRtzvh/6WO/dV3L3pWrLW49r3ongycbzFDfCxERjYQvhBiSEFhuY2CsuiQHF8UHEY4K2sYYAv32Zj91LHOsS/BalsTDV1yop6vou51nDFdMMxR9R00aFhMOsmxZWooOEW9hF0JoKZBzz7tNLVV1Et2Vg6/veYO+vbvzd333UVaeic0LTQGu3+vJCraQecMEz16WEISho5AhFWQ1jki1MFQtGNkUldVQKpQtFNUDVVF0Plx4xbOP/MyTj1jKn99+E+kd04LmfwpFAqFQqEIwxJARXjxwdsLuO+Pf+OFN5/mxKmT0MJ+HGOFQqFQKMIfJYCKoOByufjH/Y+x6JMlfLn2c7p2ywh1kBQKhUKhUHhQAqhoVQzDoLSkjDtv/hP2qiqWfP0JncK9tYNCoVAoFB0M9T5O0Wo4HA5+2b6LG6+6jW7du/DMq08q+VMoFAqFoh2iSgAVrUJZaRnffb2a1196h5lnncG8i88hOjoq1MFSKBQKhUJRB0oAFS0mNyePzxZ8zoovVnHdzVcxZeokIiJU9yAKhUKhULRXlAAqmo00JAcPHub9Nz9k394D3HnPrYwcPRyT2RTqoCkUCoVCoWgAJYCKZmG3O9i1YzcfvrMAXdf53R9upv/AfqqbF4VCoVAowgAlgIomU1pSyrrVG/hy6UoyunTm3Avn0LVbl44zvK1CoVAoFB0cJYCKJpGbk8fyJSvYtP5Hxp4wmulnnk5iUkKog6VQKBQKhaIJKAFUNJrDBzP5+INP2b/vIGfMmsbUaVOwRlpDHSyFQqFQKBRNRAmg4pjous6eXb8y/72FlJeVc/6l5zJ2/GjMqrGHQqFQKBRhiRJARYPY7XY2rv+RxQuXkJiYwLnXXsKAQf0QQlX4UygUCoUiXFECqKiXivIKli7+kq+//JaxJ4zmtOmn0LlLeqiDpVAoFAqFooUoAVTUSVlZOa+/+Bbbtmzn7LmzOOmUycTExoQ6WAqFQqFQKFoBJYCKWpQUl/DIg49TUVbB5ddcwrgTxmCxqEtFoVA0DuvhdVgPfIfmKA91UNoFUpioGHY+zk79Qx0UhcKHytUVARzcd4iH7vsn6Rnp3HT79fQf2Fd17qxQKBqNqSyLmE2vEXF4PcJwhjo47QSBJX8XefNeD3VAFAofSgAVPr77ejWPPfwUs+fOYtac6aR3Tke19VAoFE1BK8/FVHQAzV4S6qC0K6yH14c6CApFAEoAFQC88dI7vPrCm9z/yJ8ZO36Uqu+nUCiahdBdICUAekwapSfchhERHeJQhQZhLyH++3+jVRWB4Qp1cBSKAJQAKvjL7x9k25btPP3yvxkwqB9ms7osFApFy5GWaKp6nYxhSwx1UEKCVpaDXPdMqIOhUNSJyumPY8rKyrnlmjuw2iL574uP07VbF4Sm3vkqFIpWQgikyYI0RYQ6JCFBmiyoQdIV7RVVu/84Zef2XVw692oGDunPI/9+kK7dlfwpFAqFQnG8oEoAj0OWfb6CfzzwGDf/7npmn3smkbbIUAdJoVAcN0i/6foeOuUxlrc1xwpzY85JoWhfKAE8jnA4HLz58rt8+O7HPPjoXzjxpImY1Hi+CoWijRCuSjL+OxwAV1Jvcue9iRGT6luuVeQRt+5Zon98EyMimuJTH6Bi0Dl178tZiVe8pNkGQoDUES67ZwUT0mwFKd3d0RguwP1KGs0Mho4wHO4GK0JDmqzU6vbAcGHbu5Kkz36L1MxU9T2DgjOfClgl4uiPxH3/ONZDa3GkDqV42gM40ke0yu+lUAQTJYDHAdKQlJSW8sy/n2f71h08/H/3M2rsCNW/n0KhCFtS3jkXU3kuaBo5ly1Ej04lInMjnT69CQB7jxMpOPMpTOU5xGx8maif52PYEimZfCeV/WdhPbSGuNVPYS7ci6PLWIpOewg9OiXEZ6VQtB1KADs4TqeTQ/sP8+L/XsNhd3Dfw/fQb2BfhOrgT6FQhDGaowzNXgyaCQwJEoTh8vU/KJwVnjUlwlWFZi9BambQPZ1TGy6EowzNXoJwlPu6rlEojheUAHZgKioq2fTDj3z0zsd07dGFS6+6kM4Z6aEOlkKhULQIzVEGUnd/kRJz/m60ygLMRQcC1rHkbkeryEerLATcgmguOYIldzvm4kMI3f26WLgqQY1aojjOUALYQSkuKmHl8q9ZumgZk6acwHkXzyU6OirUwVIoFIomI1yVmEoyEc4qwD3WsOYocy+UBskLr6+1TUTmBlLfngtIX+meZi8hbvUTxK15MmC+JW8n1gPf4UoZhBQaCIEzdUhbnJpCETKUAHYwpJTk5eTz2cefs27ND5w1ZyYzZ5+hOndWKBRhi6noEPHfPoolfzdIMFXkBY6sUd/rW2nUNbPW+sJlJ2HV3zEiEzx9F1rJvvrL1jsBhaIdoqygA+FyuTi4/zCLPlnCr7t+5YprLmHSlBNU/34KhSKsEYYTU0U+ptKsgPl6TFqLW9xaM39AqyxEuOyYyrIB3C2CFYoOjhLADoLd7mDL5q0s+XQZADf97noGDhkQ4lApFApFy5FmK664buByoDlKMZXngdRxdB5J4cx/t2jfyfOvJCJzAwCuuK5Is/W4HblEcXyhBLADUFVZxYplq1i5bBV9+vbmvEvmkpqmujNQKBQdAyM6lfIRl6DZS4g4/APRP3+EcFYghdZiWZN+HTeXD7sQPaEHUlP9oyo6PkoAw5zKikreeeNDNv/wIxOnTOC8i+ditaqnV4VC0XEwrHHYu09yf3FVEfXLQkQQGu3au03EmT4MhOojVdHxUQIYxhQWFPHS/17jwL6DzJ53JtOmn4LJpBIuhULRsTBV5GHd+xWmijwsOdurR/toZaK3z0c/9D1SM1M29oagHEOhaC8oAQxTdv2yh1effwOTycS1N13JyNHDVefOCoWiQ6KV5xK97X0sub94hnBzHXujZhD183xfK2AlgIqOjhLAMOSr5V/zynNvcuLUicyaPZ1uPbqGOkgKhUIRPKSB0J1BK/nzInSH53hBPYxC0S5QAhhmvPrCmyxdtJwLLzuP6bOmER0THeogKRQKRVDRYzMoHX8zorIQa9ZP2HYtRjgrW/04peN+gx7XxT1knELRwVFXeZig6wYP3/9PDuw9yG9uvZaTT52i6vspFIrjAiMygarep+LuBdpC5K/LgyKAVb2m4kwbBqo6jeI4QAlgGJCTncOjD/4bs9nErb+/ieEjhqIp+VMoFO2M1SuXIA6uY1ppEYmtuWMhkCYLQFC7aJGaxX2cILUC/uCVp4mNT2DmvMuCsn+FoikoAWznbN7wE0899gyjx45k9ryz6N6zK5qm5E+hUIQew9BZvWIJX3zyHgW5WcTEJ3DVWVOxGTFQnNdqxzEX7iN2/XOYi/ajVRQgvOMAtzKJX96LjIhGahHknf9mq+9/0ikzufuG8/js/VfplNqZcy+7gVEnnNTqx1EoGoMSwHbMZx9/zivPvcGlV13EtOlTSUiMVy19FQpFSHE5Haz7ejkfvfEcxQW5lBQXUVpUCAJu+fOjDBw2ANO3i1v1mMJZgSVvJ5bc7Z4GGsFppWHJ3wUEbyi4jB69OPfyG3j2kXsxW7axa+tmYuLj6T9kFJfdeBddevQOynEVirpQAthOef6/L7Ps8xXcfPsNTDllEpGRkaEOkkKhOE5xOh1sWvM1Lz7+AOWlpVRWlFFeVoqh6751zr7waiacfDpWmROkUEiQQW6e691/kI6jaRpnzLmIjd+vYt03y8nLOUpebhaZB/ax4buVRMXEMnXmHM676rfExiUEJQwKhRclgO0Mu93BYw89wc4du/nT/XcxauwIzGYVTQqFInRYLBGkpnchKjqWfbt21Fo+bMwJnDb7fFLSu8DR3FY/vrNTf/LmvoIwXNj2fEHs6qfQ7CWtfpz8OS/gTB0EBO9NS0xcAjff8zA//fA9VZUVICVOh52CvGwK83P4ZcsmsjMPKgFUBB1VmawdkXnoCHffdi95efk8+Oi9jJ0wWsmfQqFoF/TsN4hLf3MXtqjArqcSkpI58/wrGDJqfPCqqJgsGFGd0GPS0K1xQWulq9sS0aNT0WPSgrJ/ACEEqZ27csMfHqy1rEuP3pwx5yL6DBwWtOMrFF6UALYDDMNg4/rN3HPHfaRnpPPgI/fSu28vVd9PoVC0D6TE6XRQVVmBEMLXEE3TNGbOu4zJp52FCOb4uVL6OoIWenBGAQHcx9AdCD24HU5HWCOZcvrZTJ42yzdP0zQyuvWiV/8hyGC/6lYoUK+AQ47D4eSr5V/z0rOvMv3M07n6N5djMgWvmwOFQqFoCoZhkH3kEJ+++zK/bNnETXc/zOZ13/DNsk+ZMOV0Tj1zHlHRMUENgyV3O4nL78WSuwP/uoBCd6BVFbVo3/7DyqV8dCngHgruyK1bWrTfY5GUnMqVt/yJnzevp7SkiImnzGDQ8DE8+eCdzLviJiaeMp0Iq6r7rQgeSgBDhJSSivIKFi9cygdvL+Cyay5izryzVKmfQqFoNzgddvbs2MqL/36Q5NTOPPrCh1htNjp364lmMjPltDPpPWBIG4VGgjQC5kTuW0XaSye3aK+aq8rvELLO4wSLjG49ueq2e1i7ahnX/O5euvfuT5eeffjo1WfJPnqYWfMuIzomFqG6/lIEASWAIUDXdbKP5vDpgsWs/W4dd/7pViaddEKog6VQKBQ+8nOz2fLD97z30lPMnHcZcy65zveAOmLcJIaNOaHN3lZIsxVXfHfQnQCYSzIRzkqEoSOMilY5hhEZjxGVjBQamCJaZZ/HwhYdw4y5l3Ly9DnEJSQBMOW0s0hOSefDV5+hKD+XGedeQuduPbFY2iZMiuMHJYBtjNPp4pftO1nw3kJKSkq57x9/pnffXqEOlkKhUPjYvf0nFn3wOtmZh7j7kWfoPWBowHLNZEJrw6oqrqQ+FJz5H7z9/yV8/Q+itr6HcLnr6ulRKaBp7lfClYWAuy8/w5YA0kBzlLmHjhMahjUWaY5EuBxojlIwXMiIGMpHXUXpmKuRZlubnReAJSICS0RSwLxBI8Zy058e5uO3XuCdF57g1DPnMWzMxFoNcBSKlqAEsA1xOBys+W49H737MalpKfztX38lOjoq1MFSKBQKAMpKi9n980+8+p9/0KNPfx55/v128vpReHpmcZdAFk29F9vuLxBlWSA0ysZcixEZh7lgL7EbXwLAldiLstFXIaqKse1difXwOqTZRmXfGTgyRmHJ24lt52JM5Tk4UodQPvQCpKX9CFZKegbX3vFXPnnnJRa++zL5OVlMPu1MYuMSVFUhRaugBLCNqKqy88Wi5Xzy0SJOmDyOG265Rt3ECoWi3bB/9w7Wfb2czeu+5ZxLr+fUWecGrbuVliOqxwIRgsr+M9Fj0rAeXucTQD02nYoh8zCVZWEp2o/18DoMsxV713FUDpqDdd8qrPu/xVQerI6rW47JZGLe5b+hc5fuLF3wDmUlRUw6dSbpXXuqxoKKFqMEsA3Iy81nyWfLWL5kBRdcMo8zz5mh5K+NKS8rJzcnj6oqO4cPHKYwv4i9e/Zht9uJjLTSrUdXlaAqjkt0XWfj9ytZ+fkCDN3grr8/RUp6RqiDdUwq+5yOZi8GoSEtNhACPSqFioGzAXCmDAJAmiNxpA9HOMqREdHo8V0BMKLTqOp9Cs7UwbiS+iAt7bfF7aRTZ9K5aw8Wf/gGC958gcnTZjF87CTMFkuog6YIY5QABpldO3bz0XufkJOVwx1338qosSNCHaTjkvy8Aua/9wk/b91Bfl4B+bn5ZGflEBVtY+KJE7j8mosx2ZQAKo4vco5msnndN6xZuZS+g4Zx/tW/xRrZtnXgmkvxKX+p/uLpg9CV3I/CGY95ZwJgRCZQMXgeFYPPpfpVMjhTB+FMGYi7XqFox6Wdbnr1H8y1t/+F+W88x+IPXudo5gGmz7lYSaCi2SgBbCUqKipZtvhLJkweR3rnNIQQfLPyO95/az6du6Rzz4N/IC09NdTBPG6JT4gnJzuPVSu+xeV09/t18MBhAE6feSqaqT3Uc1Io2o5tG9fy9Ref4nI5OOvCKxkx7kQsEUFuaaqZKRtzLQB6VCdkRGAdaGm2Ye82EWmKQJoicCb1rX9f9XU8Xdd8IahzeLf65vvty5XQk7Ix1yKFCVdy/1qr6NGpVPafhTN1CHpMOnp0Sv37ayG26Bguu+n3LPvkPb79chElhQXMPPdSEjoF75iKjosSwFbim5Xf8fgj/+HUM07mjrtv4YvFK1i2ZAUjRw/n5t9dj8msSpdCSXxCHIOGDqBTchLZR6vr/CSndGL0uJFY1FO04jjBXlXJ6pVLWLtqGZ1S05l35Y2kZXRrk2opUrNQfNKf6l8eEU1l39Op7Ht60MPSKISGM7l/g2HW4zIoH35xGwYKzjjnIjK69+LLzz7ktacf5fTZFzJk1Pg2DYMi/FEC2Ars33uAD99ZwNHMLD54az5VlVUUF5Uw8+wzmHfhHFXfr50wYtQwunXvGiCA4yeNJSUlWcWR4rjg0L49fPflIo4e3s+I8ZOZPO1M4hOTjr2hot0xdPQEtwR++gHvvPAEJ51xNtPnXhLqYCnCCPXeq4UYusHHH3zKD2s34XA4KC+v4N03PiQ5NZmzzpmpxKId0W9gX3r37RlQ2nfKtJOIimk/XT8oFMFBsmnNKt5+7nFKi4uYOe8yTjv7fCV/YU5ScirnX/1bTjz9LNZ89QWvPvUPHPaqY2+oUKBKAFvMmu/WsXzpSooKA8ej/H7Vajau38ykKROUBLYTYmKiGTp8CN+s/J6so9l0zkhn6IjBWK2qh31Fx6W0uJgln3zC5rVf03vAEKbOOIf0rj3a5NhaWQ4JK+5Hmq1tcrz2zw+wEAAAIABJREFUhnBWolUVB/cYQjD9nItJz+jO118s5H///AuzL76W/gNr11dUKPxRAtgCjh7J5uMPP2XPrr21lu39dT8rvviKiSeOVwLYjhg9biSdu6STdTSb8RPHkpyqXv8qOi6/7vqV1176gIJig2lnX8Cg4WOIS0gM7kH92lVojlJsu5cG93gKNE1jxPjJpHbuwrqvl/HSv//G2RdcxNy5U0MdNEU7RglgC1j2+Qq+XvEdVZXuInchBNEx0fzhL7fTt19v0jytgRXth/4D+9KrT09+3rKdE6dOJD4+LtRB6phICYYe6lC0HgLQTDTYYrQdYegG69b8wP+eepkuvYdx3pWXkdGjF2Zz8Bs7uRJ7ISPj3S1spTz2BscJjoxRQd2/pml06d6LM+ZeTGxCIp+9/xYl2b9w021XobWL0VwU7Q0lgM1k84af+GLRMnJz8jCZTMw4+3TOu2guKWnJ9OnXm6ioqPberdRxSaQtkpFjhnNw/yEGDh6ANfL4fDUVbBxLn8PY/xPorlAHpVUQUXGYx8zCNOK0UAflmBQXFTP/vU/4btUaZp49nZGTZmCO6dlmxzci4yk87SE0e1mbHTMcMCLjg38QIYiJjeekM2aTlJzCqsXv8fd7H+XG264jrbPqhkwRiBLAZlBcVMKSz5aRefgoDzxyLxOnjCcxMZGk5ETMZvWTtnfGTxyLoRukpKnXv8HC+HUjxuEdHaYESNhi0DP6t3sBzDx0hL//9VF03eDu+++iS7du2EmioE1dTOCqp/8+3eXE5ar7oUATApPFgqY1v8ssKSUOexWapmGJaNrDndPhwDB0TCYTZkvj6wVLw8DlciGEwGQ2t4s0xRppY8wJkxjYN5Hln37IfXf/netvvoqxJ4wJddAU7QghpZR5hdlUiuBWVG1NnLodQpivVFXZKS4uwTAMEhLisdnaYAihGmmKxRTGJVeGDrrT86WeiAxSGioAl8tFRXklUdFRWELUP6MUJqSp4zY+qXrqSowju91fTJZ2P8pCvRi6+y8yGvOEOUTMuiXUIaoTQzf4cdMW/vi7v3Da9Klcd/PVdEpOQqJRWG6joKx9tHR//+X/svCdF+tc1r13fy689jZGnXBSs/d/5OA+fn/1HAYNH8tfn3il0duVl5Zw780Xk3PkEBnde/PYKx83WuS+Wjyfj15/lhNOmcHsi64hPrFTc4PfqlhMOknRpeAs4JOPPuPjDz/lyusuZc68s9qFpCpCT9gVV1U6K/j7/FvxioMQAiGqPxHC7Q6ekX0EfvO967k3xPfhGR1IuDdAIHzzfCLi2c532/itV707UWvabxX/WdReWON41JhfY9lNkx7DrIVh58W6E7F3DdqyfyKEdA/pLmR1PPj9nv5x416mB8RtwDKqt6uOTwkYIGT1Mr/PeuOmjvngQuCoHYc1468BvMeVmgl7ynjyJz55jC06BpE3P49I6hzqYDQdpwPX+oU4v2y8SIQCp8PJfx7/H4s/XsL9j9zL+EljfQ+l7a0Ads4l1zLj3EsoLy3hreceZ+P3X3HpjXdx8ow5mExmIm1Rx95JA7hcLrKPHCa9S9NaOX+7fBEHf91FcWE+udlH2bZxDcPGTmpwGykl67/9kg9efZrdO7YydMxEjHZW71XTBDHxsVx02Xmkpqfw0jOvkZWZxZU3XIbN1k6G/JMSdEfQL1ZxrFIj0eDXoCKFQGoWEG1bIBF2AoiE8qpSJNIvQ/eXwGqJE8I9KlBrSGDN9b1PUAGu5/dUFfCE1UgJFIH/AqhLOMIVqTuRFcW+1oJCGNXxqdUQtBqix7EkMGBdz00v9Fry13QJlNQpgXUlGg3EkQDQTGjO8gZ/o46EsMUiotqg/lNr47SDpQ1K91uA0+Fk+pQ5RMdEseSbT7BEWNp1hf9IWxSRtig0k4kIayRC07BFxwSUmukuF5+++wrvvvgkpSWFJCWnc+ffnmT0xJMQQpB5cC93XzuP/NwsAC65/k4uu/kuRB1DwO3YspEXHrsPizWSq2/7M4OG1/0KdP13K6goL+X02Rfw1ZKP+WrpwgYFsDA/lw9efZoFbzzvlr72Zto1iLBGcMbMafTs2Z1/P/pf9v66n1vuvJHuPbuFOmhQeAht6SOInJ3uQgHPH/il8XUVDmB41sUv/6Z2Ou6f5gsDgVHvOjULfuqf1gEHePZVX/7cUL7tvz9XTE+KRv6ZqrSJDf5UrU37TSnqQ7rvNSml757zTrs/pXsdPPOM6mn813NviO/DvVnA9t551Z+B60P1cm84fMH0TxAk1c8eMuAjYKEM/FfztGtuGN744hGk1ABRHV++3zMwbtzbmPymayyr+SlBIkCaAvbp/1lv3NSaLwAzkog64z5g1QbiSPofW6FoJoZh8P03axjYdSTnnH8Wn634CGuktV3LX2NZtvA93n7hcSoryomMjCY/5yhP/e1Odm7bzOH9v/Kn688nL+cotqhoLBYrb/7vX/zvX/cF7EMi2bd7B288/SilJcXMufiaeuVv988/sWf7T3Tt1ZerbruHyEgbC99+EUNvuDRPIDjpjLO5+PrbSU7LaLXzDxaapjFwyAD+8+LjRFit3HHz3Wz8YTOGEeoESbqrBLkcSKfT94fLUftP9592gcuJ9HyXusM3jV5zXe+0y/0WSncgPOsIzzKhOxCedYXLb3md0zroIHRn9TZ1/NU3v+b+hOFwZ35tTPiVAOLN2MH9X3h6G3BP+14NI5BCghRgAJp7WrjLmtzrCYGQ7k8pPVsL9wG82wspkAK8u/Kub0iJ5lF/iXs5nnB4S//8p/FuXx1s70fAwup9VS/1nTd+24czHjmrji0AzV0SKKUnvgjoRcIbN0KCxOQu1ZPVv0lgHPmviyeeNU8po/shwLtv4QlEnXFTa75XAkFIR6249zu9uqKv5k+gUDQZKSWlJaU89vcnWbp4OctXL6J3316hDlarMuGk00lJzyCxUyppGd14/L7b+eaLhVSUlXLg151UlpcxdeZcrrntXiKjovjs/ddqDYGWl32UBW8+z4Ffd3HpjXcxedqZ9R5v45pVlBYXcd45N5GQlMJJ0+ewZP5brFr6CaeeOQ+o8UAPJHZK4YbfPwDA0gXvtPIvEFwiI6089Nh9vPLcG/zpd3/lrj//jqnTpmCNtIambqDfw7w7XRYBC/3zieo82jutIaRRnasHLPN8yjryD3RfKWO9+UGNvKB2em9CYkVgBykDtqlxevXmB75lISJMBVAGlqCFSAIl7mUhkcBwxnvDU48E+hW/tZ4EaggMz03eGhIoEdLZIgk8bjEMZFWp+4m8XgRYoxARNr/3M8c39io7R49k87sb7qJTSjLfbv6SyA7YjZE10kZsfAIfvfYsa79eRkV5qW9Zv0HDSc3oysrF81m+8H0A7n/ytVqXyJGD+zhyaD+Dho+hd//B9R7Labez5qullBQV0Kv/YPJzshg0chxL5r/FovdfY+rMuYCkMC+X0uJCd/hsNjqldiaiia2M2xvX3HgF/Qb05cl/Pc3+vQc55/yzSE1LCUkpsv9btbaQQNCQnlfI3uM3XwIjEDhBGs2WwFCVCISpAOKWBN+vGRoJlLhnhEICw55qx6stgRh4YxhaUQJ9pYytIYEWzzIXCKkksLFIAyNrD85F/0H/dVP961msmCfMwTLlIkR82nEtgVJKCvILWb5kBe+/NZ/zLpnLBZfM65B9WFZVVvDBq0/z4WvPkpKWwZnnX8HWjWvYtmkdAL36D+Yvj7/MU3/7A3lZmTidTh666zq69e7Lsx+s8O0n0hZFp9R0co4e5psvPqX3gKFYI2vX59y87lsK83PRNI0HbrvCN18IwY4tGzl6+ACJScks+vB1vlo8H4D+Q0Zy1W1/JqNb2/WtGCymnDKJ/oP6cv/dD7Hzl11cd9NVDBzcH5MpBL0j+OcJQZZAtwO0lgR63gq1VAJDQHgKIN76f02UQDqOBIY7PrHyfK8pgWB44sezvEEJNDxxoSSwvSPtlTiXv9Kw/AE47bi++wAtuTvmcWeBueN2mdMQLpeLA/sO8fqLb7Hzl908/PgDDBzcv0PU9auLnKOZHNq3hz4DhnDt7X+h76DhHNq/B3CnoYV5ORTm5XDz3Q/RpUdvHA47V80cR86Rwxzat4cIq1vy+g4azp1/e4L3XnqKH9d/x9YNqxl74qkBxzJ0nXXfLKeoII/+Q0cRHRPnu0/LS4rZvWMLS+a/yXV33MeVv72bK397d5v+Fm1FWnoqz73+H/527yM8eM8/uO0PNzN2wigi6xDmoCH9BM0zK2wlEKPedL+9SWB4CqBH/qQ3hhsrgR7RUxIYWrzuHihmLZFArYkSaEJoAonL77WwksA2QRrISk+fo5oZER1fu6VtVSmyshSkRDqrkLqOCMuUqmUUFhSxbct23n3jA1JSknnif/8ko0sYdqfTADVvCVtUFHEJiezcuokf13/HL1s3kXs0E0uEFYe9il0/b+aF/3uA2PgkzrvyJixWK5pmokefAXTp0ZvcrCMAmEwmuvfuz8nTz2Hrhj/x/crP6T9sFHHx1eMg5xw9zJ4dW4lLSOLuR56he+/+vmXZRw5x3ZwT+eHbFVx8/R1Ex8Q284zCh/sevof57y/ksb8/wZXXX8rkkya22eghUlanz2EvgdIJonkS2NaEZbLqrZDrLsFREhiO1K6Y66ZeCZQco2HIsSUQIRC2JLTkwWjRncBViZG1HirzPPGiJLAtEdFxmMeehegyMGC+vu0r9K0raw8jp+u4b9wgopmgju5E2hIpJQf2HWTJZ8vY+uPPnDbjFE6fOY3YuJiQhqs1MZst9O4/CIe9kpS0aqlNTstg4tQZlBQVsuvnn4iOjmHclGn07DuQiAgrw8dN5qwLDvDThu9ZsuBtAAYMHcUF19yKLSoaW1Q0J0w9g179BiOEYMCwkcy9/AayMw+SnXkoQABzs4/Qo09/Jp06g4Sk5IDwpWV0Y+a5l5Kfm01+ztEGBTClcxdGTzyJHn0GYGnCCCLtkXkXzmHQkAH8+5H/sOXHbZx30VyGDB/UJo1D/EsAlQS2DWEqgFAtem0hgQKheTuCFn6RJv0uDCWBjUbii7NGS6CQ7lbyzZRALJFoacMx9z4Dy6DzEbHubhucG/+Lkbka4/A3SFeFksC2JMKG1nMopoGTA2bL3P3o22r/SPqutcjSAvyvjtbG1GskIqV70PZ/LCorKtnx804+W/A5BfkFXPfbqxg1ZkRoWmcGEVtUNLMvvpbZF18bMF8IwYSTT2fCyafXu+25V/yGc6/4TZ3LUtIzePh/7/m+J3ZKZd4VN9a57rAxExk2pv5+126+5x8NnYKPMRNPZszEkxu1bjgweOhAnnn5Cf7yhwd55onnmXfROUydNgWzJTi6IPETPCWBbUqYCqA32lsogVRLoMCERTNji4ihe6e+dIpJx+QZk1IIgSY0XyIsBLjrIUrfBVZqL+JI8T5KqgrQpRNDVjdkCI4Ehi8BN3ywJVBoaCkDMXebjGXIhWiJfdEz1yD3foGITMA89AoYdBHOzc8ij67FOPoDAj2oEuj+AVr5Rz0OcK56E+PA1uqIDwIR5/0ZcwgEUEpJTnYu3371PRvWbaZLtwyu/s3l7aOjXsVxhzXSyr/+8zCvPP8G77z2PoUFRUw97URSUlNa/2DedN8vEwgPCRR+0zXTez8JpBENQ0JEmAogBF4eTZdATWiYTRY6x3djcJcxRJitWEwRxNoSGJoxjozE3mhCQ0oDw3MRefGMI4J7RBGBEBoFFdnszvmR3LIjOHU7LsNJlbOCbUfWUOYoxjBcrSuB4YxHgKRfPDVWAhGyEf0EChACU2xnzN0nYRl4DubuUzBytuDY8DTOHR8hi/ejWeMwD7scc/cpREy8FyPnR/Q9n6L/ughK9vteC7e2BHpXVzQRk8X9F8xfT2v71o+GYbBn114++fBTsrNymTZ9KlNPm0JUVMuGRVMoWoIQgquuv4wBA/uxcP5i9u3dz5mzpzN4WBBeCUsB0jNYW3uXQHMMIm0kWsoIzwIdmb8dmbMB6Syvu2HIMVoHB/GZtkHCUgDx9QPYNAkEMAkzGUk9GNZ1AvFRSXRL6sPI7pNBSOzOSrZlrmfTwe/YdPBbDCmRGEjp6aBY1BxnWEPzlg5qGgJBl/g+9EsdTpQlBqfuoGenQZRWFVJmL2bjwRWU2gtbRQLDner6Hk2TQIFHxhuQQC0iDku38UQMmo25x8lIRxmOre/g+mUBetYmkC4EYNhLcG54Bv3ACsx9ZmHuNwfLlIfRUkZgZK1H3/EO0lnWAgmsv59ARdMxj5mJ7DsmqKml1rlf0PZdF+Vl5axfs4FVK75FILj0qgsZPW5km4ZBoagPk8nEpJNOoFuPrrzz+ge88vybzJo9namnTWnVrmI8L8w8b+cIuQRSZ2fRAqI7Yxp6FVr3aWhpY0G6AIHM24qxZwFy3yJk8V5PFTJorASGirAUQO+r19qXR/0SaNLMDMwYwdCu4+iTOpiBGaNwuKpYvWcZH/7wPC7DgcNVybbMH8gtzXTn46LpYwd3jutBv9Th2CKiMZsi6NlpEBN7zsDAoFtiX7JLD7J2/1JKKgt8wWuOBIY73kLcZklgfSOGaGbMqYOIHHkxlq4T0GLTce5biWPnZ+iH14K90Bdv/g1EjNxfcOT9gpHzE6a0UZhH34Sp9wxEQm/k0bXoexcjDKeSwNamogTXxiUY+7cEzNYPbAWjdmMP85hZbRWyoCOlJC83n4/e/Zg9O/cy9oRRnDxtSodr5asIfzRNo0ev7tx423V8+M4CFn2yhNzsXM48Z2arNkyqfpBvngT601IJ9HUxhoEQnrTImohp5E2YhlyJzNuGa839YLgQmhmRMRnTiJswbJ0wtj6PLMtssCQQb2liiAlPAcSdgCLxG824fgmMjYznxAFncPKgs+jWqQ/bMzex4IeXyC/PZsuhtVQ4yzx78Aqf91vTWwcfLTlAVskBn2hkJPTm5yNribMlcmr/8xltmkpabDc2HvyK7dnrq8+pqRIYxnjlL+AmbJEECkxx6USOupSI7idg7joO1+H1VK57Fv3IDxjF+91JSh3y5//p2rcC/cAqZGkmWudRmIdejexxOiJ1FMbexcjsje7i/hZIYHu58UOL50quLEXfspKGRlx1V7LoWBi6we5de3jthbeQUnLWuTM58eRJWIJUyV6haA0SkxK45MoL+G7VGr5dtZrs7FzOOmcmffr2avGDrS9P8HxvjgT6dxkG/nl0SyTQLRjCZELrPB7TgAuR2ZtwrfsHMmu9LyDawRUw/k+Ivucicn5EVnyGNJx1SKDDdxDZDvKCsEtxfI0vvLmuIdwteYG6JNBmieLkgWcyZ+wV5Jdl8+G6F/jp4FqOFu3HZbiqS/iE34ghniNV77FpEugvFkeK9nKkeB8R5kiyig/QNbEvp/Q/j6TodJyGnV05PzbzdXCwf+kgId1/gb9f8yVQWGxYh55D5KCZWLpPxCjNovzLB3Ed2YCevdUjfp5S2sb0E2joOLe/h3bwK4zcrZj6nIV5+PUYGZMwDixD3/EOlB/xJSKNk0CBd+xg8Dzphmv8tRChmdBSe2Ds/4ljvsq1REJMIoR51xr+2O0OPl+4lK++/Ia+/ftwxqxTGTh4QKiDpVA0ipjYGE4942S69ejC558u4/n/vsS5F85h/MSxLeucXPqloZ5Z7UcCBcIcg9bjdJAGru1vYxxd7zs+UmLkbYWdH2BOHIBIG4s48j2yMrvGmx+ze1+esYN9Etj8X63FhJ0AAh4B9Pyqx5DAHin9mNjvNDIL9vPppjfZcWQzdleln3lXX04Bw8ZVH63FEiikxOGqYuOhr/klexMVjjJmDL6Usd2nsTt3C1IazZDA8KZmvb0mS6AQRHQZQ8zJt2NOG4SwRFG54TUcv65AP7IZ9Cp34iBwx4dn48Z1Fi0xyrKQP7+LcfQH9G5TsIy4DtPIm9HSJ2D8+in6ro+QekUjJdDbIszRMSKvJVismCefj6nfeI5pwZoZrdugkDTMCAYV5RX84/7HOHoki0uudNf1S0xKCHWwFIomEWGNYPCwQSQkJvDZx0t485V3yc3JY/qZpxER0byHNe9Dce30vj1IoEBqVkTSAKS9CCNrQ92tgwt3IUsPQVwPpDUeKrID8gV32m9CYg2UwGb9Yq1DmAsgHEsCk2PTSIpJYd2er9iTvZ1KR0X1K15B3V3EBEkCJVDuKOGX7I1M638+naIziDTbqHSWN7lhSNhTU+oaK4ECTFFJJJz9CObkPlhSB1C18wsq1r2InrcLWZnn3qcI3HfTJRDQXRi5OzCK92Nkb8bU6wwsw69HJA9GdJ2CseMdjCPfIgxXkyWwQ8Rhc9BMaGm9Ia13qEPSpvz803b++ffH6dGrB7fceSMjxwzvcH37KY4fhBB06ZbBBZeeS3pGGiu+WMXRzCzmnj+blLTkY+/AH09iWP/gAO1BAr17EXg7iq8lgd7lho63oWrd/QTWIYEhyhDCVADxE0BoSAKdLgcu3cmJA2aQVXyYb3cupcJeilcB2lICNQTJ0RnMHHw5cbYkMkv24tAd1fLQBAkMd/x7fYfGSaBmthE39bdE9j8FS5cRGEWZ5L9xEXrRIYyi/e51PfenpHrngRIoaNKwcUIgHJUYR9cjC3cjj6zDNOgiTL3PREsfi7FvCfq2V6FoT8ATXYMS2GCtN0VHwuXSefX5N1i8cCmXX3sJk06cQOcu6aEOlkLRKiR1SuSMWdPo2bs7H7w1nyf++V+uuuFy+g3o06QHHHee7p6uXwKrM402l0DdgZG3HXP/c9C6TMZV+GuA/EkJWqehiPieGHsWIqsK3edFIyUwRISpAHoithESWFpZQrm9lO7Jfblo4o3MGnkhS3/6gDV7VlBSVeDr6y1oEojApJnpFJ3G7OHX0TN5EJ2i0xFCo6yqCJfudB+vqRIYztS82fGbrkMChaYRNWQGsSdej6XzYNA0ij6+C8ehTbjy9yCQCBHYMERoBDxZBSYqTRw7WAiEAbKyAP3gCoy8LRgHlmMa/htMg68AWyr6hv+Dwl8aVxIoTeEfh4pjUlJcyu9vvYfysgoeeux++g7oQ2SkNdTBUihalagoG8NGDCEtLZW3Xn2Xh/76T2658zeMGT8ak+nY9QK9D+v+2XndEujuny8UEoijHNfuRViGX4156FUYRfswMr/H3S2ZhqnzeEyDLgEpMbLWI6sK6xS/+iUwNFlCmAog+IZzO4YEllYWU1ZVyk8H1iKlpF/noVwy+RbOGXsVVc5yPvrhZbZnbqLCXopTt3v235AEei+q2hLo3cZssmCzRJESm8F5o28mOaYzJs1MrDWegoocvtvzGSf0mkFxZb5b8vDvUbyREhjGSEStm909v24JjD3ld8SOvxhTbCpl696ifN1ruIoOgau6np+bBrqIoWai0gwJlBpS15FlWYijG9B6zYL0MYiYzmC2VRfONkICoeM0bFAEIqXk269W89T/PcMJk8dzwaXz6N6jq3rlq+iwmEwmOndJ54ZbruHzT5fxz7//myuuvZTps6YRaYsEYPHCpYwdP5q0zqm1tpcS3yhPXpovgQJMEWi2WLTIGLSYZDTNhF6SCc5ypKMUaTiaJIEiKhXLuNvAbEVLG4l11qvIon0YRbvR4rojEgeAxYb+w2MYh1aBoQfm6TQsgaHK1cNPAKVfCeAxJRBKq4ops5fQyZLK+2ue52D+HqYPP49pQ+eQkdiLm079K07dQXXrYoO9uTv4euciDubvxqU70aXL3Rk0EqG5JU/TTJg1M2aThZjIOIZ3ncj4XtOIi0z0tSrWhAlbRDQOl539eTt4bN2tSKkztsepOPUqiirzfa2Z/V8XN0YCwxoJyJrPZjVuZr+bMCJ9CCIimuwXzsOZtR3pqMDbrYv/dm6aKoG6L4FplARaYjEPvgjL2NsRtmSMo+txbXgCmbetdiltvRJYXbqp6Fg4HA7++/hzfLHoS+554PeMO2E00THRSv4UxwXxCfGce+Fs+g/sy/89/BTbt+3gxluvozC/iAfueZhBQwbw2vsv1GgxLKobgbREAoXAFJ9B7NQ7sA2e4XnY1sB7LEN3r2m4sP88n6oNL2MUH3bLXwMSKOK6YrtgASK2C65fl+Da9i7WUx9B6zwGLX2UO/zF+3GufgBj9wLwNjL1yz+OLYGRgSfeRoSfAOJXAuhXCle3BEJJhbsEsHfKACSSwvJ85q9/hYUb30TTBEkxKVx4wm8YmDGCGGsctohoRvU4keHdJyANn2bWifAeCuHu3gINp26n0lFOqaOIpdveZvPBb0CAIXWcuoOYyHjiIzvhcNkpqsjznQ+e18UBF0kDEhjuuLtG8cZjNXVJIJoGhoFeWoBRVe7Xutc/UWiuBJoaJ4HCjKnbiURM+Qta8jCkvQjn9/fh+vlNdyfRmsndYWhj+glUdEiOHsnm3jvvx5CS/770OH3792nUKzCFoiNhtVoZNXYEL7z5NHfc+Eduvvp2Dh44TE52Lnk5ebz16rtcce2lNbYSnjxBNksCNYuNhLPuJ3r0Re7hIl12XPl7qdr+GVXbFyPQsQ6aSeTgszEn98M27gYix1xD5eqnqNr4ClQW1CmBWuowoi9ZAkLg2vIm9m8eAOlEP7CyehAIYYB0geFwdwztyWuaJoEQitwhPAUQb2Z+bAmsdFRQWllMtDWWSEsUUkqcuhOX4QQElY4DPLHkXjT/UT8EaJqJ9PguDOs+gc4J3UmJ7UxqXBdMQqPKVUlBeS55pUfZmf0ju7J+pMJZ5hsxxCdqQnoEEd/FYhJmEqJTcOhVFFXm+a4U7/kI0UgJDGO8USdF4yTQu1RK4evgu+5EIQgSqAlMCT2xTvwj5iEXuROWHe/iXP0wsjILLbYLlpMeRUSn4fz6D5D747FLAjuAwCuqMQyDLz7/kqf/7znOOHMaV1x7CYlJiaEOlkIRMjRNIzYuhhfeepofFb/1AAAgAElEQVRbrr2T9Ws3IA2JjuTvf/knp82YRoZfYygp3U/1vh4zDNwJqEcEG5JAc1wqnf+4Bi0iBr34KEWf/5XKnxd5un91ry2ExJX/NBXfP40ArEPnEn3yXUSddDcRvU+hbOkfMHJ2BEhgxOB5RM9+CemowP7N33BsesG3P4zy6jqCHgn0jhhSZxcxx5LAEBGWAog0fBJxTAlEUlJRhMlkISoiOkAc/UcM8V5vnucQpOEis/AAR4oOBnQW7SvxE/heB7uHhqsRBiGqi6cFeBuGmDQzSVFpvhJA9wXgL4G+TTu2BPp+m2NLYLUB4lfBN8gSKDREVCKWgXOJnPYvpG5HP/A1jrX/xDiyHhEZj2X8nzCPuhFh64RxdF31efnf9N7w15DA4xqXA1lWALqrgZUERNgQUXFgap/JlJSS0pIyXnzmFZZ9vpI/3ncHp55+coe4PxWKlmIYBq+/+Dbffb0ap8Ppm+90OPn9Lffw2vsvEBFh8c135wl+Egi+dBvqlsCI9IFk/G4ZaCbKf1pAwbs3eUrlPOmsd1oK976EBCGxb1uAY+fnxEx/iMjhFxA7+3lKP7sJI2c70hxJ1Il3ETnxdmRFARWLbsC1b0X1myf88y9veDTcBTiy+lyaIIGhon2mrMfA8FwZMqC/j/olsLiikCpHBXG2JCLMVhwuu2+b+sYOhsAuYoQATWgI4X7qqJYKd8w2dtg4s2YhMSqF3NIjFFcW+F0Y3vX9jk39Ehj2BJS2NSyBntWrSw794qnVJVCTaJFxmNJHEDX7RbSIOIy8HTh+fAXnltcQ1jjM/eYSMe5WtE79kJX5SLu5OpAcWwI7wiv8ZuOswrnyDZwrXzvmqsIWR8S8uzENnQrtTKocDge7f9nDS8++jt1h58nn/smgoQNDHSyFot2w4+edfPzhp1SUV7rfbHkSXcMw2LhuE6+/+DbX3nSF58HeP01unASa4tJIv+49AIqWPUbJV096CnECjMC9nVcCfUhwVlG6+PcY5TnYxl1H9LQHqVj5ELZJtxDRfxZG8UHK3z8XvXBvtV5AAxJoAvTmSaAkJPlCWAogUnquicZJYHFlEeX2MhKik7Cao7A7q/C/TI4lgQAx1gR6pfbHZokis+gAuSWZuAxXkyQQARaTlRhrPHtzt+FwVYH34vGTQHCHpyEJDGuk383DsSXQbzO/7ZohgTQkgQItIhYtqQfRpzyAucdkjJJM7DsXYf/qXoTJgqnLCUSMvBZz31kYZVk41j+F/utiLBN+j4jtXB2+um567wn4X17HIdLlRN//U/UM4U2yA9YCKZGVJRiFR9EcVQirrS2DWS9SSkqKS1i57GsWvL+QCZPHc9nVF5GQGB/qoLUZhmGgu5z1LjeZLS0bFqyF+HpxaCCtNAwDh91OWWkRhmEQExOH1RaFydQxRp1pDwwZNoiX3nqW//vHk/y0eRuFBYXk5xbgcrmorKzi+f++xJSpE+mfYvM94Ven39USCATUCxQAEZF0mvsQWlQipWvfpHjFf/C3v8ZKoADKVz2GFpVC5IgLib9mOVJ34MraQsk7cxHOMrzVuI7ZWTQAJqRshgSGiLAUQO9rXAPRKAksriig3F5KYlQykRYbxRU11j2GBEZabJw88Cwun3w7Uhr8nLmB99Y9w768X9wZVSMlUNNMxNuSMaRBQUWue80anUW7n3qqwxMuEuhyuV/nmUymY4fP72ZvjAT6b+eN5mZJIAaI6krGvkvEHIklpR/WIfOIPOG3brn79Uuqvrofo/BXTPFdiBh2MRHjbkVWFeHc8RHOH1/GyN6MiE4JPC+aIIFhRmMy1sbtyF1XBnMEWqcMhC0uYLFRnIMsyg54iGsPOB0uju4/xGcff87qb9Zy+TWXMHP2GaEOVpsipSQ3K5NtG9fWu87ICVPolNr2nV1LKSkvKyH7yCHSu3QnOiauzvUqy8s4fHAvP29ezxcL3qGstJhTZ53LiPGTGTB0NNGxsYT+Jg3jhMKP1PQU/vWfhwHYvvUXnnj0Pxw9kkVOTh7FRSX866EneOyBm4mkOp+rKYHu6lOBEhg98DQi+07Gfngr+Z895MkTmt5PoDvvkJR/9Qjm5L5YekzCdXgdpe9fCq6KBlsHY7aiRacgbEmevN6FrMiBqnykdDZJAhuLu6cS0LTWuTbCUwDxmnfjJLCk3F0CmBidTKTZ5nvN2lgJjLREkxyTTqWjHKdup1fKQCb1m46mmcguPkS5oxQpDZ/F1SeBJswkR6fh1B0Ulud4LoTmSWB745efd5KXm090TDQ9e/cgITEes9lcryzUKgH0ftYhgdJvG+/N01wJBMPzuwKa2X3TdxlFzOkPAeDc/y32H1/HsWMhQhhokXFYhlxExIQ7MLI249j0PM6dn/hKdH1Pb1IAmie+5LElMMxwuVwcycziaGYW6Z1TSe+cRoQ1okUyKOJTsMz6LaaBkwPmO1e+jnPFK1CjlMk4ugfsFc0+XqPClNwNEVO7AYfdobP1p10sXvUimqZx/z/+zIDB/YMalvaCNAzKykrIyzpCfFIymQf28ul7rwCQm5VJ9pHDdO7awyd9Gd17BQhgWz20Ohx2ln/6AZ+89QJ//fcr9B00rNY6VZUVfLv8M95/+b84nQ4SOqXQKTKdLxd9xLsvPsWNf/wbsy++BrMldP10FhXkUVSQR2KnFGLjE0NamtqaDB42kBfffhbDMFj2+Qrmv/8JToeTFUu/YoauB4hRQxIoIqzEjjsPYbJQuPxJpF860VwJNCoKqNz0JqaUQRhFh9z5ua90r6YECoQtCXP3KViGXYq556mAgXRWov/yIa4d72Pk/Yx0lja6YUhDSClxOp1kZ+WQfTSHTsmd6No9A4vF0vCGjSA8BdBbN6CRElhUUUB5VSm9UvsRGRFVuwXxMSSwrKqE7ZmbGNRlFFERMVQ6ypnSfxYTep/K97uXsv3IJg4V7KGkqhCJXq8EapqJpKh0nLqdgvJcqjuBbroEtjeWLv6S1198G3tVFZdcdSGjxo4gqVMig4YMJD4hHosl8FILLMk7hgTK6o0C61Q2UwKFwJzQBXP6EKJPugNzcn9cR7fgPLCa/2fvvOOjOM7//969fjr1XpAACYQA0XvvxabYGPdeY8eJE3/zdXpx2jdxYjuxf07cu7HBDUwxzZhiA6J3BEiAhIR6b1d39/fHFd1JAiRQ4UAfv/CtdmdnZ9vMe5+ZeR7ztr81mvxdQKcgoNQWYN33hgf+fI7hA4GuLv+LQKDPOfmJzGYLa1eu54W/vcy4CaOZd9NcomIiSezZg9j4GLTaK4PB1si24nnk3CMdahnULv416pHzmq2vrLfyfVYuSROG8MBj92I0Xh1d0h0pWZaoriwn6/hhso4fZt+OzSy88xEmz1nIsLGTAVjy+ou88++/sPj+H3LTPY/67F9WXEje2SzsNhuCKNCjVx9i4hORJYn83DNUlBUTFhFFbXUVgiCQmJyKIkvk55ymtqaa2IQkbFYLlWUlpPQfREhYBIoiU5ifS2FeLpIkERUbT2LvvqAoHNm7g68+ehOL2czJo/vRG4wk9Ez2KdOJw/tZtfQ9RFHFD3/5V4aPn4pGo+W7jat49+W/8c3qz5iz6G7UGi0nDu+noaGOhKRk8nOz0esNpA4chiQ5KMzLpaQwH0EUiY5LICYhCY0LGrMzj1BVXkra4BEEBAZRV1tN1rFDGAJM9EsfRlVFGadPHCU4NJzA4BDOnT6F0RRIUnIqpqBgjh/cw6ql75DSfzCDR44jKTmVsMhoVFfpZKi2ShRF5sybyZx5M6muqmHnii+wFtrQetXtF4NAbVQK2tg0bAWZWHL2oSiyL+BdJgRaT67HMOZxNCkzEHTByA5LixAoGkLRDr4f3cgnUepKcJxeC5IdtCbEXrPRxo/BnvFPpLPrURx1rbIENq3S3NBXVFhCXk4eJSWlrFu1ke82b+fhJ+7n4SceaJdhJ375RMkeehBaBYH1ljpqzdUEGkLQaS5sAbwQBFrtFnaf2UJ5XTERgTGU1OQzIGEk6T1GMil1HtPSbmZ79jpOlxzjTOlxyuuLcEj2ZhCoElSEmaJRixpCjBEYtIGYbXWuB6z1EKg4FKqralBfRRWC1WJFURQsFivvvPYBAAaDngceu5eU1GTCwkIZPCydYJOr4WxmyWuFJdBtAaSxomgrBIqGELQ9hmEYshhdyjSk6jwsR7+kYcs/kOuKXK4DvPd3xZTzFIIm98hnE4rinnRycQh0SApWq7W9Ln+Hy2ax4nBIWMwWvt24lW83biXAFMCUGROZMHkc0dGR9E3rQ3RsFFrttRflxKTXMHZIH0xjhqNWX9vjxCTJQUlBPpmH9pF94ggbv1pKQq8U0gYNJz6pd6vyKC8t4osPXuOblctwOOyY6+uZMvdmHvvfZzGaAlm19B3Wr/iEgcPGcO7MSSKi4nj46d9y+uQxVn3yDqVF5xk9eRYlhfkc3b+LP/9nCeOmzSU78wifvfdf9u3YgsNmIzV9KHc//jP6DhjCx2/8i/PnzqAoCu++/Dfm3Xo/Dzz1K0+ZZEni+MHdFOSd5b4nf86wsZM90DZx5nzqaqoJjYhCq3OG63vtH7/j1LGDzFxwG5u/Xk6f/oP4zfNvcuzAbr7+8iOO7stArdaQPnwMC+96hP5DRmIwBvDBf55j+6aveWXpBtIGj+DcmVP84an76N13AP/6cDUnjuznDz+6l7RBw0lOS2fjyk8JCQvn1gefZMrcm4mJT6R3v4Ec2buTbetXMmzMJNKHj6Fv+lBi4hJRt4Plp6tlt9spL6vg2OFMIiLD0VZom9XtF4JAXeJQRF0ANZmbke3WC1gO2w6BsrUe+7ndqEf0d1oC60pQXJl6IFClQZ04Ae3Qh5FKjmLd9W+knM1Oo4HagGbA7WhHPoV66OPIVWdRSg+jKI5LQqB7m81mp6SohKxTpykuLGbHd7vY8s13VFVWecopOSRsVmu7tB9XD0G0QW4LoNgCBAruQLBeECjJElX1FWjVOozaAE8ebYFAu8POycLDnCo6giDA6ZJMtp9ax6jkqaTGDGJo4gRmDljM7rPfklV0mMLqXE6XHMdsr3M9cAqioCI8IJogfRgz0m5FLao5VribvIpsFEVuNQTWlFhY/tlKROHqaYhOHDuJ3WbzWWc2W3j1pTcBCAkN5omfPMrsOVNIcCdoJQS6AcwJWE3TeO9/aQjUpUwlcPrPEVRqrFmbMO//CHv+bgTZdsHZwe431D1TraW8vbc3zjxuGQItNoWMo0UcLFhxJZe8U2WxWDh88KjPuvq6etasWMeaFesIDg5i1g3TGTF6GGnp/ehlsdLezZQqdQxieHyHWk+FiIQW19vsEkdOnCWn4DNKikoZOXY4kVERV+V43CtV9vHDrPj4bbauW86oiTO4YfF9TLnhZnr1SWt1HuUlRRScO8uk2QsIDotg3/bNbFy5jBHjpzJhptPCaq6v4+yp4wwZPYHefQdQVVnOio/ewGgKYuFdj1BbXUVZSZEnz/q6Wpa9/f84efQg0+ctxmAMYOu6Fbz699/wt9c/ZdTEGeSdcVocx02dQ9rg4T5lqq+rpaQwH53eQFRsAlqdntqaKo7uy6Cuphq1WkNtVSVVFWVERMcBYLfZOLJvJ5Pn3ERyvwHk557mw1f/iUaj5aa7HsHhcHAgYxtLXnuBh5/+HQOGjmrV9ZEkB0Xnz9Fv0HDm3/4AR/buZMWStwiPimHc1Ln0Th3A6RNH2bFpLccO7Wb7pq8ZMnoCt9z/BMn9BqJW+x8ESpJEbU0du3bsoaS4lOyTp9n67fc8cc9cUgUVEo116sUgUBPZG0Gjx5p/FMXh8AK0liBQ8axsDQTai45hkOyoY9KxFxxw8URjWtEUjSZlLtgasO57C/vZzQjuPB1m7EeXIAb1QDPkYVTRQ7BXnEJwNDjp5CIQaLXayDx+kn3F59m/+yDfrN9MaXFpi9fx+LGTrPxyDQaj8Yrvid8BoBumFMVt9fOFQGfT3xwCK+vLsTtsBBvD0Kg02BxuWGk9BDaWwAli5XUlrDv8KVtPrGZU8lR6R6bRL24ow5MmUV5XzO6z31JtLiOzYD+ldQWoRDXhphiqzGXklJ1gVv876Bs9hLXHlpBVfKjVECg7FOrrGhCFq2dsiM1mb2bGFlUiJpOJocMHkdynN4ri/PKDFr6ALgKBTbuAaZbGe/+LQ6A2aQxiQAT1379Cw573USwVjWa8lmYHe/1zL7RUQXmqEM+xLgyBDkmhsKKBnKrcy77enS2bzUZleWXzDQLotFqCQ4OxWK2cPZtLSGgIPRyOSwOgLEFDLUpNmc9qxVrfIuRppj1w2eW/UoUF6bl79Fh2GYeybfN2Tp3MYubc6aQNSL3mZo4e2ruDTas/Q683kj5iLDMX3EFgcEib8ujZJ42b73kUh91G4fk8AgKDAYHignxPGp3ewLipc/jRb/6O3W5jzWcfUFZSxJ0L7+Cux56mpqqCutpqivKd70ne2WxOnzhCj14p3LD4XgKDQqgsK2btFx9z7mwWcxbdzXcbVlFXW82COx9uNgbQZrNis9lQqVSIovOelRYV8O7L/8eZU8dBcbYrf31tqQcAtTodN952P7fc9wQNdbWs+fwDqsrLuOORp1h03+NIDgefvvsKn7/3H7IzD5M6cEirro8gisQn9eaxZ/6I3Wblm1Wf8to/fs/JIwcYN3UuAL379iciOhatXkdu9km2rV/JwOFjSezd128AUJZl6urq2bf7ADmncygpLuPTj76gtLQMvUHPLbcvZP7Nc5G+yGxmybsQBKoCIxBUauxVRSiy7DnWBaERWg2Bcm0xiiyh7TMTQRvgGr/qqt8FEAyhqBMnIFVk4zi3o3n7JdmRzmegTpmLEJ6GoA1EsZs9FskLQaDDLlFSVMrZ02WYG8wEBwdRW12D1WprNua/qrKKczn56PS6K74/fgeA4G6gnY3qxSFQ8NydyvpyGqx1hAdGolUbsNpbMp+2HQIVxRltZNuJNXx/ci3piaNJiRpAdHAPpvZbSKAhhAO535NXkY0oiATqQ8kqPsiyPa8wPW0RQxMnMTPtNmrMFRRW53CpMYGgEJJg5MnZj6FWXT2VgNVq4/jRE9hsNkyBJoYOH0zawFTCwsOYMmMC/fqnAqA47NiOFDWCVCsg0C1vX1E0SdNaCFQEEcXegDV3N1JDFYLgnB18QRcxSuPRFLzCFeFbiXjKh3cF1Ji398tu0ovcMjWZGdN/fsXXvbNUW1vHx+8tI2P7bgQBNBot0bFRDB0xmOQ+vUjqmciEKeOIinbOiracXYJcc6HcXPfHXIvj0EaE3CM+W+XzJ0GROu5kLlOBQSbmzJlJUq9Evlz2FZ988BlTZ05izLhRmAIDurp47ab0YWO44+Gn2LdjC5+9+x9KCs/To1cfxk6dTWh4VKsmJZw9dZxDe3Zw7MAuyooL0erc8zwbpdMbSErphyCK2KwWamuqMBpNBAaFIAgCQSFhGE2BnvRlReexWi2UFRfw9ecfoNXqKT6fT0BgEIV5OSQlp160TAGmIExBwVjMZqwWMygKIWHhzFl0NxWlxezcvI5zZ7N89lGp1aSkDQacE0gKz+VgNAUSERPn2R4SFoFao6WirASLuXWTlFSiivDoWERRRKvTExYZjdVipra6ElmSqCgr5si+DDIP7eVAxjYiY+KZPHsB/QYO9XRbX+06nXWW77ZspyC/kG83bCH71BlkF7CpVCIDB/XnocfvR6fTUH+B3pUWe1sEFSCgSA5PuNaLRwxpPQQqkjNesDpmEGJIT8+5eAz9ohrBEAJlJ5Dt3mMEaVy2m1FkB4gaV5vhTnBhP4FGo4Epoycw7p4xlJWWs2vHHrJOnibnTC4H9x3mfH4BNhcMTpwy7voeA9ho2LsUBDbencq6cuqt9YSZotCp9dT4ULWbQgDx8iAQBGRkDp/L4EjeLoKMYWQVHSLYGE6f6HRmDbgNvSYAQYBwUyyT+y5ArwlAFER6hPahZ3g/Cqpz4BITQ/ByqHk1KSAggIlTxtErOYnIqEhnV+DAC1hHvF92Lg2B7n28LYButRUC3Rn6wuSFnUUrXvs4j+/8HPRAoI+JsPE8PBWQIDrvI1IjWHqn9xMJgEajIb5HHMNHDmHAoP7ExsUwYvQwEhLj25CRgKBzdl0olnqkEzsvnlalQbiKZkGKosiA9DTCwkP5Zu23bN6wldwz55g5dxo9khKuiS7htMEj6DdoOINHTeDE4X0cP7iHbetXcj7nNNMX3EpKv+aza5vqm5WfsvaLJdx09yPcsPg+sjMPk5152CeNIAgemFFrtBiNJux2K2ZzPYqi0FBf6wQ1lzQ6HaKoQqvVERYRjU5vxBQcwshJ0+mdOuCSZdLp9cQn9kalVpOdeZhBI8cRFhHNont/gCxJFObnkp972reMCGhcY1pFlQq9wYjDYfeAnqIo2KwWHA4HOr0elVrjeQZkWQJFwWF3NKu4FEXB0uA8T7dPQrVag05vIPf0SdZ9+TH7M7YSERXLlLk3M3D4GFIHDEFv9J8PDVmWWL18Lfv3HMDh8P2gCwwK5NEnH6RPajJS8TmfevlSECiba1FkCdEYioLo/Fi8RMSQ1kKgYAgFQcRyagO27M14WhLBuV00hKBNW4BgCEcV0Q+pcH8jbbgSiuH9nNGhqs+h2MxN2gQVTk8UvrODvRURGc6NC+cAUFhQxP49h8jLzePUiSz2Zux3Po/tVM34JQDKrpZZ8MDZpSGwos5lATRFotXoXRDZBAIFNwBcPgS6H6eahgo2Za5AQCApog99YtIZGD+KMb2nExYQxcwBt6EWNciKRHbJUcrrir0g6NIQeLVp8vQJTJkxkd7JPVttmm41BLorB5wW3UvFDr4YBDYeHA/zO3XxiCHuXZzHpxECFd88PRZAHwgUEBSVTxeAv0mn0zF2wigioyMZOCiNXsk9L71TCxI0OtRDZqGU5qG0aIV3JwQxKgkxNsUZ3P0qU2xcDIvvvJmD+w+z4etveeOVd7n5tvkMGprebMa7P0oQBIaPm8KQURPIyc7kyL4MqivKKT6f1yoALC8txmG3MWDoKJLT0lm3fIkLdlq27Or0BhJ6phAUHMbBjO9I7N2XsuICso41Og3v3XcAwSFhmBvqGTpmEmER0Sx7+2W0Oj3JqQOor6tFbwyguqqC6spyGurrMAaYfM5pyOgJ7N+5he+/WY3dZmP8jBtQqzXs2raRrGOHUBTlgha2AFMgqelD+fbrLzi46zv69B+M1WLm8N6dhISG0zMlDb3BSGBwKBqtjtMnjhEVm8CubRuw233HR0uSg3Nnsji4+zvCIqI5kLGN0IgokpJTqSwvRaVWMf/2B0kbPJyefdL8xurnrT6pKTz8xP3k5eZTVFjsMVyoVCoW3b6Q6bOnNiZ2GwUELgmBtvI8FIcVbXRfLGf2oTgkZz3bDhCoikhBUGmwZq7FeuwrZ6Yu+BMEEHUmFNlOwKSfo02/A0t9CUrNeVfdrkIVNwx1yg1gNyMVH0Kx1/tYCRsnFjoL7DE0XOAaxsbFcONCp0ul/HPnOXLoGHEJsRgM+iu7OS75ZU2luMZqOC9j6yDQaQGsIzYkAZ1a73wYm7bwPhDote4yIdANcbllWRRW52LUmkhPGM2WEys4V5GNSlQDMmV1ReSWn2zi4uQSEHiVqX9bwmC19LJzYQj02Y+LO4u+FAR6slJ8j+1UCxBIcwgUvCGQRoOe4i6jz73yhkDXzDSlmUHgqpdGqyFtYL8rD3em0qAaMBH0JqfrhItICI5CjEqCq8gC6C2D0cDYCaOJiIxg49pNLP3oc3LO5jJ91tRrJjKISq0muV86vfr0p6a6stlEL0EQEMXmzt+HjBrP0f27WPr2y0RExxEYFIpKpaa81DmpQxBFRJXK9bHtzCc1fSgzF97OxpXLWPbWS6SkDUKnb2zoIqJjmX3zXXzy1r9596X/Q28wsnf7t9x0z2MIgohaoyUlLZ2s44f4/L3/Mm76XObf/qBPuRJ6JnPLfU+w9O2X2LTmc44f3otKVHH6xFG0Oh13P/4zklKcXcmiKCKKIoKr5tBodQwcNoapN9zC9k1rqCgtxuFwUFNVwYwFt9F/8AgEQWDwqPEc2rOd1Z++x9EDu9BotYiiClHV+ByLonMc4vIP38DhcHA+5zTDxkxi2NjJaHU6evRKISI6FuEqGufdVimKQkhIMDq9DlEUkSQn/A8els4jTzzgGwfY9T93O3AxCLTkHUO2mjGmjKFm95coDtslw8a1BgIRRbSJo1AEAdv5I8iK4DQyebU2srUe++mt2JMmok2dh2iKQSo8gFxfiCo8BXXCWMTQ3tgOvIVUfBhFljxtSFMIdJ6n3NjuXeJ6JiTGt623pRXySwB0N/+yNwS6110AAusttdSaq+kXn+4CQGc+F4ZAwRndw73uCiFQQCQ8IBqLrZ69OVvIKj7shALBWfk5rcfNYwdfCAL9Xi5LXmsg0LOL22rXgosYH1M+F4ZAH5hTmu/bFAI96b0oz3kfnBWJogg+b24zC2ALENhu9nt/ldaAKm1cV5ei3dQnNZnwiDAO7D3EujUbOX7kJPc+dCeJPROuGSe+okpFSFhEs/Xjp91AbEISffoP9lk/YeZ8omITaKivQ1Sp6Jncj3HT5hAVm4BGq2XmgtsYPHIcvfs2dt0GBocwZe7N9E4dgCQ5iO3Rk7raas6fO4vG5Wdy6g2LiElIpK6mGoBpNy4ifcQ4RJUKnd7AjbfeR7/0YQiCQHR8YrPyqlRqBg4fzcOBv6Xg3FnPpDRBEDEYjQwcPgZToBPe7/nhM9TXVBOf1Muzf1iks8t4wNBR2KwWAExBISSnDiAk3Dn+ddSE6YSERlBbU4VarSE+qTejJ84gMLjRwbgoivTolczcW+6lob4WrVZHj959iIpteRa6v8lms7N6+dds+HoTD/3gPg4fPMpXn69CpVLzi9/9T4sg07QduOWH8zQAACAASURBVBAEmnMOYa8qwpg6HnVwDLaSOle9e2UQqI0fhiayL/b8A0i1Jc7II64Pm0YIVHBUnaP+uxcwDL0H3cBFaBLHoFjrEPQhyOYKbPvewHb0ExRzZePxael8BARBRFEaJ7J0tvwSAJ0goKAIQiMECo2D81uCQIcsUVlXjkFrRK81NubTSRAoIBJhisUu2ymrLXLOLsINJ4qn/K2FQH+X8xxbB4HN97sSCKTRAqc0Se9J0AiBzvsseI7t+xIL0GR7ixbAFi2B1zkEXmMKCw9lyvSJxMRGs2rF1/zfH/7Bgz+4lxGjh7WLx/6rVUkpqR6LmbfCIqIYM2W2z7qefRqtx336D24GjSeP7OfLD1+n74ChTJw5n8ryEipKSwiPisFgdHblBgaHMGrijBbLolKpSOzd1+kY+iISRRXJ/dJJvkRX9rAxk5qtEwSByJg4Il2TQFpScFgEIydO91mX3G8g4G4bAAEMxgDGTLn2QgnWVNfw9mvvk33qDDfeNIepMyYxbdZk8vPOM2rsCEaNG9F8J9dlaQ0ESvXV1B5cR+TcHxMy8R5Klv8VJLvXZEnaDoEqNQEj70E0RWA/8pVrMgh4u4jxQKDDhqP4GA3bX8J2ai2odS4LuAzWaqTyTLBUetDgwhAouM5TvKT1r6PklwAIbktL2yCwoq4Uu2QjNCActajBLtnAC8A6FAIFkYjAGGwOC1UN5R74vFwIvBbUWgj0jAH0grZ2gUCaVgq+EChq9eh6T0Y/+DYUhwXZUu1rNRRaBkufCqclCEQA5dqwDHWrUSq1igGD0giPCGPHdxm89d/32b/nIPc/ejcmk+nSGVznCgwORSWqWfHxm2xb/xU2m5Xa6irm3X4/ib36dHXx2k0CAiqV2uOK5lrSqRPZvP/mR4gqkXsfuouhwweh0+swBZr4yz9/T3hEeIsTA929KR6XWVwcAqu2LyN4xHyCR92C+fReavavxu0nsO0QCKYht6JLmYyg0mIYOB+5oZLaHa8hyPaWIVCWkWoKkGsLnKjgKqtzWfas82l/LgKBdFHPkF8CoK+lpfUQWF5bhtnaQERgNBq1zuUL0AvUOhACRUEgPCCK06XHsTscXvM4Lg8C/V2+YwAvDoGNOzXZTtshsFl+zSoFUEQRTXQqQXOfRR2egqDWYj64FHveXk/Z3Wmbdv/6AuoFIFDx7N2ta1AxcdHMXTCbtIH9+M+Lr/Gjh/6Hv/37z8TGRXd10a5qxfXoxSM/+z1V5WXIittdiJqo2HgCQ5rHZ/ZHCYLAwGGj+deHq326hP1dkiSx+ZttfLbkS4YMG8TcBbNISIxHrW5EjL79LgLxno/71kGgvbqUklUvEv/Av4ha/Ads5XlYcg9dFgTqU6diGvcQABXLnyFoylOYJj6BKiyR6q9/Bw5LyxCIb76NoNc0drD3tpYhkKYRpzpJ/gmAeFlvLgSBNJ8YUl5bhtnWQHhgFFqVljp3Zh0MgQIigboQtGo9pbWFzsenyZTUtkKg30tp+nJfBAJxfyF67YfXbxsg0L2ueXeuc5vKGErQrF+h7zsNMSACW24GtRv/iFydj2KpQ2gyO7jxURFQXF27Pn4CLwCBXWbz71anyGDQkzYgld/8+Res/GIND9z+GD955ofMmTfzmhkX2N5SazRExSZcM+PgLqSAwCD6Dmidw2h/kLnBzLKPv2TTus3ctHgeM+dOIzAosE0ukRSfBWcleSkIrD26hdJVLxK9+LckPPYGxZ89S+2hdU1853JBCERUEzB0IcFTHkcd1oOK5b/EnLkB29kMwu96A+OQW1GHJlGx7AcolsoOhcCLzQTuSPknACrOCAv4NKpNINDrS8INgeV1pZhtTgugWqUFpeXYwe0OgTh9/8mKTFmtywlyC7M5msYOvhgEXhNqJQT67NLUAuj+vQAE4pOm8eNBUQTPPRMAQaPDOPw2gmf8L6IhBKkqn8qlj2DL349iqUTA5b6iBT+B7n8oTghEkC8OgS2cV7euTcXGxXDvw3cxftJYfvajX7Fl03f8/i+/xBTY3SXcLf9XcVEJb7/6Prk553j8qYcZMWpYmyNUeD7sFd+24FIQiM1KxbYlKLKDmNv+SMzdzxHQfzJlq59HqitzGYlagEBBQBUYRcj0JzENuxlEFeUrfkPDsfVgr8dWcprSt28ndNHzGNJmEPnocsqXPIBUkdNxENj2S98u8s9PUaURAt3s5vxtnB3sHMDv3KgoCrIC5TWlNNgaiAiKQqvWIis4IRB3I640/uL+uzEvBQVFbiGt5zje6xuXBSAqKB5JdngmgODOr0lampTBDaLe1q+r0RF0W+X9xedzOorQbMwfOF9aBJWvJbDpL4Jnf18w88pL8T6ugIIKTcJQon+6mdD5f0HQmqjZ+Bwl/52L+dRmpPoKFFlxgh2uvN2zgwUVqrDeiKYonxNzWgKbls33t5sAaU7QzW7ctSGj0UD/9DSWrXwfRZZZNOdOTmVmdT8D3fJbybLCoQNHefZXf6Whwcyvnn2GMeNHXVl4Mq/X3v1B3bjcdJvz9ZGtZiq2fUzOP28GyUHIuDvp/fvNJDzxPobeI1GHxaMyBqMyBqMOiUefPJaou/4fCb/YQtC4+3BUFVD8/iPUHViJYjV72nlHbSnlS39IzbZXUUf2JfyBT9ElT8bZBggoiCiCCkS1c7lJXd+4LDa2ac22+Z5PV9QHfmoBdP82Omu7kCXQ+0uiuqGKOkstSRG90ap0oLjjCbfVEkibnUVHB8cjyZKzC9iVp6c71/1V4VpulSXQn+V+AVxfQd4vg+A6QW9LoNRQi6g30fMnH5D31lOYzxxAUaRWWwKh+VeWAgjaAKLuehlD6jRQqbFkbqDskx+A5MDtpNNtwXXKNTsYEAOiCJj4NIahd4Oownr0M2RzpeurExRUIEgte7O/tvimbVJk5KLT2D55Frks/8LpBAH10Flopt6PEN6+vq+6QqIoEBIawl+e/wPr13zDo/f+iHsfupMHHr0H9TXgOLpb14/sdjtbvtnGKy++zsy503jsRw+h0WjbJz6Bu7501buC0gpLoN1G/ZkDZP12AmFTHyB8xqOYBkwjoP9UmlOVMxepuoiy1X+l7uBKFGutM50A7pi9CE6ffzUbnsNRlk3own8SsvgVaje/gPXkBowj7sE0/glQaVEs1VgOLMG8+w3kumJn+91GS2BXfQz6Zc3jpmi3I8WLQSA4I7IiNFoBTfpAtC5fgAIdD4GK0mgBLK0p9FgMnbl5QaCMs4u5FRDo1/L62mkNBBYu/TOiPoCg9Kkk/+orag5vpOCj3+CoKnS9WK2HQO8iaOIHoo0fhFRfTvGbd+AozUIQ3BWBV3ncy4KAqAvBMOgmAib+BFVQLI6yLOo3/Rlb9kYEt2d3T1fvBSCw3S+o/0ixNmBf/yZy8dlLpnXsWY0Y1xf1yPmgufLA51eDdDodCxbdyOBhg/jpY8+wJ2Mff/7H74mMjmjTmKludauzpShQV1vLl5+uZNmHn/Ojnz3ODQtmX3rHVubtbtNpWl+2AgIFWUGyNFC27r+UbXgVbXgC4TMfx9BjAILO4DyGtQHz6Qxqdi/DXnrG84HfvL73gkCHnfp9nyFV5BF+95uELPgH8A+QHcjWOqevP40R47gn0aZMp/7bP2M7vRlBkdoEgV0lPwRAxfUfXnx2aQh0h40rqylGkiXCTBGoRDWS7Lh8CFQAX/SgZQgUiA6Kwy7ZKK8t4ULOotsCgf4spcnCpSDQUVdB7iuPYeozktg7fo+p3wT6/WM3xcufo+r7pa5uWkerINBz7bxW1x9dh72ywLPOx1oHIIiotEa0SaMInPxjNIkjkWuLqd30Fyz7PkSxVvlYCn33bwECfQ9/fUlRUCy1zmVBBI0WQfSthhSHDRw2z7Iiy9ccNCf17MHbn7zKW/99jx8+9FN++PRjjJswGp1e1w2C3brqJEkSebn5vP3aB+Tl5vPCf/9O2oDm/h+vVFcEge59ZAVbWR5Fn/zG2VR7QE9BcFv6BC4xO7gRApEkLGd2UvbB/UQ+thzFUkv9nvep2/wCimRH1OoJGHkPAROewjDuJ8gNVTgK9rXNEtjuV7J18kMAxDU+zvV4tBIC3RNDSmtKsNjNRAbFoFZpcMgO1024DAhsZiNqGQIFRCIC4yioysEu2S8aMaS1EOjv8thH22AJrMvaQ/Zf5hM+/QEipj9I5PyfEj7zUQrefwbzmb1I9ZWgSJeEwBYJTMFrgK/i2V/UGNBEpWAaeTfGkfcg15dj3r+Mhow3cJRmOtO6KhPvR+SiEHjd0p+vhOBINNMeQEwe6rPekbEcx44vm4eKc9iho73mqzSdFnouLDyUn/7iSbZu+o7XX36bIweOcse9i4mIimjRV1q3utUVslqtHNp/hP+8+DoJifH8551/ERBgbN+DuOtkN9RdKQQ2+RvcbSxtcBHTCIGCWo+25xgUu5X6/cuo3vB3D1jKNgt1GW+D2oBp4lNoEkfhKDmO4mhowdrXMgR2FQH6JwDiAigB2gqBJdVFmG1mekT2QqcxYLY14O0suu0Q2CRNCxAYGhCBSR9IcVW+B/yuGAL9Xe7741qGFv6mOQQqCpRveo+KLR8Rf9/fCEgbR8Kjr2DOOUjJV89jK8pCaqhEUeSWIdD94/2ngu9EEkBQa1GHJWBInUbwzGdAlrBmbaF+9/tYTm5wvfzuMYFKs9nBcBEIlPF7K267SKVGCI5AjPAN2SUYQxpfLS9JpzJQais6tEhi76GIkc1DiHWUtFotM+dOp0dSD17995s8/38vcc+Dd9InNRljezey3epWG1VVWc2ObRm8/srbLLxlHg89fl/HHrATIRBc35OtgUCNHm3SSKTaIhoOrWhmqFAkBdvZHdj7TEcVNQAxIBKpKtcn34tBoPeEx86UXwIguBvuNkIgcLYkm5LqIsb2ncTRcwc4nLOPyvoyZ1SQy4JA8HoUPb+iIKBT64kJTWB2+i3YHFYyzx/0Gv93ZRB4TegiENj0BW8KgUgO8t/7ObrYZGJv/TWGHgNJ/OGbVO9dTdXOT7EVZSNb6zz3vpklUPEqg3tRAUFUoQqJQd9zBMHTfow6LAl7USbmo6uoy3gXJFvziSHIzkqpVRDYdXEf/V32rUuQc490KD1rF/+6UwHQrX79+/L7//slXy5byWsvv8XUGZOYMmMSEVHh3X4Du9XpkmWFvNw8Vn65hh3bMvjlH37G2AmjO+x4XgbAToNAFFeL2goIBBWiPgjFbkWqKfY5Nq7jSw3VKNZ6BK0JRaX1hUQuAYEdcE1bI78EQF/rTUsQ6Lr1TSEQKKwqYP3Br7hn0qP88fZ/seno12w//i2ltUWcL8+l3lqHQ7IhKRJOAhN8oK0ZBApOr3wqUY1WrUWnMRAbGk+wMYzYkHgWjLiX8IBI9p79ji2Za7zariuEQD+W04Lr9XJfJgQKKFgLszn32hMEDppO2OS7CRp2A6b+k6jc9iF1x7dhLzmD4rA0QqDbtUCzUgmIAWHok4YROPJWjANmYy/NpjbjQ+q2v45UU+h5zNw/3hDonDXcGggUnRWYf9/CLpGgNSDoAzrWfKruuri94RHhPPzE/fTu04vPP1lOft555i6YRe/kXlfmXqNb3WqDbDY7h/Yf5oO3PkatUfPSG88TFR3ZsQd198B4twVNINCTtAsgUJFkpJpi1IHRqEITkaoLfUw+AKIpEsEQglx6AsVmaQ6JXBgCu7uA2yjPLGDPH9AIgW7ffC1D4PJdS7E77EzqP530xKFM6T8LBYX1B77iXNkZaszVmG31SLIDWZaxSTZsDjM2h9P6oxJVaNVaDFojWrUWUVRh0BoJNAQTHhjFpLTZRARGY7GbOVeWzf4z37Nk+39osDa4jHduC97lQ+C1wA/tA4Eg26zU7PuahlO7CBl/G0GDZxAx9ykCB82i8vuPMZ/di6MiH0V2tFgOUa1HnzIefeIQQmf8GHtVAXX7PqduzzKsubsRBKXJ7F6nLhsCla4L/n1VSVFAkpqP9ZOlFpOrBkxEjEvp0MpSjEzquMxbc3xRZPqsKSQm9mDZks/56J2lTJo2gVFjRxASGtw9QaRbHarqqmq2fvs9n3+ynMFDB/E/v/px5z5zF4FAbw8YnQ2Bss2MJWsH+j6TMA5agKPsDHJdmastEhADwtGlTEYVGI358Beu8ejOUrUKAruIAf0SABXXQPDLhUAZWLXvC745vIa5Q28iNX4AwcYQUuPTGd9vGjqNHq1ai1qlQVEUGmz11DRUUmuuBkCj0mLUmwgxhqHT6JFkBzaHFavDSmVdKVmFxzmYs4vyumK2HF9DQWUuguAGPc+j6j4bLgcC/V4tfOFdCQQqgKO2nLL1r1N3eBNhk+/C2HcM0bf8lvqT31OzdxWW3AMgON9w78pEmzAQ44AZCCoNdYdW03BiM3V7PnXNHGu8Ty1XIpcBge6Tu95lbUDK3otSV+mzWi44BXLzrnL1mEWdVbIuV59+yfzkmSdZvWIta1et5+zpXObMn0mPxPjuCSLdancpisKZ7LNsWr+F3Tv3cvcDtzP7xpmdd3wu0hY0gUDwBrTOgUDZZqHh5BaMQxZgGHAjit2K9cz3SDXFqAIj0CePx9D/BmyFR7Ge3YlsNXuB86Uh0M0tnS2/A0CnpdgZnUMQxCuyBJptZlbsXoogCKhEkVF9JtArqg+BhiCMugD0Wj0qQeWCN+e4Pnde7pnIiiJhc1hpsNXTYK3jXNlpMvMPYnGYPdAneGzYrYsd3BoI7DKbcXuqjRDo1sUgUEDGUnCKoi+fIyBlJMGjFxLQZzSGxMHUHduMLravEwKVRozWRvfBnJ2B5cwuqre9iWI3ezJs/IbDs9QaCGz0FdlCxaVwTdy+y5bgBBilvgrHjs8vlfiaGfLaVgUGmbjzvltJ6pXIyi/W8Mn7nzJp2gSGjxyC3qDv6uJ16xqR3W5nb8Z+1ny1DkEUeOa3T9O3X0rnFsJd37cCAt09pp0NgY7qIirXP0/I1CcxjboH46D52EuyUIclojJFYMvdQ932N3CUnHKdi3fFdQkIVLpmnK/fASA0QiCKfGUQ6DU7WJJlMk5tI+PUdy7Yc4KbxwjkBXMCXss+6QSvf+7SesNeO0LgtaI2QKD3UImLQqDgDBFUe3wblvxMTP0nEDRsLkEjb0JtCsNecR5FkpDqK2k4tQNHVQG1+77AXnIaj58omrygbYRAgQvPDu7CIR9dLkGlRozuiZx72JfqW0qrNyGaQkHll9VUu2ncxNEk9ezBmpXr+PLTrzh96gzzbppDaHhod5dwt65ItbV1bFy7ie+37KBnryTufehOQsNDu6Ywl2oLOgkCgRZdxOCwY83ZS8XqPxOQPgdVQDiCSoW95CRyXRnWrM3YixtdgzX2+DWe4IUgsKvknzWr58a1LwR6h41zzgRuzNR3Fi5ed869zruFp3G9QpvDxrUKAv1ZTR/4DoJAFLDXlFKVsRxL7hEC0iagTxyAvSwXW3k+Ul055Rv+g708xzO71wN/tAMECrLzPjaBQOF6tgCqtahHzEMIirzgWD+3BGMQYs9BTt9817nie8Tx0A/uY/2ab9jyzXfk5eZzy503kZrWpxsCu9VmKYrCuZw81q/5hqxTp5kweRyzb5xBgCmgiwtGl0PgxfwEIknYirOwl2QhiAKCKIAiIbjaINzg586zlRDYVW7B/BIAFVwXzEME7QOBzq2CJ227QOBlxg6+JAT6uTwvsWcFlwWBuF78i0GgIoClMBtr8RnUwREotnpkaz2CANaibI/Vz1sdCoF03Qvf5RJViAn9EBP6dXVJ/E5qtZobF86hV++erF21gbf++x7jJo7mxpvmotNpu7p43fITORwSB/YeZO2qDahUKm67axGDhg5Ep7tKZppfLgTia8TpKAj0pJeVxox92gjfdqAlCPSW0OLazpFfAqBbnkZUaD8IdEcM6RgI9Fp3pRB4Dag9IND7xb8UBCLLOKpKfL7SnLfwAhFDXGpvCLxurX/dahf1T+9HfGIcWzZuY/2abzh+9ASPPvkQ0TEd7KqjW34vc4OZTRu2sHnjNpL79OLGhXPokZiAqOpCX5MKPvW5Z11bIdDT9Da23x0Oge704FnZGggUmrQ23RbAy5Ti/l9HQKDrJl0cAgXvQnitawkCBa/xe1cGgdeK2gUCPS93KyCwhRf0QhDo8wLTjhAoeG/rVrfaruDgIBYunkdMbDQb1m7i7398nptvW8D4SWO6Zwl3q0WVFJeyevlaMo+dZPS4EUybNYWIyPCuLlajvOt619+XA4HOZf+CwK6aGOiXAKgovuDQYRAoCJ4H4MIQKENrw8a1IwT6vbxO83qDwOt6DGC32lWjx4+kR88Etm/dyYdvf8yxI8e558E7CQw0dWm51BWn0eXvRrDWdWk5rhYpWiPWXlNwBMV3+rFlWeZUZhZfLPsKm83GTYvnMXj4IExdPd6vJV2vENhF7YF/AiAy4ASmK4NAhUvFDm4NBAptiR3cDYGNum4h8Jq5g926ChQXH8v8RTcSHRvN6hVr+dNv/sYPnnyIlNTkLimPqq6IoIxX0J7fC7L90jtcDxLVGM5upuymtzr1sDabnYMZGXy65Et69k7izntvpUfPBDSaq2xileK7fD1CYFe0CX4KgIrH/nZlEAgXjR3cSghsW+zg9oJA/5bnLK5HCERoMii4W926Mun1OsZPHENcfAyb1m/hub+8yLyFc5k9bzZg6NSyiHUlqMtOoqor6tTjXu1SNZR36vHq6+rZsmY1321cw7QZk5h5w/SOD+l2JWrS5Pk3BDYerDUQ2G0BbKPcjfP1C4F+rhZeYLhOIFARuRZmcnfr6pJKrSK5T28ioyPpndKLTz74lGNHs1j8wBPOGMqdJEGWPPWdog3AmjAKRXV9zlIWHFZ0eRkIDgtcIBRlu0tRKCspYtXSt6koPMEDj9zN0BFDMAVehV2+TXXNQKCIgtx6CFS8NnSi/BMAXRfLPRu2UyGQC88O7kwI9Gspjb/XJQQq3mmvfcn5J6C2c60f7SKHHaXSv6xYgiAQHBzE5OkTiImL5rMlX/K33/6ehXc/TtrgkYhi5872lIyRVE/8BbKhi5wLd7HEulIilj+EymHplOPJssy5Myd57+W/ExoWyP/85pf06hl29XX5NpGbf5q2Be0Jge4292qEQEERvU668+R3AKhWqZmcPtUL4tw/otcyng0CzhvnJgqhcRNCk3XO9KIHPjy/rowEr2U3iAmCc53gdTwE1za80zWmcW53RQ9x7+fZ3hhVBO9yeNY704uCf870EwQRVXgU+hGTG9f5JGhx0fePJven+UFocg+VxvVNfr3zEYTGde48nH/KPnn65CM0/u293Q2dHqj1Sq+IIkR1cqilLpTty7/jjsHsb1Ictq4uwmVJq9UyID2NuF/8mOWfreftf/2F6fMWM33+regNxs4riKhCNoQiG8I675hXkyR7pz37kiRxeO8OXnvud0yevYBb73uI2BjQaPxgHKbHqNNxEOg2CFydENieF7P18jsA1Gv0PHv7H9u412WSdTsDeXtmpxL9EwBRqdAm9yf0sd90WRE65DurFZn6WPn93ox7cQk6k7PhU2QUS31XF+eKJYgqBG3njqW7UomiSGhoKAvuuI/A6HQ+efPfnM3K5PaHf0xkTOfPRu1Wx8lut/PVJ2+xZtn7/ODnf2LE+KkYdCKCcPXPwhb0BrSpg1GFuFzSCE2qU8H3t2nNKTTZ7r1fS/k0fpgrFzYEeO/vbTDwlEHxOPZvum/T8niMEIIXcLqNAe50pgjoAiu53wEggEZ9fY4nuWYkiAhq/7QIdat10sx4CLYtQamr6JKxLe0qUUSM7Yt61IKuLknbJTjHBg4bO5nE3n1Y8vqL/OPXP+auHzzNoBFjUXV2nGVFRlu437moNuCI6IsienVPynZUtYWo6ktAUOEITkQ2dqGvOkVBtFSjrswGBGR9CI4w39nVoq0OVc15BFstiiYAR3Aiirbzxts11NXy3K+fpLToPP98ZwUR0TGuLRcPtXi1SBUaSfDtT3R1MTpdSpPfrpBfAmC3utWtq1tiynB0KcO7uhjd8lJEdBw//u0/+PrzD3jzhWeZc/PdTJl7M4HBIXRWPGFBshK57E4AHGG9Kb3lQxRTlGe7aKkmcP97BBz8EFkbQPW0Z2lIu6nlvOwNnr4zRWN0mlRkyTnhAkBUoaj1oCgIsg0kBwiCc0KKqHamlWygyM60Kl1zy7wioTu/m7BVT6KIaiwps6i48SWfJOrybIK2v4AuLwNb1ECqpz+LLWZwO12xC0uSJM6dPsmfnn6Q/kNG8exL73faffQnybLL/yrO2L3e18i9TRTFZtfOvc0twT106xq6xt0A2K1udatb14lEUWTebQ+QnJrOkteeJyc7k/l3PESPnimor/KJAk0V/d5sp6sZUUXRg98imaLR5e8i4ov7AbD0mkL5TW+iqi8mcNd/CTj8CZIhjOrJv8acthBd7ncEb3sOTUU21oTRVM59EckLRq9aKQoNDfXs3rqRd17+K3f/4GfMvvnOri7VVSmLxULWidOczjpDWEQYA9LTCI9oHI96MjOLs9k5pPbvS1KvHqjVjUi0f89BSopKnH8IAgEBRnol9yQmNhrtNRJ7uxsAu9WtbnXrOlPa4OH86p+vs+S1F3jtud+y8K5HGDRyHAGmIP+0cLhjaTUdTe8OG+Uzk19pcb0/SJYkyooLWfHxm5w4vJ/fvfgOffoP6upiXbXKPZvH3//0Atu37iA+IY6f/uJHLL7zZs8zvvzTlXz07lKeeuaH3P3A7T4RdH7/i79w7PBxYmKj0Wg1VFVWYzIF8Is//A83LZ7vn+9JE3UPxOpWt7rVretQAaYgHvvfPzJn0d189u4rrPtiCYV5OcjS1T92zNn9Kzv/UBQ0pcfQFh5EXXHak0a01qAtPICm5BhivdMNkSA7UFflOtdXnvF0FwuSKsuxBwAAIABJREFUDWQbVzMQ2qwWTh47wBsvPEtlWSm//1c3/F1MkiRzPq+A7FNniIqJpqK8kiMHj9FQ39DqPNQaNa+8/SKrN3/BY08+SGFBEZ+8/xlWi7UDS9556rYAdqtb3erWdaypNyyiT//BLHn9RbIzjzBn0V30GzwCvf4qmvUsOxCttaBICIqM/sy3iDbXDFdFJnzVk8120RbsJ3LZ7T7rRGsNgRmvEJjxis96dXUeurxdWBPHoaicXeGyMaJjzqWtUhSqqyo4vHcH65d/Qvrwscy7/X4CTEFdXbKrWjXVNRzYdwiTyciUGZPYt/sAWSeyOXUim6EjWj9GU5ZlAgKMjJ88lpeffxWdTovD0UlOvTtY3QDYrW51q1vXuRJ6JvO/f3mZZW+9zMdv/IupNyxixPipRETHXRVdXar6MgwnVzvH/MkSAZkrnFZAuHKXSoqC2FBG8PYXMBcddE4GEdVUT/rllRf8CiVLEoX5OXy3cQ3ZmYe5YfG9DB83Bd3VBOdXqcpKy9j5/S7iE+K4ceEcHHYHX69cz8njpxg8LL1VTtEVWWb3jr0UFRSzf+9BQsNDGDdpDCavrmJ/lt8DoKIoSJIMKKhUKt/KSgFJljyzfC51w5vO+GnPMuafO099fQM9eyWiN+jbLe9uXVxNw+a1dF+dz5CEIAioVKpm2y62b7euXSmKgrnBTH19A6ZAE4Zr/L1VqVTc9YOn6T90JCuWvEne2WzGTZtL6sChaLRdO+hdNJdjPLkKTclxn/VSYCzWuGFXlLf+3E5EcwVifSkBh5cCoKh0XQ6ANquFrOOH2LruK2w2K3c88hS9+w5AVPmpD9hOlN1uJ+fMOXJO57Jg0Y2kDx7Aycwsvlj2FcePnqCqspqw8Ev73ZMkmQ/e+RitVovNZiM0NJSo6ChqqmsICvZ/C6xfA2BNdQ27M/ZRdL4IBYiMDGf46GFERIZTVVnF0UPHOZebjyxJBIUEMXhYOj0SE5o18gDbt2WQf+484PygDAgwkjawHz2SEq44jI4kySx5bxlnz+TwzG+fJqVP7zbn4XA4kCQJrVbbDSKtUE11LUcPHSPPdU/dio2PYfDQdIJDgpxhk3LyObDvIHU1dYgqkeiYaMZNHI1Wp+X4kRNkHjvp2ddg0NMruSe9+/QiIKAToyn4oRRF4XTWWSxmC97jqlRqNalpfRFFAUVRqKutI+fsOQryClCp1fRO6UlcfCx6gx67zU5RYTGnTmTR0GAmoUc8KX17Ywo0+bwDBeeLqChrOdRcgMlEbFz0ZX10OewOdny3iwN7DzFt1mSGjxra5jz8UUNGTaBnSj++eP9VvvrkbUZOmM7oSTMIDm30x6coCooiIwrilVvgWiFFpUUyxSDY6hBs9ajMlaDIWGOHUHnDv68o74hP70J3vgIAyRTttAB2YuxiSXJgt9l8IrTUVFVwaM929n6/ifCoOGbddAcx8YmdViZ/V21NLTu/34XVaqOiopIvP13JycxT6A16jh4+TvbJ04waN+KS+YgqkdvuWkRS7yRKCkv46os1vPz8fwkMMjHrhumdcCYdK78FQLvdzkfvLmXph59jMVvQ6XUYjQYe+9FDzJk/k62bvuf9t5ZQXFRCQ30DCrDwlht57MmHSEhs7gX/1ZfeZNu33xMeEY5Go0YQBMZOHMWCRfOYNnPyFYWPcJuRc87mUllReVl5bFq/hbOnz7L4zkVERHahY1Q/UcH5Qt569T22bPqOgACjx4IxYfJY4uJjCQoKZOf3u1n+6UrWrtqATqf1TPX/zZ9+zsQp4/hi6Qref2sJJlMAOr0OURRJTevDotsXMnPudAKDro1ugI6Q3W7njf+8Q+H5QtRqtef1CQwO4h8v/xWNRk1ebj5ffb6aPbv2k3UiG61Ww+Bhg7jlzpsYO34UGdt3s2blevZm7MNsttAruSe3330Lc+bNRKfXAc7xOZvWb2bT+s3OvyUZhUa/Xv0H9uP2exaT1Kvtjafdbuf7Ldv56suviY2LuW4AECAkLIL7f/xLNn+9nH07NlNaVMDoSdM9FqjSovOczz1DQs8UImPiOrw8ckAk9YPuQLRUoz2/D+OJlY1dwO2o+oG3IQX3gE6KtORw2Dlz8jhZxw8xefZCAkyBFJ0/x84t68nNPsGAoWMYM2UWQSHXaSi9y1RlRRU7v9+FzWpj+9adbN+6EwBzfQOnTmRz8kQWw0YOuWQ+oigyZeYkRo4eTkV5JSXFpaz4fBVHDx/vBsCuVO7Zc7z20lsEhQTx9C9+hN5ooKqiitDwUOx2B2qNmumzpxITG0XOmXOs/HINX32+hmkzJxPfo/m4lpqaWgRB4La7F5GYlMCpk9l89O5S6mrrXRYhHTabDVmW0em0qFQqJIeE1WpFpVaj1WoQBKdVo6amlrraOgJMAQS3YCZWFAW73Y7dZker1aLROi2MZrOF6qpqUCA4JAi9QY8gCJgbzHz+yXK+3biVYaOGodNpCQwK7JTr7K+y2+2YzRZiYqKZOXcayX2dVtf4hDgiIsPIOZvLG6+8w+6de5h30w0MHJSGIIrk5eZzJuss4yePpba2DmOAgWmzpzBy9HBOZ59h7aoNLP3wc3olJzF0xKUrkOtVNqudHVszOJebx+M/eQSD3mmBMwYYEQSBqspqPnz7Ez758DNS+vbmljtuQhDgxPFTZB49QVxcLEs//Jx9ew4wa+50eiT1oLKikrKyChwOCZ3rOIIgEBcfy6AhA6mvq2fThq2UlZYxbtIY+qX1pUdSgsf6J8sydrsdENBo1M2GhDgcDux2Bzqd9oLDRZyWL+WacwjbktRqDdNuXESvPv3Ysu4rVi17jxHjp9Jv0HB2bF7Ht6s/Z9qNtzD75rswGDs28oWsD8HSayrgtCcbstYidECIW0vPydhj0jslfq+iKFSUFPPF+69y7MAuFEWmV0oaOzavw2a1MPWGRfQfMgqtTnfpzLrlkc1mJ+tENvnnzjNmwkhm3TDDs23/ngOsX/0NmcdOUFpa5llfkF/A4QNHMBqN6PRaUtNSAec9KjxfRHbWGfJy8jiReQqD0UBMrB/4i2yF/BYACwuKqa6uITo2mhlzpxEZFYGiKC7v3TB91hQ0Wg1qtZqjh4+zf88ByssqkGX5ovlOnz2FkWOGk3n0BO+98RFVlVVIkkR5aTnfrN9MdVU1M+ZMJaVvMqdOZLNpw2Z6Jfdk4tTxGAx6Nny9iT0Z+6isqMJkCmDqzMlMnjah8QAKlJdVsOrLr6mqqmbazMmkDx5A5rETbFy3mfN551EUiI2L5saFc+jdpzcfvbuUk5mnkBwS77/5EeHhYfzur7+84q7p60HhkWHMmDuNiVPG+az/7OPlHDl4lEFDBvLk04+R1CsRQRCwWqycy8nzpNPr9YwaO4J7HryDY0cyOZWZRWlJGSXFZU0P1a0L6ImnHiE0rHG8jcMhkXnsJF9++hWxcTH8+H+fYOqMSQgIZJ06jSRJFBYUkp9XQFhYKDfftoBhI4dgt9kpLSnzWP/ACYDTZ09h+uwplBSVknM2D7vNxo0L5rBw8TwAbDYbB/cdJmP7bkpLyhAEgYQe8cycO5W4hDgURWH7tgwyvt+NucGMVqflngfvaDZGyGK2sG/PQXZ+v4sRo4YxZcbEzrmAXSiVSk1yv3QiouPYum4Fu7d9w66tG8k6fpjszMNIkkRCz2SGjZncoWPTREsV2vN7nb8FBxCkDqA/QH/mWzTlp0BU09D/5g45hlsWcwPffbOaHd+uxWJp4PP3/kvaoOFExyUyY/6t9Orbv0OPf62qob6e77fuJMAUwPybb2DxnY33MTEpgZOZWRw+cJTcs+c88wa2fLONzGMnUatUREVH8veX/oxao0Z2Dd8KCQ2mqqKKgrxC5s6fxYQm7Ym/ym8BsFfvJKJiIsnLzeO5P73IhMljmThlHOGu7lG7DfJy8ikuKmHLpm2czy9k2qzJJPVKuuiX++GDR6mva2DHdxmER4QxceoE9AY95/ML2LR+M4UFRaQNSCWlbzI5Obms+GwVYyeMZviooezbfYBXX3qTqspqps+awumsM6xfs9EHABsazGxcu4l3/n979x1YVX3/f/x5zt373uxFyCCEEVbYewgIinvXaq2jtcOOb+3+tbXT1tY6qt+2tmr71TpQVBQBZe8VIGxCErJ3cjPunuf3x40XI6BSGUE+j780995zzr035L7uZ7zff/8/RheP5Orrr6SmupYXnnuZQweOMGnqBCKRKCveWUV3Vw9feeAemhqbcbs9KCjUVtXR3dXzuR99OFt6ul3s2VWK3+dHlmWGjRhKaloye0tK6ersZuac6SSnJMdfT51eR8GQQbhcsRIT0WgUt8tNY30TRw8fo6mhmdT0FFLSki/k07qoVJZXYbV1IEkSKalJqNVq9paU4upxM2PONGbMnhpfl1s4tACAQ4qCxWLm8MEjLH5pCaFQiBGji8jISj/j3/2mhmaWvbmcXdv3oNPraG/rwOf14ff7ufWOm6itqePpP/8NZ0cn4yePY09JKaPHjmTG7KnxY0QiEY4cLuMvf/orXV1djBxddPZeoH5OkiTsCUnMv/Y2NFodzz/xWzo72gCoPHqAlW+8RFJqBjmDhpyza1B5WjHtfxlNRzlSyHei3dtZZjq4GFQaFJXunAbASCRC+eH9vP3ys3g9LgDqqirQ6Y3MvuIGEf4+A61Ox9RZkxkxejhTZ0zuc9uwEUP4+ne+grOjk7T02OxQ5oAMgoFg/D5mixm1Ss1Xv3k3LU0fdAIBjVqNI8HBiDFFZA8ccD6f0jlz0QbA9Mw0vv/T7/LXJ57hrdffYdf23ezYuosbbr2OcRPH0NTYzGsvvUHJjr0cr6giHIkwZNhgHAn20x5TURRee+kNjAYjNdW1AGg06k8cNQRQogrvLHmXY0fK+dEvvseia6+gpbkVt9sdv08kEuHAvkMse3M5WQMy+co37ya/IJflS99j3eqNzJwznTvv+QKKonC8oorVK9dxzY2L+OLdt3HkUBk7tu7iy1+9g4LCQX1a1gin19LcytIly1i3agOySuab/3M/DoeNrs5uwuEwjkQ7KvXpp3vcbg9Ll7xLyY49NDe2YLFauOWLN1IwOP+0jxH6+uNvHketUaNWq7nptuuYNmsKtTX1aLQaEpMS0J5ih2lu3kAWXjWPxoYm3nljBWWHyhk5pogv3Xc7ufk5n6qEwwcsVgtzLp/N9DnTsFotlJdV8MxTz7Fp3RYuv3IuB/Ye5PDBo1x13RXc/8A9NDe1kJT8oRpwikJTUzP7nztAa0srd9//JabMmHQ2XpqLSsDvo62pAb/fF98dHwoGKdmyjgG5g7Dddg+OxHP0xSgSQuVtR+VqOjfH76Xyxkb2FdW5nXbt6ezg9X/9L/XVlX1+3tJYy+5t68kbMpyklPRzeg2fV0ajgcuvmIuiKCdt+ExMSmTBonnxyiA5eQNPuxbwymsWnI/LvaAu2hShUqm4+oYryMxKZ3/pQV5+4TXeWPw2oVCI3PyBJCYlMGfeLEaMLuLQgSOsXLaKpa+/S15+DrPnz0SvP3lXoCRJLLp2IYMG59PS3MZzf/s3K955n6HDC8kc8PELnf1+P3W1DegNembMmUZyalJ8lCgUjE1XeD0+3lu2ioa6Ri6bP4uiUcMIh8O0tbbT1tJOyY7d/OqnDwNw9FAZHe0d+H1+8vJzsNltSJJE4bAChhUNPcuv5udXSmoyV127kKFFQ2Kv39ACZNWJxt/RqPKxxf/VajXJKUnoDXrqauspKBxEVnbm56YO1Pmw4Kp5mMxGZFlmUGF+rOxOOIzE6UvrGE1GrrhmATl5OSx/eyWr31vH0SPHaGtt53d/fqjPlPIncSTYGTK0gKOHj3H44FGqKqvxef04OzoJBkPkDsrBZDazY1sJfr+fm2+/keycrHi1f6/Xx8Y1m3F2OJkzfxZXXH05ZvO5XfPW30QiYaorjrJ+5Vt43a4+t7m6O1m19FUG5BYwfd4izsX+2ajOSiBrEmFrJmpXE+q2MqTo2Z8GDmRNJKqzgurcLa8Jh4K8v/QVSras7fNzSZKIRqO0NtXT3twoAuBn8HFfEM/ky+Pn3UUbACG2PmvKjEmMHFNEekYav/7ZHyg/WkljfRMjRg9n/OSxAEyaOoHG+ibefO1tNq7bwuixo0jPTDvlMSdOGc+EyeNwdnRSUVbB0iXvsnvn3lMHwA8Fh2hvLblwKIIkyaf8YNPpdYwZO4qaqloOHzhKQ10jqemphCNhZFmicOhgZl42HQmYe/lsdHodg3unxIT/js1uZdyksX3WACqKQlpGKjq9juMVVQSDodOWCTEY9EydOZmZs6dit9t4+4132bpxO6OKR5xy5Eo42aJrF8ZH3lUqFW6Xh5TUFILBEM6O2LrcU/1RTkxKYNqsyeQV5DJl+kQe/uWjrHlvPa0t7dgd9k89FVxZXsV/nn+FA/sOkZKajKIoBAIBIhETiqIwqngkv/z9T/m/Z19i9cp1HNp/hLu+cgdXX38FAFqNhpS0ZJqaWmhqbKGrs+tT1RD7PJFlmYF5g7nvew9RdnAPuzatpr7mOF63C0VRaG6oZdmrz5MxIIcR56BIQdScinvMnUiRIPrK1Vi6apACZz8AekbdTihp8DncBKJQdrCUN154hoDfB4BWrycrO4+xU2ZRPHkmCcmppGaIki/CuXfRBsAD+w4RDoYYNnIoBqOBlLQUIuEwKrWKUChETVUtNrsVi9XSG8zCKFEFvUGHSn36xcrRSGynoKvHTUtzK2qNGrPFjEatwWDQ09Ptoq21vbev4EFammNrBAx6PTablUAgwN6SUjKz0gmFwuzbs5+JU8YDoNVqmDh1PH5/gJXLVvHqi0t44MGvYbfbMBgNJCYlMHvuDOwOW2zHYjiM0Rir+C5JEhISzvbO2O5hnQgfn4aiKIRDofgaD1klo1KpmDh5PJvXb+Ot15cxbmIx02dNRa1RUXHsOFUV1cyaNwOIve4mk5GCIYOYPW8ma1dtYOf23cw5MosRo4ZfyKd20VCrVX2WLOgNesZOGMMzTz3HoQNH2bx+K9NmTUWSoLWljXA4jEoVe4zDYSczKx2VahwWi5nG+kbkM1wDeOzIMd5fvoZpMydzxz1foL2tnfraBgK9vxMGg57Zc2cwaHAex45W8NU7H2Dpa+/EA6Bao2HE6CKycwaw9PVlvLn4bb75P/f32YzyeSdJMo6kFCbNmkfRmAnMWnAtPd2dHN5Xwo4N71NTcZSjB/ayfMmLpF41m7MdjxWVlog1Vr4rYko+ZwEtbMkg7Mg9Z8f3eb089/hv6exoJT0rh9GTpjFj3tUkpqSRkJSCPSEJSYxQCefJRRsA9+05wDNPPYfJbERCwu32IEkSk6ZOQKfX8dcn/sHekn2o1GpCoRBNDc2kpCYzaepEEk4xfSQRCws/+u7PMBqNBINBWlvaGDVmBAsWzcPusJNXkMd7y9fw6O+e5Jmnnyfg8xMOxxqnyyqZBVfN5+D+w/zxt4/z7F//jaIoZOcMiAdAiK1BuOWLN1C6ex+rVq5hzPhRDBk2mLETxvDu0pW0trSRm5/DsaPlpGWkcf8D9zAwN5uMzDTUahU/ffAhTGYzb733yiX1AfTfKi+r5Bc//A2m3inb0cUjuO8bX+byRXPZtWM377yxnF/95GFsdmus5I7Pz7yFc+IB8AMqlYr8wXmMnzSWjWs3s2vbboaPGCqmEz6Fh3/5KDqdFonYAusHHvwaw0YMYeFV81n57ir+3/d/xZDhhRiNBsrLKpm7YDZJyQmseGcVGZlp5ObnsmdXKbXVdUyaOgFHouOMNoJEFYWoEqW1tY3qqhr27Cqlob6RpJTYOr83Fi+lraWd4UVDaaxvQkHB/OEajxIkJSUyY/ZU9u7ax/vL1zB85DAWLJp3ll+p/k+WVVgdCVgdCSiKwqAhI5h5+TV43S4O7tnOgd3bObJ/NwODHs7mJKraeRzLjqfQdFYh+bpO9AE+yxLe/wGK2oCi0tJ26+Kzfvz333oFR1ISv/rLC6QPyMFitWNLSDplcwJBONcu2gB4xdXzqThWye4dewkEAmTnZHHlNQtYeNXl6PU6Zs+bSWtLG431TahVaubMn8kNt1zDhMnjUGtOftrTZk6JT+nJskxyahJ3feUOLrt8FqmpKSDBlddcTqezi13bd5OTl82sy6ZzcN9hcvIGotVqWXTdQlQqmSWvLsXZ5iQ5LZmvPnAPkiwxetwo7Al2kpMTSctI5avfupc3Xl0aqzk3YxLf+cE3WfLKWxw8cIT2tg6MRgMjRw3H7rABcPdX76SttZ3yskoSEh2nfA7CCQ6HnbHjxxAO9W3abTKbUKlU2Ow2fvSLBxldPJIVy1bR2tKGTqth+sTJ3Pu1u1Cr1RQOG0xXZzdZA2IjD5mZ6Sy4ch7NTS0Eg0HcLg9Wm6jHeCoarZrU9BRcLhcbVm+KN4uwJzj46gP3kpqWwnd++E2SUpJ4791VbN+8E71eR96gHIpGDiMzK53Skv1s27STjeu2EI0qTJ89le/84Bun3cglq2TsDis2h61Pke7icaNZeNXlrFj2Pn/67RMUjRzGkOGFaHpHJi0WCy//ezGvvPA64VCIcePH8KNfPIgky9jsNmw2C2armaKRw/jiPbfx2O+fYtumHUyaOh674/Sbyj7vJEnCZLFissRqnWbl5DN9/lVYO8vQbd0OvrN4rrAPjbPypFZwZ5vaeRw4d5tAZi28jhnzr8Jid6BWizJewoUlKYqitHe24JO6L/S1nDG3y00gEIzv9jEaDfFRsWAwiNfjIxIJ80HhV6PReNrg5HZ74tOEkgSySoVOp0P/oVG2SCSCz+sjEAiiVqvR63UEQyFUsozeoEeWZQKBAF6Pj2gkgqxSYbVZUKlUuFxuIuEwZosFlUomGAji9XrRarWYzCYi4Qheny92DYqCrJIxGGLP58MFpsOhMLIsf+xuZqH3vfL5+2zvB9BoNRiNhvg3br8/gM/ri/cC1uq0WMxmFGJ9YIPBIEajMT7lHggE8Li96HRaDEaDGAE8DUVR6HR2EvpIAJdlmcSkBGRZJhqN4vV48Xn9sZ32UmyZhMkUC+kejwe/P4ASVUACvV6HxWJBVp36NY9Go7h6XIRCYSxWMzrdiW4hXo8Xr8eHgoJOpyW2iVWJLxFx9biJ9I7ma7Sa3jWG4HF78Pn88V7Afr+fnm4XOp0Oi9Xc79//qCLR6THgdJ+/TSvaxr3YV/0EjbOCcEI+bTe/RNQQ62QhhX1k/GUkAOGEPNpueIGo+URRXdnbjnXH/2IqfYGo1kT3nIfwDr0WTeshHKt+clIA9A5eSOeVT36m6421gtvV52eKSkfjtw5CNIzh+FoS3vkGiqzGP2g+ziuf6Pt8m0qxbnkUXd12gilFdF/2EMG0UbHn424h5eUbUbmbAWj4bvlnutYzoVFFSLK4MeuDn3xn4ZJ0UQ8jmS1mzKcZgNFqtWe0SN9sNsEn7OxTqVQnnfOj07A6nS7+wfNhlo/sGtXpdX0eq1KrYvc5zfORJOmUXUWEU1OpVJ/qPdXr+4b8D0hIGE1GjB/p+Xu691foS5IkEhI/vn2VLMu9/55OvaPaarNitX36c8q9I3Zneh61Wo0u+dTv6Ucfp9frT1lBQDi3IraBdM36GVLQja5uO+YDryAFPWf9PN0zfkzIkXveWsEJwoV0UQdAQRAE4fMvqjMTzIxVdZB9XSiy+rO0Zz+tYEYxwbSRIArtC5cAEQAFQRCE/i0aRg64kKJhVEEXvXP4Z53s70LlaQNJju02FoTPMREABUEQhH5N0152yjWAUjSCFPpsu00k5USnp8S37gM+tAZQED7HRAAUBEEQLhIfTM3GRgA17WXYNv3hMx1R1V13iuOLKWDh808EQEEQBKFfU9QGQo683v9RUHfXIgW9qLtqUHfVnJVzRPV2IpZUkFQosii0L3z+iQAoCMJZoXxoXdaZFGr+KL8v1qfX7/fjSHBgMhnx+fxotRr0Bv0nHluJKvj9fkKh0MeWfgr4A/h8fowmI1qtqMnWn4UT8ui84rHY/ygKto0PY9r/ElI41q85akiIde+IhpD9sZJmikqLorOCEkUKeZHCfpBkoloTqHQQCSKHPBCNoGjNeMbciWvsvSgaw4V6moJwXvW7ABiNRHG53WjUagwGA5L82YfiFUVBQoqP6ofDYYLBEBq1GrVG0283fH3Qwk6j0Zy29tnpHuf1eJFlGVM/blofDIbwejzxOnuKonym4HCxCwSC+H1+9IaLr9SMs8NJVWUNHndvaQ5Jwmq1kJqeQkpq8qfudBAMBNm2eSdLXn2LttZ2rr/5GgoK8ynZsYf0jDTmXD4L00dK83yU2+1m84Zt1Nc2MH32VIYMG0wkHCESiaBWq+P/lkp27qVkxx6mzpjEqOIRaDQiBF4UJInuGT/GUPYuqnArSDLu0Xeg6Kyouqoxl74AQMQ+EM/I25ACLvQ1G9E27EZRG/DnzyWUOgJ1RwX6yvdRedoJJg/BU3SzCH/CJaXfBcDGhibWrtrAsKIhsT/K8mf7o9zW2s6xoxWkpCSRk59DIBBg59YSamvqyBuUy8Qp4/rth21NVS2lew4wYdJYMrLSP3XRWY/bw9ZNOwgEAlw2fzZmS/8LgaFQiEP7DrOv9ABzL5+NSqXi2NFysnOzyc0beKEv74JorG9i2+YdDB6ST/H4Mf2+yPCH7dq+h0d+/Rg11bUYTUYkIDE5kUlTxjN34WxmzJ7Wpx/w6TTUN/LaS2+wY+suxk0ai8Ggp7ysgmVvriA3fyCTpk34xADo6nGzef1WDpQeIjUthcFDBnHo4BEqjlVSPG40Ob2/XyU79vDm4rfR63UMHV4oAuDFRJJO9OuVJLzDridiTkVXvyMeAMPWTNyj70DlbkblbkbbsJuoWoc/eyq+odegq1qPtn4nKk87SCrEuj/hUtOvAqCiKGzZuI3XX36Lb/7PV894fELRAAAgAElEQVS4P2I4HKbqeA2N9U2MHDUcR6KDo4eP8cQjTzNj9lTu+sod7C89yG9//gh2h43LLp9N8bhRZxwAG+obKS+rJC8/h+ycAWf02DOxc/tunvjD0zz0+5+Qmp76qQOBLMtUVVazYe1mMrMyGDex+Jxd43/L2dHJksVLaahrYMGi+ezeuYcn/vg0X/jSLeTkZl+SI4GhUIiNazdz7Eg5OXk5JCUnXuhL+tS8Xh+hUIi8QbnMnjsDo8lITVUty99+n3WrN/H43/4Q74mtKLEuKz3dPcgqFTabFZ1eRzgcoa6mnsaGJgYNzuOue29n3KRiWpvbCPgDDMgZgMViJhwOx6ZujQYi4QgdHU60Wi0Oh723HZydBYvmMbRoCCPHFOFxe3h7yXIWv/g6P/zF90hOSUZv0DFzzjSMRgNTZ06OF2VXFAW320NPVw9qjRq73Ra/LRqNEvAHkGQJtVpNT7eLcDiM1WY9ZTFx4dwKJQ4makxEkWUUlQYkiajWRChlOABhezYAiqwhYkknlDKcqM6Koo91UVK0FsKJ+aDWEXbkoKj61cehIJxz/eo33u1ys7/0EA6HLT7ipSgKHo+XoD8Q65ZhtcSDkM/rQ1bJRKMKwUCQcDjMsjdXsHrlWh78yXeYMmMSGZlpXL5oLoMK8pEk2L1zLx3tHXznh99g+swpGE3GWPs2txcFMJmMfTp0RMIRPB4P0aiC0WREliW2bdrBX5/4J1/88q3cdudNaHXak8JZOBTG5XIjSbGOBh9ufRUIBNFoNZhMxnjIVZTYuiW/zx9rQWc40W1AATxuN4qiYLZY0HxoTdMHbawUJXZ9Op0Ws8XMoII8li55l9I9Bxg7fsxZmUo/WxRFobWljb0lpUyZPonUtGQG5mZz9fVXMmR4YWwNVzCAWq0iEoni8/kw6PXo9DqCgSAetwejyXjiNVJirf88Hi8ABuOHujUosfZtPp8fSZJQqWQ0Gg1anRZJkvB6vPj9ATQaNWaL+aTgqSix3y0FBZAIBYO9vwdy/P1Sa/q2l/N6fbH3SAGXy41Go+nTm/aD34NgIIhGp8XUe7ys7EzyCnLZubWEymPHL6oA+IFBBXnccfdtZGVn4vF4sdoe4//++RJ/efSvTJg8jmg0StmRcta+t57W1jY0ajUFhYOYNmsK/kCA9Ws20dzYgkarYemSd7FYLWi0GsLhCKFAiKiicGj/ETas3czEKeM4fOAolccqMVnMTJo6nllzZxCJhPH2tvfr7uqhvKyC0t37YsdfvYlAIMC8BXPweryEQqF4v+hwKMym9VvZt2c/TY0t6PVaBuYNZMbsqQwanE9bazurVqxFrVbjSLCze+degoEgI8cUMX32VJJTki7wq38xkIjqY91aolrLiVG8OJmoWk9Ub0PRGFE+ZgbIPfF+iMTanCl6K0gSEftAuqd/P3Z8gyN2m86Cb9B8gmkjY2HQkQvE1hW6x96NFPLFgqH21J1iFFkTux5ZTfQUU8SKrCKqMcXuozOhSKKLiHBx6FcBsK62gdqqWrJzBpCYmEA0GmX1ynUc2n8Yvz+IokQZNmII11y/iGg0yuL/LMFkNtHa0kYkHGFQYT6b12+lsb6JxS8tIRKJkJOXjVarxWDUs7dkHzu3leDxeFn7/gZSUpKx2iysW70x3kPU7rBx8xduICUtmZ5uF+tWrefQgaNEo9FYk/oBGWzesI3GhiZWr1yL0WRk1tzppKad6GfpbHfyzlsrqa2uRQLGjB/N/IWXsWrlWg4dOEI4FEatVjFyzAhmz5uJSiVz5FAZm9Ztpr21A7PFzMKrL48vqt9bso+D+w7j83jJG5zHTbddj1arwePx8s4by6muqkGWZFLSkpm/8DIystJJSk3CarVwvPw4PT09p2yRdaGEQ2Hqaurp7uohvyCvN5ipMBgN6LRaOjqcrH1/PQajkbbWNhrrm3AkOJgyfSI7tu6itbkNR4KdO++9HZvNSn1dPW+/sZye7liB2LTMNGbNnUFObjZVldVsXLeF1pa2WE9ZYMjwwcyYPZWaqlq2bNzeu25NYvzkscyeO6PPtbrdHjas2UxbaxsqOfZlY+6C2XR397Blw1Y6nd2o1CrGTSxm/MRitFoti/+zhIzMdGpr6misb0Kr1XLNDVcytGgIfr+fTWu3sHf3foKBIDqDjtHFI5k2czJGo4GsrAzebW2nrraeCVPGXdQjoSaTkTvuvo2X/72YnVtL8Hq89HS7ePwPT3HkUBnzFsyhrbWd1e+to62tnZFjRlBZXkVPjwuVSmbf3gPMv2IO3V09PPu3fzNx8jiKJ4xm1/bdPPXo39iyYSRulweNVsORQ2WU7NjD4KGDiUYjLHtzBYcPHkH7dS0et4f6ugbCoTDlZRUYjHomThnP+jWb+M+/XsVsMVMwJJ8dW0p4+KE/4vH4mDZzMscra3j9laWUHSnnRz//Hs2NLfzrmRdxudzkF+Ti6nbR3NTCmvfWYzQZmX/FZRfVtP2FoMhqXBPuB2K7bhVt3+l8RWMgMHAaUWMCiqwhlDT4tMcKZI4/6WdRvZ1A9tS+x1RpCSfkE07I73tfg4Ngb0g8LUkm7MiNXbMkE7bnnHxOcyq+oVcRzBpH1JjUp7exIPRn/SoAtja34uzoZMKU8fEm7Xt37yMSjmB32Fjz3npWvP0eU6ZPxma38p9/LyYYCGJ32CgaOYzsnAGEw2EURYl9sw+HqamqZfF/lrDwqvkMKswnEg6DohAKxm4/drSChrpGMrLS6e7q4YlHnsbmsHPLF65n2+Yd/O8T/yAtPZW8/Fwqy6swGA2Ee48RDocJhUJ9dj8CvPbym/zzr/9izryZWG1WtmzYzux5MynZsSfWo1inZde2EvaU7CN/UC5qjZoXnnuZQ/sPM6p4JO3ttTQ2NMUDy8a1mxlVPJJ9ew7w9pvLGVM8iqFFhbz37ir+9uQ/mX/FZSDDa/95A4/bw9e+fR92u4209FQ62p20tzn7VQD0BwLUVteh1+vJzEoHoLysgv88/yoatRq9Qc/SJe/S6eyicGgBTQ3NsQ/47buxJ9jp7Ohk84ZtDMzLZtG1C2moa6Li2HHyBuXS1NDEymdeJBgIctuXbua9d1ezad1WRhWP4PDBo1Qcq8Rmt1JX08A/nv4Xfr+f0WNjr+3GtZsZPGQQmVkZ8Wv1uD2sXPY+O7eWkDcohzHjR3PsaDlr3ltPfW0Do8eN4uC+w+zbvR+Hw05+QR6LX1yCJMtk5wzAbrfy4vOvUFtdxxN//yOlJft54k//i81uY9SYEZTu3s+2TTswmYxMmTGJpJQkNBoNHW1OQqHwRb87dcDALCRZxtcb/rZv2cnGtZu56QvX8/XvfoXK8uNUHY8F8YlTxnPlNQtoamhCr9fzhbtuYdSYEWzesO2Ux3a53Hz7+9/AYDDw2B/+Qk1VLQf2HmT4qKHx+1isZiZNncChA0d4793VLLp2AQuvvpyBudl9jhWNKjz39//jWFkFv3v0l1x5zQKOV1Txix/9hg1rNrFw0TwcCbGwoFapmDB5HGPHj2bFO+/zxqtvU3bkGNNmTj5tv2Ghl6zGPfbe096saAwEsqcQyJ5yHi/qY0gyYUfOx15zxJSCb/CV5/GiBOHs6FcBsLOzi54eF1arGb1ehyTLLLpmITq9llAwRF1NPaW791FfW4/NPgwlqhAIBPnWg18jvyAPnU7HkUNleDxerrvxKubMm8nWzTvix588dSJ7d+3j4P4j3HbnTUyYPI7GhiaGFg0BoKPdyT//93lKtu9m0TULWLdqA+FQhAe+9zUKhw7G2eHEarfi7HCyfctOZs2dwY23XotWd6JmlNvlYemSZQzIzuJb3/86CQmxdYharYZrbliE1WahtaWNjnYnO7fuoqaqlqiisGdnKbPnzeD+b91LT3cPRpORlqZWAKbOnMxd932RVcvX8odf/5myI+UMLSpk8YtLUKJRps+ags/vZ9f23WzdtIPb77oVvV6PyWKiva0dV4/r/L6RnyAYCNLc2IJOp8Vqt572fg6HjVvvuAlnh5Pf/L8/4PF4+cHPvksgEGTj+i3s2VnKVdddSU5+Dvfc/yX0Bh379h5k/epNHDtagcflpqaqltT0FL5w1y28+9YKPB4vo8eOoqqymj27SrnxtuuYOGU8sizz54f/QmnJvj4BEGLT7AajgRtvu54JU8axZ9dedu3Yw7iJxUyZPpFoNMrrL71JxbHK+JrQSCTM3V+9k5y8bI5XVLN21Qaam1pYvXItba3t/OSXP4gHiEd+8xjbt+xiyoxJGI0GjCYDXV1deD1etNr+E9z/G8FAMP7fKrWK/aUHiUQiHD1yjEd/9wQul5suZyeKEiUYDJGdMwCzxYzJZGT4iKEkJieedm3+uAnFXH7lXPw+P0OGFVJVWY3T2dnnPiqVioysdDIy01GrVeQNymX4iKEnHcvv81F25Bgmk4nrbr4ag0FP4bACxk0s5s3Fb1NTVRsPgFnZGcy/4jKGFQ2htrqO995djavHhd8fEAFQEISLRr8KgKFQmHAojCTJIMXWW+3Yuosjh45iNBmpKD9ONKrg88Va/0iyRGpaMrPnzUSSJDqdXWi0GlSyjN6g7xPMALRaDRqNBkmSMBgNaLQaGuoaeev1ZWg0anR6HYoCfl+AYDBIVWUNVpuFoUVDMJmM8XVcGq0WWZJPWqsH0NrSRndnD8NnDCMxKQG9Xs+YcaPweX1s2biNimOV6A0GKsoqiUQiBEMh3C43bpeLAQOzSEh0kJDoiD8/gPETi0lNSyW/IBeVSkUgEEBRFMqPVqDV61jz3nqCoRBGk5H0jFRAASlWiy0UCsdGLPsRJRolEAiABPJJa4BOyCvIIyc3G4vVjE6vI29QLlkDs9BqNUhIBIOx0deW5hb+758vodVq8Hp9eL1egsEgZquFpJQkVrz9Pn/6zWPU1TaQnTOApORESnbsxufzUdk7Re52eSgcWoBWe+oCsMmpScyYM5WU1GS2bdpBe2s71ZXVrHj7fTqdXaRnpvUpuTMwZyAFhfnYHTYKhxWwa/tuWppbKS+rxGAwMHzkUHR6HemZaajVapwdTiD2nklS7LlF+tn79t/YvbOUSCRCRmY6ZrMJv8+PrFKRmpZCVnYWAEOHDyE1PYW8QbnUVtd9whFPiK/zlEB1BmWSTiUSiRLu/bdyYtRVQu79N/jhQX5ZpYrXFpRk+aKephcE4dLVrwKgxWzGaDIQCASIhMMcPniU119+k9FjRzLzsumEQiH27Czt8xiNRt3nD7AkSSiK8ql7hf/rHy9SXlbBT3/1AwwGA8//PVZCQJZlzBYzTY1NtLW2o8/OjH14yfKJZkS95/nw33+z2YharaK5qZlIJAJAc2MLzo5OXnzuFabNmsKceTORgLbWNoDeoCrR09VDKBQm4Pcjy6r4FPCpSZitFiRJYu7COajVsYXHVqsVs8WM2+UhFAxhMps+sWzG+abWaEhIdBAJR/D7/Wf8eEk6UdMxGAyw+MUlbNmwjd/86ee0trSza/tuANw9bpztTrIGZDCsaCjjJ49j1JgRZGVnYDTGNuAMLSqkeNxoVGoViqJQUDjolOeUZTm++Uar1aDT6cgvyGP+lb3rvhTIH5wXDwZtLW34fD6sVgvVlTWoVDKJSQlYrBbC4TDtre1YLGY8Hi/hcBhb70hoKBwmFApjsVpO+nJxMYj0hvvuzm7Kjlbw9GN/JxQMceNt16LVasnKzkSWZQYMHMBd992OJMuxZRRRBZvdekYB8NOSJECKjUZ6PF4CgcBJJV8MRgN2h532tg727Cpl/KSxeFxuDpQeRqfXkZOXfeqDCx9LdrdiX/MLFPWluUtaCvnihakFob/pVwEwIcmBzW6jo72jd+dtlEAwiNfjo6fbxfHyaqLR6Gkfr9VqsNmttLa08coLrxGNRj+xgLLP58fr9REOR9i1Y3f8Q95kMjJt5mQef+Qp/vjrP5Odm41Klrn2pqsxmUyYzCbWvLcOrVbDZQtmk5GZ3vscEhg9diSbN2zjkV8/htFkpK2lnfu+/mW6u3vweX10d3dTWX48NtIJDMzJJjc/h2VLV9Dd3UNHu5P5V1z2sSN3kgRXXDWfl194je2bdzC0aAgtTa0YjAaGjRiCy+Wmo70Du8OGPcF+pm/FOaXTacnITMfn89PW2v6ZjqUosfcwGo3S1dVNfV1DfMo7Eo3ESgNVVse6QpiMuHpcOBLsjJ0wmtS0FHZuLSElLQWtVkPJjj384Kff/cRz5ubnUFCYz7Gj5RQU5mM2m6mtqSMxKYGM3unjivJKfvvzR0hOSWZPyT7GTiiOFTKeP5NN67fw6MNPMmrMCLZu2k5iYgLjJ40FoMvZhc/rIzHRgcFw8RWl3b1zL//vwV+i1mjoaHdyvPw4i65byO1fvhWVWsWsy6bzn3+9yrtvrcDV3YMj0UFddR35g/O55/47z8k1qdVqbHYbsizzwrMvsb/0IHd/5Y6P3EfFjbddy2O//wsP/fh3DB8xhMb6JsqOHGPqzCmMGTea6uNnp+XY554kx7+gyUEXhvKVF/Z6+ouPme0QhAtB9dBDDz3k9XsIS4ELfS1ISOzZtRdXj5vi8aMZmDeQSCRCbXUtLS1tTJk+iWAwyBVXzSchycGxI+VkZmUw87LpQOwPvU6nw9XtorOzi4E5A8geOICOdidDhxdSOLSA1pY2gsEgs+fNJDEpgZTUJJoamqk6XoPFYqFo1DCyBmQwdeZkUtNS0Op0VFVU4XF7ySvIZcLkcSQlJRAJR2hqaMHusDNsxBCsttgIjizLFBTm43a5qT5eQ3dXD5OmT2TC5LGoVCqqK6vxenwUDh1MUkoixeNHM2R4IckpSXS0O6mrbcBiMTFxynj0Bj1dzk6mTI+Vs/F6fVQfr2XarCnk5g0kNz8HlSxz6MBRqo/X4OpxUzisgILCQZSXVfD+8jUUjRzWu9O4/5QmUKlUuF0e3l+xluycAYyfVExnRxddXd2MKh5BVnYmjfVNDMzJYvjIYajVKo5XVDO0aAijxoxAo1Gze2cpY8ePZtzEMaSmpVBbU0dDXSNGg4ERo4vIzEqnoHAQWzdtx+8PMHzEEPy+ANs27yAaVRg3qZj8gjxqa+qpOFZJbVU9Or2eOfNn9mkdFgqFaWpsxmI2M232VLRaLTa7ldTUFNrbOjh6pJy6mnrMFhOjikdgNBl57aU3SM9MJz09lcry4+Tm5fDDX3yP9Iw0UtNSsNltlJdV0tS7u/nWO29i8vSJqNVqNq7bwrGj5cy74jIGFeZ/zKvYv/i8PjqdXfGRaINBT8HgfL76wD1ce+NVZA3IRJIk7A4bgwbn0dLcSn1tPa3NbUiSzOjikQwfORSf10drcxsZAzIYN2EMdoeNnh4Xbc1tDBsxhNHFI/F4vLS2tDF5+kSKRsbWAjc3tRAMBJkxZyoZmem0tbah1WqZNG0CmVkZmC1mFEWhvd2JzWZl/KSxhEIhfF4f02ZNISdvIAWFg0hOTaK+up6mphai0ShXXL2Ae772JdIzUvF5fTQ1NJE1IJNJUydgsZjp6HDS2dnF6OKRDBsxFJ2uf/WQVZDwhzT4gufxumQZfe1W1K5GPvVUzCUgmDEGb9FN5+18KlnBqAuiVUfO2zmFi4ukKIrS3tmCT7rww9ThcJi//OmvrFu9kR8/9CCTp02kq7OLTmcXSBJJSYl0dDhJT09Fq9PS3NiCJEmkZaTGjxEMBnG2d+L1+rA7bBiMBjqdnZhMRqw2K91dPbh6XKSkJaPT6QgGg70fHiGsNku89mByShLRaJSebhedzk4kScJmt2J32FEUha7OLrq7Yps1EhIcaD60W/ODOncetwdJkkhKScJsNtHdFRvd+6DmXDAYxGqzYjQa8Pt7+5/6/OgNehITEwiFw3Q5u0hIio0GBQJBWppaSExKiH+gdXV20+nsJBpV0Om0OBIdGAx63lz8Ns8/8wL3f+terrruigvxdn6syvLYDsuEBDt/fOp3hMMRuju7sVjN6A363tdJg91uI6pEaWluw2DQ40iwI0kStdV1mC1mEpMSCIfCNDY0EQ6HMRgNaLVaotEoRw8f45FfP8a4icXcec9tHCg9xNOPP8OU6ZP42rfvxWa30t7aEa8RaDIZSU1P6bOkIBKJ4OzoJBIOk5KWEi/zEfAHcDo78Xq8gITFYsaRaCcYCHHTlbczYOAAHvzpt5FlKT71+cHyBLfbQ3trB9FoJP5e6w16WlvaePwPT+F0dvK9H3/rtNPR/ZHP56ezo5NgMLbpQ6VSodPrSEh0nNQBJBQK0dLUGp/+1+l02B12LFZz/HWVZRlHgiO+rtPZ7sRg0GNPcODzemlv68DusGN32OL/Dlw9LhKTEtDp9XR1dhHwB3AkOjD27tzvdHbR0+1Cr9eRlJyIz+enu7uHxEQHJrMJSZJwu9y0t3UQCoVQqdTYHbb4mtxgIEh7eweyLJOUlIhao8bt8tDZ2YnZbMZmt/a7MjBRRaLTY8DpPo/dgJQI6q4a1N31EL3417GeFbKasC2LsCPvvJ1So4qQZHFj1gc/+c7CJalfBUCArRu38+jDT3LDLddww63X9inKLHw6zU0t/P3JZ2lrbedHD32PrAGZF/qSTuJ2e3j1xSWsePs9fvbbHzNqTNFZP0dl+XH+9uSzbNu8Ha1WRzQaISMrgwf+537GTx77qVqTnSmPx8vNi+4ge2AWDz/+K+xnUH5n+5adPP3nvzN99lTuuu+LJ21iEoQzdUECYPzkESTECCDERmKRz+8sjAiAwifpdwEwGAzS3dmDwaiPfysXzkwkHKGnx4WiKNjttk9cB3khKIqC1+vD4/Zgs9vOydRZOBzB7XLT091DIBBAq9ViMhux2Wx9RmzPJkVRaKhrRKvTkpSceEYjQn5/AFePC4PRgNnc//o3CxefCxoAT2Hxc0+x9KV/nvK27LzB3Hz3A4yZNP2/Pn5jXRXf//J1DBk5lp/9+dlP/bhoNMJvvncfxw6VMm7qHL798z9+4mdPd2cH2ze8z5p3XiMSCTPz8muZPm8RjqT+UQhaBEDhk/SrTSAAWq2W5FTRUumzUKlVOPrZxo+P+mDK9VzuUFarVbFNML3ThOfjy4QkSWQOyOS/OZVerxM9ZYXPPUVRUKJR3K5uAn4fZosdvdF4UkH9/0Y4FKa5oZbUjDPr0X7s0D6O7CuhtameNcsWc+93f4bZevrRe7erm3deeZ5Xn/0LGq0WFIVjB0vp7Gjl2tvvw+a4+No4CpeefhcABeFcOJ8jyWLQWhBO7YYvfY3rvvgV3D1dPP/kw+zctIq7Hvgxly26CUmSkHs3q7m6nVRXlOHq7iI5LYMBuQXoDbEvi5FImLqqCqrLj2K1OygYNhKL7dQt3ULBAD1dsTXcZqsdre7UX7C2rl2Ou6cLmyORni4n61e8yaJb7jrt82ioOc7eHRspHDGGL3/rJyjRKM8+/mt2b13P5NkLRAAULgoiAAqCIAjnhUqlQqVSodZqe8OehEqtiY2i9TpUupPnHv8N+3dtRZIkotEo866+mbse+DGOpBR+/6OvsW3dSiLhMIoCWr2OR559k+GjT/QGVlDwul0sf/1F/vP3R1l4wxe54+vfB04OgF6Pi5It60CS+M4v/sQffvwNli95kUU3f+m03+byC4v4ySPPEAj4cSQk0dHWjNFkobvLeVZGMgXhfOh/i8MEQRCES1I4FKLy6EEi4TD/78/P8u+VJYyffhk7N62hraWRki3rOLRnJ2Mnz+LV9Yf5/T9ew+ZI5J1XnutznKDfz+Y177L4+b8wfd4ibv7yNzAYT70OsmTzOpxtLUycMY+xU2YzIG8wZQf2UHXsyGmvU63RkJiSRsaAHDQ6PYf27qK+5jiFRWNISE497eMEoT8RAVAQBEHoF9QaDVfccAcPPflvMrPzOLh7O53tbXQ52wn2dnDRaLUc3l/Cy/94nEDAz5///Q7ffejPfY5TXXGUfz35O1IzBnDlTXdiT0w+5fmikQg7Nq6ip6uT8dNmEwoGmD5vEZIksfLNl4BY60p3TzdtzY20NTfS5WyPt2kMBYPs3Pg+b7/yHCazlZkLriU5NeOU5xKE/kZMAQuCIAj9QiQcZn/JVl755xNUlx/FlpBIR2tz/PbRk2Ywff7VbF27nPeXvsI7rz6PRqvl7m//hKtvvSd+v3AohMftQqPRcbzsMAXDRsXXF35Yfc1xKo7sJ+D3sW7FW+zYsJruzg4URWHTqnf40gM/JBqJ8vyTv2PZ4n8BUFQ8kW///FHSsrLZu20Di59/mmgkwpe++UOGjxl/0jkEob8SI4CCIAhCv9DW0sjqd16joeY4t9//P/zp+bconjwzfnvQ7+eqW+7i+799iju/8QNmLbgWJarw7OO/pbOjNX6/tKyB3Pzlb2I0W9i6bgVNDbWnOJtCyea1ONtbyczOpaujnab6arweF2mZ2TjbWti1aQ1qtZrcgqFMnDmfiTPnM2z0eLQ6HYdLd/HKs0/S0+nk+jvvZ8jIsfg8nvjooCD0d2IEUBAEQegX/D4vHncPJrMFvcFEZdkhnG2xjk/RSISyg3t59dknyR08jHlX38yYSTMoO1SKx9VNKHii3l1icirXfvEr6I0mlr70LFvXLufaL9yLRntiE4jX7WZfyRbCoRDffeRxRo6fEm+ZuWvTGn72jdtZu/wNps1bxKJb7uqzK7ilsY41y17j4O7tDBs9nuNlB6kuP4I9IYnp868iLTP7/L1ogvBfEgFQEARBOK9kScZitZOYkoZeb4j/PCk1naLiiVQdO8yyxf+K1eKTICtnEIGAn0FDR5CQlMq2de9RU1lGJBIhFAgw/5pbSc3MpqmumuS0TOwJSZjMFoonzeBw6S6qjx2htamBzIEnWrHVVVUQ8PkonjSDzIG5ffqlj5k0nbzC4bQ01NHd2UFCUt+NHa1NDTTWVJGYkk5LYz0tjfUAZA7MY+S4ySIAChcFEQAFQRCE86dhPfUAAAIySURBVEqr0zNhxmUMHFRI7uBh8Z+bLTZmLbwOqy2BlsZa8gqLSEpJo7GumuTUDBKSUrjvwYfYuXEVddWVqFQqLr/mVmYuuAZJkrDaE7j9/u+R2LsTN3NgPjfd9XUa66rhIxVdDCYz866+mdTMbGwJfZsPqDVa7vrWj3G2tRAOhU66/qSUNOZefTPhj0z3Wqw2ktOzztKrJAjnVr9rBScIgiCcHf2tFZxw/ohWcMInEZtABEEQBEEQLjEiAAqCIAiCIFxiRAAUBEEQBEG4xIgAKAiCIAiCcIkRAVAQBEEQBOESIwKgIAiCIAjCJUYEQEEQBEEQhEuMCICCIAiCIAiXGBEABUEQBEEQLjEiAAqCIAiCIFxiRAAUBEEQBEG4xIgAKAiCIAiCcIkRAVAQBEEQBOESIwKgIAiCIAjCJUYEQEEQBEEQhEuMCICCIAiCIAiXGPWFvgBBEATh3JEkUMnKhb4M4TyTZQXpQl+E0K+JACgIgvA5JQEGTQiM3gt9KcJ5ppIVNOrIhb4MoR8TAVAQBOFzSpIUDNoQBm3oQl+KIAj9jFgDKAiCIAiCcIkRAVAQBEEQBOESIwKgIAiCIAjCJUYEQEEQBEEQhEuMCICCIAiCIAiXGBEABUEQBEEQLjEiAAqCIAiCIFxiRAAUBEEQBEG4xIgAKAiCIAiCcIkRAVAQBEEQBOESIwKgIAiCIAjCJUYEQEEQBEEQhEuMCICCIAiCIAiXGBEABUEQBEEQLjH/H2/jli8C9dp/AAAAAElFTkSuQmCC;" parent="7zUhYIdjNnRir5XlXD8w-5" vertex="1">
          <mxGeometry x="30" y="30" width="322.92" height="160.95" as="geometry" />
        </mxCell>
        <mxCell id="lL1xDrW0RNjOT5UMQTyE-3" value="" style="sketch=0;points=[[0,0,0],[0.25,0,0],[0.5,0,0],[0.75,0,0],[1,0,0],[0,1,0],[0.25,1,0],[0.5,1,0],[0.75,1,0],[1,1,0],[0,0.25,0],[0,0.5,0],[0,0.75,0],[1,0.25,0],[1,0.5,0],[1,0.75,0]];points=[[0,0,0],[0.25,0,0],[0.5,0,0],[0.75,0,0],[1,0,0],[0,1,0],[0.25,1,0],[0.5,1,0],[0.75,1,0],[1,1,0],[0,0.25,0],[0,0.5,0],[0,0.75,0],[1,0.25,0],[1,0.5,0],[1,0.75,0]];outlineConnect=0;fontColor=#232F3E;gradientColor=#F34482;gradientDirection=north;fillColor=#BC1356;strokeColor=#ffffff;dashed=0;verticalLabelPosition=bottom;verticalAlign=top;align=center;html=1;fontSize=12;fontStyle=0;aspect=fixed;shape=mxgraph.aws4.resourceIcon;resIcon=mxgraph.aws4.cloudformation;" parent="7zUhYIdjNnRir5XlXD8w-5" vertex="1">
          <mxGeometry x="280" y="227.5" width="35" height="35" as="geometry" />
        </mxCell>
        <mxCell id="7zUhYIdjNnRir5XlXD8w-18" style="edgeStyle=orthogonalEdgeStyle;rounded=0;orthogonalLoop=1;jettySize=auto;html=1;entryX=0.5;entryY=0;entryDx=0;entryDy=0;curved=1;" parent="7zUhYIdjNnRir5XlXD8w-1" source="7zUhYIdjNnRir5XlXD8w-13" target="7zUhYIdjNnRir5XlXD8w-20" edge="1">
          <mxGeometry relative="1" as="geometry">
            <mxPoint x="535" y="690" as="targetPoint" />
          </mxGeometry>
        </mxCell>
        <mxCell id="7zUhYIdjNnRir5XlXD8w-19" style="edgeStyle=orthogonalEdgeStyle;rounded=0;orthogonalLoop=1;jettySize=auto;html=1;" parent="7zUhYIdjNnRir5XlXD8w-1" source="7zUhYIdjNnRir5XlXD8w-20" target="7zUhYIdjNnRir5XlXD8w-26" edge="1">
          <mxGeometry relative="1" as="geometry" />
        </mxCell>
        <mxCell id="7zUhYIdjNnRir5XlXD8w-20" value="Dev Account" style="points=[[0,0],[0.25,0],[0.5,0],[0.75,0],[1,0],[1,0.25],[1,0.5],[1,0.75],[1,1],[0.75,1],[0.5,1],[0.25,1],[0,1],[0,0.75],[0,0.5],[0,0.25]];outlineConnect=0;gradientColor=none;html=1;whiteSpace=wrap;fontSize=12;fontStyle=0;container=1;pointerEvents=0;collapsible=0;recursiveResize=0;shape=mxgraph.aws4.group;grIcon=mxgraph.aws4.group_account;strokeColor=#CD2264;fillColor=none;verticalAlign=top;align=left;spacingLeft=30;fontColor=#CD2264;dashed=0;" parent="7zUhYIdjNnRir5XlXD8w-1" vertex="1">
          <mxGeometry x="262.5" y="750" width="110" height="130" as="geometry" />
        </mxCell>
        <mxCell id="7zUhYIdjNnRir5XlXD8w-21" value="VPC" style="points=[[0,0],[0.25,0],[0.5,0],[0.75,0],[1,0],[1,0.25],[1,0.5],[1,0.75],[1,1],[0.75,1],[0.5,1],[0.25,1],[0,1],[0,0.75],[0,0.5],[0,0.25]];outlineConnect=0;gradientColor=none;html=1;whiteSpace=wrap;fontSize=12;fontStyle=0;container=1;pointerEvents=0;collapsible=0;recursiveResize=0;shape=mxgraph.aws4.group;grIcon=mxgraph.aws4.group_vpc;strokeColor=#248814;fillColor=none;verticalAlign=top;align=left;spacingLeft=30;fontColor=#AAB7B8;dashed=0;" parent="7zUhYIdjNnRir5XlXD8w-20" vertex="1">
          <mxGeometry x="10" y="30" width="90" height="90" as="geometry" />
        </mxCell>
        <mxCell id="TuA9tZc12aIKrgLRgAZd-0" value="" style="sketch=0;points=[[0,0,0],[0.25,0,0],[0.5,0,0],[0.75,0,0],[1,0,0],[0,1,0],[0.25,1,0],[0.5,1,0],[0.75,1,0],[1,1,0],[0,0.25,0],[0,0.5,0],[0,0.75,0],[1,0.25,0],[1,0.5,0],[1,0.75,0]];outlineConnect=0;fontColor=#232F3E;gradientColor=#F78E04;gradientDirection=north;fillColor=#D05C17;strokeColor=#ffffff;dashed=0;verticalLabelPosition=bottom;verticalAlign=top;align=center;html=1;fontSize=12;fontStyle=0;aspect=fixed;shape=mxgraph.aws4.resourceIcon;resIcon=mxgraph.aws4.fargate;" parent="7zUhYIdjNnRir5XlXD8w-21" vertex="1">
          <mxGeometry x="6" y="36" width="34" height="34" as="geometry" />
        </mxCell>
        <mxCell id="TuA9tZc12aIKrgLRgAZd-1" value="" style="sketch=0;outlineConnect=0;fontColor=#232F3E;gradientColor=none;fillColor=#D45B07;strokeColor=none;dashed=0;verticalLabelPosition=bottom;verticalAlign=top;align=center;html=1;fontSize=12;fontStyle=0;aspect=fixed;pointerEvents=1;shape=mxgraph.aws4.lambda_function;" parent="7zUhYIdjNnRir5XlXD8w-21" vertex="1">
          <mxGeometry x="50" y="36" width="33" height="33" as="geometry" />
        </mxCell>
        <mxCell id="7zUhYIdjNnRir5XlXD8w-24" style="edgeStyle=orthogonalEdgeStyle;rounded=0;orthogonalLoop=1;jettySize=auto;html=1;" parent="7zUhYIdjNnRir5XlXD8w-1" source="7zUhYIdjNnRir5XlXD8w-26" target="7zUhYIdjNnRir5XlXD8w-31" edge="1">
          <mxGeometry relative="1" as="geometry">
            <mxPoint x="642.5" y="750" as="targetPoint" />
          </mxGeometry>
        </mxCell>
        <mxCell id="7zUhYIdjNnRir5XlXD8w-26" value="QA Account" style="points=[[0,0],[0.25,0],[0.5,0],[0.75,0],[1,0],[1,0.25],[1,0.5],[1,0.75],[1,1],[0.75,1],[0.5,1],[0.25,1],[0,1],[0,0.75],[0,0.5],[0,0.25]];outlineConnect=0;gradientColor=none;html=1;whiteSpace=wrap;fontSize=12;fontStyle=0;container=1;pointerEvents=0;collapsible=0;recursiveResize=0;shape=mxgraph.aws4.group;grIcon=mxgraph.aws4.group_account;strokeColor=#CD2264;fillColor=none;verticalAlign=top;align=left;spacingLeft=30;fontColor=#CD2264;dashed=0;" parent="7zUhYIdjNnRir5XlXD8w-1" vertex="1">
          <mxGeometry x="452.5" y="750" width="110" height="130" as="geometry" />
        </mxCell>
        <mxCell id="7zUhYIdjNnRir5XlXD8w-27" value="VPC" style="points=[[0,0],[0.25,0],[0.5,0],[0.75,0],[1,0],[1,0.25],[1,0.5],[1,0.75],[1,1],[0.75,1],[0.5,1],[0.25,1],[0,1],[0,0.75],[0,0.5],[0,0.25]];outlineConnect=0;gradientColor=none;html=1;whiteSpace=wrap;fontSize=12;fontStyle=0;container=1;pointerEvents=0;collapsible=0;recursiveResize=0;shape=mxgraph.aws4.group;grIcon=mxgraph.aws4.group_vpc;strokeColor=#248814;fillColor=none;verticalAlign=top;align=left;spacingLeft=30;fontColor=#AAB7B8;dashed=0;" parent="7zUhYIdjNnRir5XlXD8w-26" vertex="1">
          <mxGeometry x="10" y="30" width="90" height="90" as="geometry" />
        </mxCell>
        <mxCell id="TuA9tZc12aIKrgLRgAZd-2" value="" style="sketch=0;points=[[0,0,0],[0.25,0,0],[0.5,0,0],[0.75,0,0],[1,0,0],[0,1,0],[0.25,1,0],[0.5,1,0],[0.75,1,0],[1,1,0],[0,0.25,0],[0,0.5,0],[0,0.75,0],[1,0.25,0],[1,0.5,0],[1,0.75,0]];outlineConnect=0;fontColor=#232F3E;gradientColor=#F78E04;gradientDirection=north;fillColor=#D05C17;strokeColor=#ffffff;dashed=0;verticalLabelPosition=bottom;verticalAlign=top;align=center;html=1;fontSize=12;fontStyle=0;aspect=fixed;shape=mxgraph.aws4.resourceIcon;resIcon=mxgraph.aws4.fargate;" parent="7zUhYIdjNnRir5XlXD8w-27" vertex="1">
          <mxGeometry x="6.5" y="40" width="34" height="34" as="geometry" />
        </mxCell>
        <mxCell id="TuA9tZc12aIKrgLRgAZd-3" value="" style="sketch=0;outlineConnect=0;fontColor=#232F3E;gradientColor=none;fillColor=#D45B07;strokeColor=none;dashed=0;verticalLabelPosition=bottom;verticalAlign=top;align=center;html=1;fontSize=12;fontStyle=0;aspect=fixed;pointerEvents=1;shape=mxgraph.aws4.lambda_function;" parent="7zUhYIdjNnRir5XlXD8w-27" vertex="1">
          <mxGeometry x="50.5" y="40" width="33" height="33" as="geometry" />
        </mxCell>
        <mxCell id="7zUhYIdjNnRir5XlXD8w-30" value="on approval" style="text;html=1;align=center;verticalAlign=middle;resizable=0;points=[];autosize=1;strokeColor=none;fillColor=none;" parent="7zUhYIdjNnRir5XlXD8w-1" vertex="1">
          <mxGeometry x="362.5" y="790" width="90" height="30" as="geometry" />
        </mxCell>
        <mxCell id="7zUhYIdjNnRir5XlXD8w-31" value="Prod Account" style="points=[[0,0],[0.25,0],[0.5,0],[0.75,0],[1,0],[1,0.25],[1,0.5],[1,0.75],[1,1],[0.75,1],[0.5,1],[0.25,1],[0,1],[0,0.75],[0,0.5],[0,0.25]];outlineConnect=0;gradientColor=none;html=1;whiteSpace=wrap;fontSize=12;fontStyle=0;container=1;pointerEvents=0;collapsible=0;recursiveResize=0;shape=mxgraph.aws4.group;grIcon=mxgraph.aws4.group_account;strokeColor=#CD2264;fillColor=none;verticalAlign=top;align=left;spacingLeft=30;fontColor=#CD2264;dashed=0;" parent="7zUhYIdjNnRir5XlXD8w-1" vertex="1">
          <mxGeometry x="642.5" y="750" width="130" height="130" as="geometry" />
        </mxCell>
        <mxCell id="7zUhYIdjNnRir5XlXD8w-32" value="VPC" style="points=[[0,0],[0.25,0],[0.5,0],[0.75,0],[1,0],[1,0.25],[1,0.5],[1,0.75],[1,1],[0.75,1],[0.5,1],[0.25,1],[0,1],[0,0.75],[0,0.5],[0,0.25]];outlineConnect=0;gradientColor=none;html=1;whiteSpace=wrap;fontSize=12;fontStyle=0;container=1;pointerEvents=0;collapsible=0;recursiveResize=0;shape=mxgraph.aws4.group;grIcon=mxgraph.aws4.group_vpc;strokeColor=#248814;fillColor=none;verticalAlign=top;align=left;spacingLeft=30;fontColor=#AAB7B8;dashed=0;" parent="7zUhYIdjNnRir5XlXD8w-31" vertex="1">
          <mxGeometry x="10" y="30" width="110" height="90" as="geometry" />
        </mxCell>
        <mxCell id="TuA9tZc12aIKrgLRgAZd-4" value="" style="sketch=0;points=[[0,0,0],[0.25,0,0],[0.5,0,0],[0.75,0,0],[1,0,0],[0,1,0],[0.25,1,0],[0.5,1,0],[0.75,1,0],[1,1,0],[0,0.25,0],[0,0.5,0],[0,0.75,0],[1,0.25,0],[1,0.5,0],[1,0.75,0]];outlineConnect=0;fontColor=#232F3E;gradientColor=#F78E04;gradientDirection=north;fillColor=#D05C17;strokeColor=#ffffff;dashed=0;verticalLabelPosition=bottom;verticalAlign=top;align=center;html=1;fontSize=12;fontStyle=0;aspect=fixed;shape=mxgraph.aws4.resourceIcon;resIcon=mxgraph.aws4.fargate;" parent="7zUhYIdjNnRir5XlXD8w-32" vertex="1">
          <mxGeometry x="20" y="40" width="34" height="34" as="geometry" />
        </mxCell>
        <mxCell id="TuA9tZc12aIKrgLRgAZd-5" value="" style="sketch=0;outlineConnect=0;fontColor=#232F3E;gradientColor=none;fillColor=#D45B07;strokeColor=none;dashed=0;verticalLabelPosition=bottom;verticalAlign=top;align=center;html=1;fontSize=12;fontStyle=0;aspect=fixed;pointerEvents=1;shape=mxgraph.aws4.lambda_function;" parent="7zUhYIdjNnRir5XlXD8w-32" vertex="1">
          <mxGeometry x="64" y="40" width="33" height="33" as="geometry" />
        </mxCell>
        <mxCell id="7zUhYIdjNnRir5XlXD8w-39" value="on approval" style="text;html=1;align=center;verticalAlign=middle;resizable=0;points=[];autosize=1;strokeColor=none;fillColor=none;" parent="7zUhYIdjNnRir5XlXD8w-1" vertex="1">
          <mxGeometry x="552.5" y="810" width="90" height="30" as="geometry" />
        </mxCell>
        <mxCell id="7zUhYIdjNnRir5XlXD8w-40" value="deploy to dev account on commit" style="text;html=1;align=center;verticalAlign=middle;resizable=0;points=[];autosize=1;strokeColor=none;fillColor=none;" parent="7zUhYIdjNnRir5XlXD8w-1" vertex="1">
          <mxGeometry x="290" y="680" width="200" height="30" as="geometry" />
        </mxCell>
        <mxCell id="7zUhYIdjNnRir5XlXD8w-41" style="edgeStyle=orthogonalEdgeStyle;rounded=0;orthogonalLoop=1;jettySize=auto;html=1;entryX=0;entryY=0.25;entryDx=0;entryDy=0;curved=1;" parent="7zUhYIdjNnRir5XlXD8w-1" source="7zUhYIdjNnRir5XlXD8w-42" target="lL1xDrW0RNjOT5UMQTyE-2" edge="1">
          <mxGeometry relative="1" as="geometry" />
        </mxCell>
        <mxCell id="7zUhYIdjNnRir5XlXD8w-42" value="BitBucket&lt;br&gt;Codecommit&lt;br&gt;GitHub&lt;br&gt;Azure DevOps" style="verticalLabelPosition=bottom;html=1;verticalAlign=top;align=center;strokeColor=none;fillColor=#00BEF2;shape=mxgraph.azure.git_repository;" parent="7zUhYIdjNnRir5XlXD8w-1" vertex="1">
          <mxGeometry x="190" y="467.5" width="60" height="55" as="geometry" />
        </mxCell>
      </root>
    </mxGraphModel>
  </diagram>
</mxfile>
